%TF.GenerationSoftware,KiCad,Pcbnew,5.1.9+dfsg1-1~bpo10+1*%
%TF.CreationDate,2023-04-14T13:40:22+02:00*%
%TF.ProjectId,IIsiPDSAdapter,49497369-5044-4534-9164-61707465722e,rev?*%
%TF.SameCoordinates,Original*%
%TF.FileFunction,Soldermask,Top*%
%TF.FilePolarity,Negative*%
%FSLAX46Y46*%
G04 Gerber Fmt 4.6, Leading zero omitted, Abs format (unit mm)*
G04 Created by KiCad (PCBNEW 5.1.9+dfsg1-1~bpo10+1) date 2023-04-14 13:40:22*
%MOMM*%
%LPD*%
G01*
G04 APERTURE LIST*
%ADD10C,0.800000*%
%ADD11R,0.900000X0.700000*%
%ADD12R,0.600000X0.510000*%
%ADD13C,1.600000*%
%ADD14R,1.600000X1.600000*%
%ADD15R,0.650000X1.060000*%
%ADD16C,3.403600*%
%ADD17C,1.574800*%
%ADD18C,1.400000*%
%ADD19R,1.400000X1.400000*%
%ADD20C,4.335000*%
%ADD21C,1.605000*%
%ADD22R,1.605000X1.605000*%
G04 APERTURE END LIST*
D10*
%TO.C,S1*%
X83500000Y-100000000D03*
X86500000Y-100000000D03*
D11*
X88000000Y-99925000D03*
X82000000Y-99925000D03*
D12*
X86000000Y-101280000D03*
X85000000Y-101280000D03*
X84000000Y-101280000D03*
%TD*%
%TO.C,C15*%
G36*
G01*
X216380000Y-147925001D02*
X216380000Y-147074999D01*
G75*
G02*
X216629999Y-146825000I249999J0D01*
G01*
X217530001Y-146825000D01*
G75*
G02*
X217780000Y-147074999I0J-249999D01*
G01*
X217780000Y-147925001D01*
G75*
G02*
X217530001Y-148175000I-249999J0D01*
G01*
X216629999Y-148175000D01*
G75*
G02*
X216380000Y-147925001I0J249999D01*
G01*
G37*
G36*
G01*
X213680000Y-147925001D02*
X213680000Y-147074999D01*
G75*
G02*
X213929999Y-146825000I249999J0D01*
G01*
X214830001Y-146825000D01*
G75*
G02*
X215080000Y-147074999I0J-249999D01*
G01*
X215080000Y-147925001D01*
G75*
G02*
X214830001Y-148175000I-249999J0D01*
G01*
X213929999Y-148175000D01*
G75*
G02*
X213680000Y-147925001I0J249999D01*
G01*
G37*
%TD*%
%TO.C,X1*%
G36*
G01*
X222400000Y-135800000D02*
X221600000Y-135800000D01*
G75*
G02*
X221200000Y-135400000I0J400000D01*
G01*
X221200000Y-134600000D01*
G75*
G02*
X221600000Y-134200000I400000J0D01*
G01*
X222400000Y-134200000D01*
G75*
G02*
X222800000Y-134600000I0J-400000D01*
G01*
X222800000Y-135400000D01*
G75*
G02*
X222400000Y-135800000I-400000J0D01*
G01*
G37*
D13*
X214380000Y-135000000D03*
X222000000Y-127380000D03*
X214380000Y-127380000D03*
X214380000Y-142620000D03*
D14*
X222000000Y-142620000D03*
%TD*%
%TO.C,C14*%
G36*
G01*
X95100000Y-109250000D02*
X95100000Y-108750000D01*
G75*
G02*
X95325000Y-108525000I225000J0D01*
G01*
X95775000Y-108525000D01*
G75*
G02*
X96000000Y-108750000I0J-225000D01*
G01*
X96000000Y-109250000D01*
G75*
G02*
X95775000Y-109475000I-225000J0D01*
G01*
X95325000Y-109475000D01*
G75*
G02*
X95100000Y-109250000I0J225000D01*
G01*
G37*
G36*
G01*
X93550000Y-109250000D02*
X93550000Y-108750000D01*
G75*
G02*
X93775000Y-108525000I225000J0D01*
G01*
X94225000Y-108525000D01*
G75*
G02*
X94450000Y-108750000I0J-225000D01*
G01*
X94450000Y-109250000D01*
G75*
G02*
X94225000Y-109475000I-225000J0D01*
G01*
X93775000Y-109475000D01*
G75*
G02*
X93550000Y-109250000I0J225000D01*
G01*
G37*
%TD*%
D15*
%TO.C,U1*%
X94000000Y-106600000D03*
X94950000Y-106600000D03*
X93050000Y-106600000D03*
X93050000Y-104400000D03*
X94000000Y-104400000D03*
X94950000Y-104400000D03*
%TD*%
%TO.C,R5*%
G36*
G01*
X86391000Y-102975000D02*
X86391000Y-103525000D01*
G75*
G02*
X86191000Y-103725000I-200000J0D01*
G01*
X85791000Y-103725000D01*
G75*
G02*
X85591000Y-103525000I0J200000D01*
G01*
X85591000Y-102975000D01*
G75*
G02*
X85791000Y-102775000I200000J0D01*
G01*
X86191000Y-102775000D01*
G75*
G02*
X86391000Y-102975000I0J-200000D01*
G01*
G37*
G36*
G01*
X88041000Y-102975000D02*
X88041000Y-103525000D01*
G75*
G02*
X87841000Y-103725000I-200000J0D01*
G01*
X87441000Y-103725000D01*
G75*
G02*
X87241000Y-103525000I0J200000D01*
G01*
X87241000Y-102975000D01*
G75*
G02*
X87441000Y-102775000I200000J0D01*
G01*
X87841000Y-102775000D01*
G75*
G02*
X88041000Y-102975000I0J-200000D01*
G01*
G37*
%TD*%
%TO.C,R4*%
G36*
G01*
X83600000Y-103525000D02*
X83600000Y-102975000D01*
G75*
G02*
X83800000Y-102775000I200000J0D01*
G01*
X84200000Y-102775000D01*
G75*
G02*
X84400000Y-102975000I0J-200000D01*
G01*
X84400000Y-103525000D01*
G75*
G02*
X84200000Y-103725000I-200000J0D01*
G01*
X83800000Y-103725000D01*
G75*
G02*
X83600000Y-103525000I0J200000D01*
G01*
G37*
G36*
G01*
X81950000Y-103525000D02*
X81950000Y-102975000D01*
G75*
G02*
X82150000Y-102775000I200000J0D01*
G01*
X82550000Y-102775000D01*
G75*
G02*
X82750000Y-102975000I0J-200000D01*
G01*
X82750000Y-103525000D01*
G75*
G02*
X82550000Y-103725000I-200000J0D01*
G01*
X82150000Y-103725000D01*
G75*
G02*
X81950000Y-103525000I0J200000D01*
G01*
G37*
%TD*%
D16*
%TO.C,J4*%
X209576100Y-102535200D03*
X99263900Y-102535200D03*
D17*
X104890000Y-105380000D03*
X107430000Y-105380000D03*
X109970000Y-105380000D03*
X112510000Y-105380000D03*
X115050000Y-105380000D03*
X117590000Y-105380000D03*
X120130000Y-105380000D03*
X122670000Y-105380000D03*
X125210000Y-105380000D03*
X127750000Y-105380000D03*
X130290000Y-105380000D03*
X132830000Y-105380000D03*
X135370000Y-105380000D03*
X137910000Y-105380000D03*
X140450000Y-105380000D03*
X142990000Y-105380000D03*
X145530000Y-105380000D03*
X148070000Y-105380000D03*
X150610000Y-105380000D03*
X153150000Y-105380000D03*
X155690000Y-105380000D03*
X158230000Y-105380000D03*
X160770000Y-105380000D03*
X163310000Y-105380000D03*
X165850000Y-105380000D03*
X168390000Y-105380000D03*
X170930000Y-105380000D03*
X173470000Y-105380000D03*
X176010000Y-105380000D03*
X178550000Y-105380000D03*
X181090000Y-105380000D03*
X183630000Y-105380000D03*
X186170000Y-105380000D03*
X188710000Y-105380000D03*
X191250000Y-105380000D03*
X193790000Y-105380000D03*
X196330000Y-105380000D03*
X198870000Y-105380000D03*
X201410000Y-105380000D03*
X203950000Y-105380000D03*
X104890000Y-102840000D03*
X107430000Y-102840000D03*
X109970000Y-102840000D03*
X112510000Y-102840000D03*
X115050000Y-102840000D03*
X117590000Y-102840000D03*
X120130000Y-102840000D03*
X122670000Y-102840000D03*
X125210000Y-102840000D03*
X127750000Y-102840000D03*
X130290000Y-102840000D03*
X132830000Y-102840000D03*
X135370000Y-102840000D03*
X137910000Y-102840000D03*
X140450000Y-102840000D03*
X142990000Y-102840000D03*
X145530000Y-102840000D03*
X148070000Y-102840000D03*
X150610000Y-102840000D03*
X153150000Y-102840000D03*
X155690000Y-102840000D03*
X158230000Y-102840000D03*
X160770000Y-102840000D03*
X163310000Y-102840000D03*
X165850000Y-102840000D03*
X168390000Y-102840000D03*
X170930000Y-102840000D03*
X173470000Y-102840000D03*
X176010000Y-102840000D03*
X178550000Y-102840000D03*
X181090000Y-102840000D03*
X183630000Y-102840000D03*
X186170000Y-102840000D03*
X188710000Y-102840000D03*
X191250000Y-102840000D03*
X193790000Y-102840000D03*
X196330000Y-102840000D03*
X198870000Y-102840000D03*
X201410000Y-102840000D03*
X203950000Y-102840000D03*
X104890000Y-100300000D03*
X107430000Y-100300000D03*
X109970000Y-100300000D03*
X112510000Y-100300000D03*
X115050000Y-100300000D03*
X117590000Y-100300000D03*
X120130000Y-100300000D03*
X122670000Y-100300000D03*
X125210000Y-100300000D03*
X127750000Y-100300000D03*
X130290000Y-100300000D03*
X132830000Y-100300000D03*
X135370000Y-100300000D03*
X137910000Y-100300000D03*
X140450000Y-100300000D03*
X142990000Y-100300000D03*
X145530000Y-100300000D03*
X148070000Y-100300000D03*
X150610000Y-100300000D03*
X153150000Y-100300000D03*
X155690000Y-100300000D03*
X158230000Y-100300000D03*
X160770000Y-100300000D03*
X163310000Y-100300000D03*
X165850000Y-100300000D03*
X168390000Y-100300000D03*
X170930000Y-100300000D03*
X173470000Y-100300000D03*
X176010000Y-100300000D03*
X178550000Y-100300000D03*
X181090000Y-100300000D03*
X183630000Y-100300000D03*
X186170000Y-100300000D03*
X188710000Y-100300000D03*
X191250000Y-100300000D03*
X193790000Y-100300000D03*
X196330000Y-100300000D03*
X198870000Y-100300000D03*
X201410000Y-100300000D03*
X203950000Y-100300000D03*
%TD*%
D18*
%TO.C,J2*%
X89160000Y-128790000D03*
X91700000Y-128790000D03*
X89160000Y-131330000D03*
X91700000Y-131330000D03*
X89160000Y-133870000D03*
X91700000Y-133870000D03*
X89160000Y-136410000D03*
X91700000Y-136410000D03*
X89160000Y-138950000D03*
X86620000Y-136410000D03*
X86620000Y-138950000D03*
X84080000Y-136410000D03*
X84080000Y-138950000D03*
X81540000Y-136410000D03*
X81540000Y-138950000D03*
X79000000Y-136410000D03*
X79000000Y-138950000D03*
X76460000Y-136410000D03*
X76460000Y-138950000D03*
X73920000Y-136410000D03*
X73920000Y-138950000D03*
X71380000Y-136410000D03*
X71380000Y-138950000D03*
X68840000Y-136410000D03*
X68840000Y-138950000D03*
X66300000Y-136410000D03*
X68840000Y-133870000D03*
X66300000Y-133870000D03*
X68840000Y-131330000D03*
X66300000Y-131330000D03*
X68840000Y-128790000D03*
X66300000Y-128790000D03*
X68840000Y-126250000D03*
X66300000Y-126250000D03*
X68840000Y-123710000D03*
X66300000Y-123710000D03*
X68840000Y-121170000D03*
X66300000Y-121170000D03*
X68840000Y-118630000D03*
X66300000Y-118630000D03*
X68840000Y-116090000D03*
X66300000Y-116090000D03*
X68840000Y-113550000D03*
X71380000Y-116090000D03*
X71380000Y-113550000D03*
X73920000Y-116090000D03*
X73920000Y-113550000D03*
X76460000Y-116090000D03*
X76460000Y-113550000D03*
X79000000Y-116090000D03*
X79000000Y-113550000D03*
X81540000Y-116090000D03*
X81540000Y-113550000D03*
X84080000Y-116090000D03*
X84080000Y-113550000D03*
X86620000Y-116090000D03*
X86620000Y-113550000D03*
X89160000Y-116090000D03*
X89160000Y-113550000D03*
X91700000Y-116090000D03*
X89160000Y-118630000D03*
X91700000Y-118630000D03*
X89160000Y-121170000D03*
X91700000Y-121170000D03*
X89160000Y-123710000D03*
X91700000Y-123710000D03*
X89160000Y-126250000D03*
D19*
X91700000Y-126250000D03*
%TD*%
%TO.C,C13*%
G36*
G01*
X58330000Y-132174999D02*
X58330000Y-133025001D01*
G75*
G02*
X58080001Y-133275000I-249999J0D01*
G01*
X57179999Y-133275000D01*
G75*
G02*
X56930000Y-133025001I0J249999D01*
G01*
X56930000Y-132174999D01*
G75*
G02*
X57179999Y-131925000I249999J0D01*
G01*
X58080001Y-131925000D01*
G75*
G02*
X58330000Y-132174999I0J-249999D01*
G01*
G37*
G36*
G01*
X61030000Y-132174999D02*
X61030000Y-133025001D01*
G75*
G02*
X60780001Y-133275000I-249999J0D01*
G01*
X59879999Y-133275000D01*
G75*
G02*
X59630000Y-133025001I0J249999D01*
G01*
X59630000Y-132174999D01*
G75*
G02*
X59879999Y-131925000I249999J0D01*
G01*
X60780001Y-131925000D01*
G75*
G02*
X61030000Y-132174999I0J-249999D01*
G01*
G37*
%TD*%
%TO.C,C12*%
G36*
G01*
X87045001Y-106440000D02*
X86194999Y-106440000D01*
G75*
G02*
X85945000Y-106190001I0J249999D01*
G01*
X85945000Y-105289999D01*
G75*
G02*
X86194999Y-105040000I249999J0D01*
G01*
X87045001Y-105040000D01*
G75*
G02*
X87295000Y-105289999I0J-249999D01*
G01*
X87295000Y-106190001D01*
G75*
G02*
X87045001Y-106440000I-249999J0D01*
G01*
G37*
G36*
G01*
X87045001Y-109140000D02*
X86194999Y-109140000D01*
G75*
G02*
X85945000Y-108890001I0J249999D01*
G01*
X85945000Y-107989999D01*
G75*
G02*
X86194999Y-107740000I249999J0D01*
G01*
X87045001Y-107740000D01*
G75*
G02*
X87295000Y-107989999I0J-249999D01*
G01*
X87295000Y-108890001D01*
G75*
G02*
X87045001Y-109140000I-249999J0D01*
G01*
G37*
%TD*%
%TO.C,C11*%
G36*
G01*
X83654999Y-146027000D02*
X84505001Y-146027000D01*
G75*
G02*
X84755000Y-146276999I0J-249999D01*
G01*
X84755000Y-147177001D01*
G75*
G02*
X84505001Y-147427000I-249999J0D01*
G01*
X83654999Y-147427000D01*
G75*
G02*
X83405000Y-147177001I0J249999D01*
G01*
X83405000Y-146276999D01*
G75*
G02*
X83654999Y-146027000I249999J0D01*
G01*
G37*
G36*
G01*
X83654999Y-143327000D02*
X84505001Y-143327000D01*
G75*
G02*
X84755000Y-143576999I0J-249999D01*
G01*
X84755000Y-144477001D01*
G75*
G02*
X84505001Y-144727000I-249999J0D01*
G01*
X83654999Y-144727000D01*
G75*
G02*
X83405000Y-144477001I0J249999D01*
G01*
X83405000Y-143576999D01*
G75*
G02*
X83654999Y-143327000I249999J0D01*
G01*
G37*
%TD*%
%TO.C,C10*%
G36*
G01*
X209630000Y-136100000D02*
X210130000Y-136100000D01*
G75*
G02*
X210355000Y-136325000I0J-225000D01*
G01*
X210355000Y-136775000D01*
G75*
G02*
X210130000Y-137000000I-225000J0D01*
G01*
X209630000Y-137000000D01*
G75*
G02*
X209405000Y-136775000I0J225000D01*
G01*
X209405000Y-136325000D01*
G75*
G02*
X209630000Y-136100000I225000J0D01*
G01*
G37*
G36*
G01*
X209630000Y-134550000D02*
X210130000Y-134550000D01*
G75*
G02*
X210355000Y-134775000I0J-225000D01*
G01*
X210355000Y-135225000D01*
G75*
G02*
X210130000Y-135450000I-225000J0D01*
G01*
X209630000Y-135450000D01*
G75*
G02*
X209405000Y-135225000I0J225000D01*
G01*
X209405000Y-134775000D01*
G75*
G02*
X209630000Y-134550000I225000J0D01*
G01*
G37*
%TD*%
%TO.C,C9*%
G36*
G01*
X207630000Y-136100000D02*
X208130000Y-136100000D01*
G75*
G02*
X208355000Y-136325000I0J-225000D01*
G01*
X208355000Y-136775000D01*
G75*
G02*
X208130000Y-137000000I-225000J0D01*
G01*
X207630000Y-137000000D01*
G75*
G02*
X207405000Y-136775000I0J225000D01*
G01*
X207405000Y-136325000D01*
G75*
G02*
X207630000Y-136100000I225000J0D01*
G01*
G37*
G36*
G01*
X207630000Y-134550000D02*
X208130000Y-134550000D01*
G75*
G02*
X208355000Y-134775000I0J-225000D01*
G01*
X208355000Y-135225000D01*
G75*
G02*
X208130000Y-135450000I-225000J0D01*
G01*
X207630000Y-135450000D01*
G75*
G02*
X207405000Y-135225000I0J225000D01*
G01*
X207405000Y-134775000D01*
G75*
G02*
X207630000Y-134550000I225000J0D01*
G01*
G37*
%TD*%
%TO.C,R2*%
G36*
G01*
X69115000Y-107220000D02*
X68565000Y-107220000D01*
G75*
G02*
X68365000Y-107020000I0J200000D01*
G01*
X68365000Y-106620000D01*
G75*
G02*
X68565000Y-106420000I200000J0D01*
G01*
X69115000Y-106420000D01*
G75*
G02*
X69315000Y-106620000I0J-200000D01*
G01*
X69315000Y-107020000D01*
G75*
G02*
X69115000Y-107220000I-200000J0D01*
G01*
G37*
G36*
G01*
X69115000Y-108870000D02*
X68565000Y-108870000D01*
G75*
G02*
X68365000Y-108670000I0J200000D01*
G01*
X68365000Y-108270000D01*
G75*
G02*
X68565000Y-108070000I200000J0D01*
G01*
X69115000Y-108070000D01*
G75*
G02*
X69315000Y-108270000I0J-200000D01*
G01*
X69315000Y-108670000D01*
G75*
G02*
X69115000Y-108870000I-200000J0D01*
G01*
G37*
%TD*%
%TO.C,R1*%
G36*
G01*
X79275000Y-107220000D02*
X78725000Y-107220000D01*
G75*
G02*
X78525000Y-107020000I0J200000D01*
G01*
X78525000Y-106620000D01*
G75*
G02*
X78725000Y-106420000I200000J0D01*
G01*
X79275000Y-106420000D01*
G75*
G02*
X79475000Y-106620000I0J-200000D01*
G01*
X79475000Y-107020000D01*
G75*
G02*
X79275000Y-107220000I-200000J0D01*
G01*
G37*
G36*
G01*
X79275000Y-108870000D02*
X78725000Y-108870000D01*
G75*
G02*
X78525000Y-108670000I0J200000D01*
G01*
X78525000Y-108270000D01*
G75*
G02*
X78725000Y-108070000I200000J0D01*
G01*
X79275000Y-108070000D01*
G75*
G02*
X79475000Y-108270000I0J-200000D01*
G01*
X79475000Y-108670000D01*
G75*
G02*
X79275000Y-108870000I-200000J0D01*
G01*
G37*
%TD*%
D20*
%TO.C,J1*%
X95860000Y-152540000D03*
X205080000Y-152540000D03*
D21*
X100940000Y-144920000D03*
X103480000Y-144920000D03*
X106020000Y-144920000D03*
X108560000Y-144920000D03*
X111100000Y-144920000D03*
X113640000Y-144920000D03*
X116180000Y-144920000D03*
X118720000Y-144920000D03*
X121260000Y-144920000D03*
X123800000Y-144920000D03*
X126340000Y-144920000D03*
X128880000Y-144920000D03*
X131420000Y-144920000D03*
X133960000Y-144920000D03*
X136500000Y-144920000D03*
X139040000Y-144920000D03*
X141580000Y-144920000D03*
X144120000Y-144920000D03*
X146660000Y-144920000D03*
X149200000Y-144920000D03*
X151740000Y-144920000D03*
X154280000Y-144920000D03*
X156820000Y-144920000D03*
X159360000Y-144920000D03*
X161900000Y-144920000D03*
X164440000Y-144920000D03*
X166980000Y-144920000D03*
X169520000Y-144920000D03*
X172060000Y-144920000D03*
X174600000Y-144920000D03*
X177140000Y-144920000D03*
X179680000Y-144920000D03*
X182220000Y-144920000D03*
X184760000Y-144920000D03*
X187300000Y-144920000D03*
X189840000Y-144920000D03*
X192380000Y-144920000D03*
X194920000Y-144920000D03*
X197460000Y-144920000D03*
X200000000Y-144920000D03*
X100940000Y-147460000D03*
X103480000Y-147460000D03*
X106020000Y-147460000D03*
X108560000Y-147460000D03*
X111100000Y-147460000D03*
X113640000Y-147460000D03*
X116180000Y-147460000D03*
X118720000Y-147460000D03*
X121260000Y-147460000D03*
X123800000Y-147460000D03*
X126340000Y-147460000D03*
X128880000Y-147460000D03*
X131420000Y-147460000D03*
X133960000Y-147460000D03*
X136500000Y-147460000D03*
X139040000Y-147460000D03*
X141580000Y-147460000D03*
X144120000Y-147460000D03*
X146660000Y-147460000D03*
X149200000Y-147460000D03*
X151740000Y-147460000D03*
X154280000Y-147460000D03*
X156820000Y-147460000D03*
X159360000Y-147460000D03*
X161900000Y-147460000D03*
X164440000Y-147460000D03*
X166980000Y-147460000D03*
X169520000Y-147460000D03*
X172060000Y-147460000D03*
X174600000Y-147460000D03*
X177140000Y-147460000D03*
X179680000Y-147460000D03*
X182220000Y-147460000D03*
X184760000Y-147460000D03*
X187300000Y-147460000D03*
X189840000Y-147460000D03*
X192380000Y-147460000D03*
X194920000Y-147460000D03*
X197460000Y-147460000D03*
X200000000Y-147460000D03*
X100940000Y-150000000D03*
X103480000Y-150000000D03*
X106020000Y-150000000D03*
X108560000Y-150000000D03*
X111100000Y-150000000D03*
X113640000Y-150000000D03*
X116180000Y-150000000D03*
X118720000Y-150000000D03*
X121260000Y-150000000D03*
X123800000Y-150000000D03*
X126340000Y-150000000D03*
X128880000Y-150000000D03*
X131420000Y-150000000D03*
X133960000Y-150000000D03*
X136500000Y-150000000D03*
X139040000Y-150000000D03*
X141580000Y-150000000D03*
X144120000Y-150000000D03*
X146660000Y-150000000D03*
X149200000Y-150000000D03*
X151740000Y-150000000D03*
X154280000Y-150000000D03*
X156820000Y-150000000D03*
X159360000Y-150000000D03*
X161900000Y-150000000D03*
X164440000Y-150000000D03*
X166980000Y-150000000D03*
X169520000Y-150000000D03*
X172060000Y-150000000D03*
X174600000Y-150000000D03*
X177140000Y-150000000D03*
X179680000Y-150000000D03*
X182220000Y-150000000D03*
X184760000Y-150000000D03*
X187300000Y-150000000D03*
X189840000Y-150000000D03*
X192380000Y-150000000D03*
X194920000Y-150000000D03*
X197460000Y-150000000D03*
D22*
X200000000Y-150000000D03*
%TD*%
%TO.C,C7*%
G36*
G01*
X59230000Y-115840000D02*
X59230000Y-116340000D01*
G75*
G02*
X59005000Y-116565000I-225000J0D01*
G01*
X58555000Y-116565000D01*
G75*
G02*
X58330000Y-116340000I0J225000D01*
G01*
X58330000Y-115840000D01*
G75*
G02*
X58555000Y-115615000I225000J0D01*
G01*
X59005000Y-115615000D01*
G75*
G02*
X59230000Y-115840000I0J-225000D01*
G01*
G37*
G36*
G01*
X60780000Y-115840000D02*
X60780000Y-116340000D01*
G75*
G02*
X60555000Y-116565000I-225000J0D01*
G01*
X60105000Y-116565000D01*
G75*
G02*
X59880000Y-116340000I0J225000D01*
G01*
X59880000Y-115840000D01*
G75*
G02*
X60105000Y-115615000I225000J0D01*
G01*
X60555000Y-115615000D01*
G75*
G02*
X60780000Y-115840000I0J-225000D01*
G01*
G37*
%TD*%
%TO.C,C8*%
G36*
G01*
X59230000Y-136160000D02*
X59230000Y-136660000D01*
G75*
G02*
X59005000Y-136885000I-225000J0D01*
G01*
X58555000Y-136885000D01*
G75*
G02*
X58330000Y-136660000I0J225000D01*
G01*
X58330000Y-136160000D01*
G75*
G02*
X58555000Y-135935000I225000J0D01*
G01*
X59005000Y-135935000D01*
G75*
G02*
X59230000Y-136160000I0J-225000D01*
G01*
G37*
G36*
G01*
X60780000Y-136160000D02*
X60780000Y-136660000D01*
G75*
G02*
X60555000Y-136885000I-225000J0D01*
G01*
X60105000Y-136885000D01*
G75*
G02*
X59880000Y-136660000I0J225000D01*
G01*
X59880000Y-136160000D01*
G75*
G02*
X60105000Y-135935000I225000J0D01*
G01*
X60555000Y-135935000D01*
G75*
G02*
X60780000Y-136160000I0J-225000D01*
G01*
G37*
%TD*%
%TO.C,C3*%
G36*
G01*
X97880000Y-136660000D02*
X97880000Y-136160000D01*
G75*
G02*
X98105000Y-135935000I225000J0D01*
G01*
X98555000Y-135935000D01*
G75*
G02*
X98780000Y-136160000I0J-225000D01*
G01*
X98780000Y-136660000D01*
G75*
G02*
X98555000Y-136885000I-225000J0D01*
G01*
X98105000Y-136885000D01*
G75*
G02*
X97880000Y-136660000I0J225000D01*
G01*
G37*
G36*
G01*
X96330000Y-136660000D02*
X96330000Y-136160000D01*
G75*
G02*
X96555000Y-135935000I225000J0D01*
G01*
X97005000Y-135935000D01*
G75*
G02*
X97230000Y-136160000I0J-225000D01*
G01*
X97230000Y-136660000D01*
G75*
G02*
X97005000Y-136885000I-225000J0D01*
G01*
X96555000Y-136885000D01*
G75*
G02*
X96330000Y-136660000I0J225000D01*
G01*
G37*
%TD*%
%TO.C,C1*%
G36*
G01*
X78750000Y-145127000D02*
X79250000Y-145127000D01*
G75*
G02*
X79475000Y-145352000I0J-225000D01*
G01*
X79475000Y-145802000D01*
G75*
G02*
X79250000Y-146027000I-225000J0D01*
G01*
X78750000Y-146027000D01*
G75*
G02*
X78525000Y-145802000I0J225000D01*
G01*
X78525000Y-145352000D01*
G75*
G02*
X78750000Y-145127000I225000J0D01*
G01*
G37*
G36*
G01*
X78750000Y-143577000D02*
X79250000Y-143577000D01*
G75*
G02*
X79475000Y-143802000I0J-225000D01*
G01*
X79475000Y-144252000D01*
G75*
G02*
X79250000Y-144477000I-225000J0D01*
G01*
X78750000Y-144477000D01*
G75*
G02*
X78525000Y-144252000I0J225000D01*
G01*
X78525000Y-143802000D01*
G75*
G02*
X78750000Y-143577000I225000J0D01*
G01*
G37*
%TD*%
%TO.C,C2*%
G36*
G01*
X81290000Y-145127000D02*
X81790000Y-145127000D01*
G75*
G02*
X82015000Y-145352000I0J-225000D01*
G01*
X82015000Y-145802000D01*
G75*
G02*
X81790000Y-146027000I-225000J0D01*
G01*
X81290000Y-146027000D01*
G75*
G02*
X81065000Y-145802000I0J225000D01*
G01*
X81065000Y-145352000D01*
G75*
G02*
X81290000Y-145127000I225000J0D01*
G01*
G37*
G36*
G01*
X81290000Y-143577000D02*
X81790000Y-143577000D01*
G75*
G02*
X82015000Y-143802000I0J-225000D01*
G01*
X82015000Y-144252000D01*
G75*
G02*
X81790000Y-144477000I-225000J0D01*
G01*
X81290000Y-144477000D01*
G75*
G02*
X81065000Y-144252000I0J225000D01*
G01*
X81065000Y-143802000D01*
G75*
G02*
X81290000Y-143577000I225000J0D01*
G01*
G37*
%TD*%
%TO.C,C5*%
G36*
G01*
X84330000Y-107320000D02*
X83830000Y-107320000D01*
G75*
G02*
X83605000Y-107095000I0J225000D01*
G01*
X83605000Y-106645000D01*
G75*
G02*
X83830000Y-106420000I225000J0D01*
G01*
X84330000Y-106420000D01*
G75*
G02*
X84555000Y-106645000I0J-225000D01*
G01*
X84555000Y-107095000D01*
G75*
G02*
X84330000Y-107320000I-225000J0D01*
G01*
G37*
G36*
G01*
X84330000Y-108870000D02*
X83830000Y-108870000D01*
G75*
G02*
X83605000Y-108645000I0J225000D01*
G01*
X83605000Y-108195000D01*
G75*
G02*
X83830000Y-107970000I225000J0D01*
G01*
X84330000Y-107970000D01*
G75*
G02*
X84555000Y-108195000I0J-225000D01*
G01*
X84555000Y-108645000D01*
G75*
G02*
X84330000Y-108870000I-225000J0D01*
G01*
G37*
%TD*%
%TO.C,C6*%
G36*
G01*
X81790000Y-107320000D02*
X81290000Y-107320000D01*
G75*
G02*
X81065000Y-107095000I0J225000D01*
G01*
X81065000Y-106645000D01*
G75*
G02*
X81290000Y-106420000I225000J0D01*
G01*
X81790000Y-106420000D01*
G75*
G02*
X82015000Y-106645000I0J-225000D01*
G01*
X82015000Y-107095000D01*
G75*
G02*
X81790000Y-107320000I-225000J0D01*
G01*
G37*
G36*
G01*
X81790000Y-108870000D02*
X81290000Y-108870000D01*
G75*
G02*
X81065000Y-108645000I0J225000D01*
G01*
X81065000Y-108195000D01*
G75*
G02*
X81290000Y-107970000I225000J0D01*
G01*
X81790000Y-107970000D01*
G75*
G02*
X82015000Y-108195000I0J-225000D01*
G01*
X82015000Y-108645000D01*
G75*
G02*
X81790000Y-108870000I-225000J0D01*
G01*
G37*
%TD*%
%TO.C,C4*%
G36*
G01*
X89410000Y-107320000D02*
X88910000Y-107320000D01*
G75*
G02*
X88685000Y-107095000I0J225000D01*
G01*
X88685000Y-106645000D01*
G75*
G02*
X88910000Y-106420000I225000J0D01*
G01*
X89410000Y-106420000D01*
G75*
G02*
X89635000Y-106645000I0J-225000D01*
G01*
X89635000Y-107095000D01*
G75*
G02*
X89410000Y-107320000I-225000J0D01*
G01*
G37*
G36*
G01*
X89410000Y-108870000D02*
X88910000Y-108870000D01*
G75*
G02*
X88685000Y-108645000I0J225000D01*
G01*
X88685000Y-108195000D01*
G75*
G02*
X88910000Y-107970000I225000J0D01*
G01*
X89410000Y-107970000D01*
G75*
G02*
X89635000Y-108195000I0J-225000D01*
G01*
X89635000Y-108645000D01*
G75*
G02*
X89410000Y-108870000I-225000J0D01*
G01*
G37*
%TD*%
M02*
