%TF.GenerationSoftware,KiCad,Pcbnew,5.1.9+dfsg1-1~bpo10+1*%
%TF.CreationDate,2023-04-14T13:40:22+02:00*%
%TF.ProjectId,IIsiPDSAdapter,49497369-5044-4534-9164-61707465722e,rev?*%
%TF.SameCoordinates,Original*%
%TF.FileFunction,Legend,Top*%
%TF.FilePolarity,Positive*%
%FSLAX46Y46*%
G04 Gerber Fmt 4.6, Leading zero omitted, Abs format (unit mm)*
G04 Created by KiCad (PCBNEW 5.1.9+dfsg1-1~bpo10+1) date 2023-04-14 13:40:22*
%MOMM*%
%LPD*%
G01*
G04 APERTURE LIST*
%ADD10C,0.150000*%
%ADD11C,0.200000*%
%ADD12C,0.120000*%
%ADD13C,0.127000*%
%ADD14C,0.050000*%
%ADD15C,0.100000*%
%ADD16C,0.254000*%
G04 APERTURE END LIST*
D10*
X64566071Y-146393928D02*
X64673214Y-146429642D01*
X64708928Y-146465357D01*
X64744642Y-146536785D01*
X64744642Y-146643928D01*
X64708928Y-146715357D01*
X64673214Y-146751071D01*
X64601785Y-146786785D01*
X64316071Y-146786785D01*
X64316071Y-146036785D01*
X64566071Y-146036785D01*
X64637500Y-146072500D01*
X64673214Y-146108214D01*
X64708928Y-146179642D01*
X64708928Y-146251071D01*
X64673214Y-146322500D01*
X64637500Y-146358214D01*
X64566071Y-146393928D01*
X64316071Y-146393928D01*
X65351785Y-146751071D02*
X65280357Y-146786785D01*
X65137500Y-146786785D01*
X65066071Y-146751071D01*
X65030357Y-146679642D01*
X65030357Y-146393928D01*
X65066071Y-146322500D01*
X65137500Y-146286785D01*
X65280357Y-146286785D01*
X65351785Y-146322500D01*
X65387500Y-146393928D01*
X65387500Y-146465357D01*
X65030357Y-146536785D01*
X65637500Y-146286785D02*
X65780357Y-146786785D01*
X65923214Y-146429642D01*
X66066071Y-146786785D01*
X66208928Y-146286785D01*
X66816071Y-146786785D02*
X66816071Y-146393928D01*
X66780357Y-146322500D01*
X66708928Y-146286785D01*
X66566071Y-146286785D01*
X66494642Y-146322500D01*
X66816071Y-146751071D02*
X66744642Y-146786785D01*
X66566071Y-146786785D01*
X66494642Y-146751071D01*
X66458928Y-146679642D01*
X66458928Y-146608214D01*
X66494642Y-146536785D01*
X66566071Y-146501071D01*
X66744642Y-146501071D01*
X66816071Y-146465357D01*
X67173214Y-146786785D02*
X67173214Y-146286785D01*
X67173214Y-146429642D02*
X67208928Y-146358214D01*
X67244642Y-146322500D01*
X67316071Y-146286785D01*
X67387500Y-146286785D01*
X67923214Y-146751071D02*
X67851785Y-146786785D01*
X67708928Y-146786785D01*
X67637500Y-146751071D01*
X67601785Y-146679642D01*
X67601785Y-146393928D01*
X67637500Y-146322500D01*
X67708928Y-146286785D01*
X67851785Y-146286785D01*
X67923214Y-146322500D01*
X67958928Y-146393928D01*
X67958928Y-146465357D01*
X67601785Y-146536785D01*
X68280357Y-146715357D02*
X68316071Y-146751071D01*
X68280357Y-146786785D01*
X68244642Y-146751071D01*
X68280357Y-146715357D01*
X68280357Y-146786785D01*
X68280357Y-146501071D02*
X68244642Y-146072500D01*
X68280357Y-146036785D01*
X68316071Y-146072500D01*
X68280357Y-146501071D01*
X68280357Y-146036785D01*
X64316071Y-148061785D02*
X64316071Y-147311785D01*
X64494642Y-147311785D01*
X64601785Y-147347500D01*
X64673214Y-147418928D01*
X64708928Y-147490357D01*
X64744642Y-147633214D01*
X64744642Y-147740357D01*
X64708928Y-147883214D01*
X64673214Y-147954642D01*
X64601785Y-148026071D01*
X64494642Y-148061785D01*
X64316071Y-148061785D01*
X65173214Y-148061785D02*
X65101785Y-148026071D01*
X65066071Y-147990357D01*
X65030357Y-147918928D01*
X65030357Y-147704642D01*
X65066071Y-147633214D01*
X65101785Y-147597500D01*
X65173214Y-147561785D01*
X65280357Y-147561785D01*
X65351785Y-147597500D01*
X65387500Y-147633214D01*
X65423214Y-147704642D01*
X65423214Y-147918928D01*
X65387500Y-147990357D01*
X65351785Y-148026071D01*
X65280357Y-148061785D01*
X65173214Y-148061785D01*
X66066071Y-147561785D02*
X66066071Y-148061785D01*
X65744642Y-147561785D02*
X65744642Y-147954642D01*
X65780357Y-148026071D01*
X65851785Y-148061785D01*
X65958928Y-148061785D01*
X66030357Y-148026071D01*
X66066071Y-147990357D01*
X66423214Y-148061785D02*
X66423214Y-147311785D01*
X66423214Y-147597500D02*
X66494642Y-147561785D01*
X66637500Y-147561785D01*
X66708928Y-147597500D01*
X66744642Y-147633214D01*
X66780357Y-147704642D01*
X66780357Y-147918928D01*
X66744642Y-147990357D01*
X66708928Y-148026071D01*
X66637500Y-148061785D01*
X66494642Y-148061785D01*
X66423214Y-148026071D01*
X67208928Y-148061785D02*
X67137500Y-148026071D01*
X67101785Y-147954642D01*
X67101785Y-147311785D01*
X67780357Y-148026071D02*
X67708928Y-148061785D01*
X67566071Y-148061785D01*
X67494642Y-148026071D01*
X67458928Y-147954642D01*
X67458928Y-147668928D01*
X67494642Y-147597500D01*
X67566071Y-147561785D01*
X67708928Y-147561785D01*
X67780357Y-147597500D01*
X67816071Y-147668928D01*
X67816071Y-147740357D01*
X67458928Y-147811785D01*
X68137500Y-147776071D02*
X68708928Y-147776071D01*
X69387500Y-148026071D02*
X69316071Y-148061785D01*
X69173214Y-148061785D01*
X69101785Y-148026071D01*
X69066071Y-147990357D01*
X69030357Y-147918928D01*
X69030357Y-147704642D01*
X69066071Y-147633214D01*
X69101785Y-147597500D01*
X69173214Y-147561785D01*
X69316071Y-147561785D01*
X69387500Y-147597500D01*
X69708928Y-148061785D02*
X69708928Y-147311785D01*
X70030357Y-148061785D02*
X70030357Y-147668928D01*
X69994642Y-147597500D01*
X69923214Y-147561785D01*
X69816071Y-147561785D01*
X69744642Y-147597500D01*
X69708928Y-147633214D01*
X70673214Y-148026071D02*
X70601785Y-148061785D01*
X70458928Y-148061785D01*
X70387500Y-148026071D01*
X70351785Y-147954642D01*
X70351785Y-147668928D01*
X70387500Y-147597500D01*
X70458928Y-147561785D01*
X70601785Y-147561785D01*
X70673214Y-147597500D01*
X70708928Y-147668928D01*
X70708928Y-147740357D01*
X70351785Y-147811785D01*
X71351785Y-148026071D02*
X71280357Y-148061785D01*
X71137500Y-148061785D01*
X71066071Y-148026071D01*
X71030357Y-147990357D01*
X70994642Y-147918928D01*
X70994642Y-147704642D01*
X71030357Y-147633214D01*
X71066071Y-147597500D01*
X71137500Y-147561785D01*
X71280357Y-147561785D01*
X71351785Y-147597500D01*
X71673214Y-148061785D02*
X71673214Y-147311785D01*
X71744642Y-147776071D02*
X71958928Y-148061785D01*
X71958928Y-147561785D02*
X71673214Y-147847500D01*
X72851785Y-148061785D02*
X72851785Y-147311785D01*
X73101785Y-147847500D01*
X73351785Y-147311785D01*
X73351785Y-148061785D01*
X74137500Y-147990357D02*
X74101785Y-148026071D01*
X73994642Y-148061785D01*
X73923214Y-148061785D01*
X73816071Y-148026071D01*
X73744642Y-147954642D01*
X73708928Y-147883214D01*
X73673214Y-147740357D01*
X73673214Y-147633214D01*
X73708928Y-147490357D01*
X73744642Y-147418928D01*
X73816071Y-147347500D01*
X73923214Y-147311785D01*
X73994642Y-147311785D01*
X74101785Y-147347500D01*
X74137500Y-147383214D01*
X74780357Y-147311785D02*
X74637500Y-147311785D01*
X74566071Y-147347500D01*
X74530357Y-147383214D01*
X74458928Y-147490357D01*
X74423214Y-147633214D01*
X74423214Y-147918928D01*
X74458928Y-147990357D01*
X74494642Y-148026071D01*
X74566071Y-148061785D01*
X74708928Y-148061785D01*
X74780357Y-148026071D01*
X74816071Y-147990357D01*
X74851785Y-147918928D01*
X74851785Y-147740357D01*
X74816071Y-147668928D01*
X74780357Y-147633214D01*
X74708928Y-147597500D01*
X74566071Y-147597500D01*
X74494642Y-147633214D01*
X74458928Y-147668928D01*
X74423214Y-147740357D01*
X75280357Y-147633214D02*
X75208928Y-147597500D01*
X75173214Y-147561785D01*
X75137500Y-147490357D01*
X75137500Y-147454642D01*
X75173214Y-147383214D01*
X75208928Y-147347500D01*
X75280357Y-147311785D01*
X75423214Y-147311785D01*
X75494642Y-147347500D01*
X75530357Y-147383214D01*
X75566071Y-147454642D01*
X75566071Y-147490357D01*
X75530357Y-147561785D01*
X75494642Y-147597500D01*
X75423214Y-147633214D01*
X75280357Y-147633214D01*
X75208928Y-147668928D01*
X75173214Y-147704642D01*
X75137500Y-147776071D01*
X75137500Y-147918928D01*
X75173214Y-147990357D01*
X75208928Y-148026071D01*
X75280357Y-148061785D01*
X75423214Y-148061785D01*
X75494642Y-148026071D01*
X75530357Y-147990357D01*
X75566071Y-147918928D01*
X75566071Y-147776071D01*
X75530357Y-147704642D01*
X75494642Y-147668928D01*
X75423214Y-147633214D01*
X75994642Y-147633214D02*
X75923214Y-147597500D01*
X75887500Y-147561785D01*
X75851785Y-147490357D01*
X75851785Y-147454642D01*
X75887500Y-147383214D01*
X75923214Y-147347500D01*
X75994642Y-147311785D01*
X76137500Y-147311785D01*
X76208928Y-147347500D01*
X76244642Y-147383214D01*
X76280357Y-147454642D01*
X76280357Y-147490357D01*
X76244642Y-147561785D01*
X76208928Y-147597500D01*
X76137500Y-147633214D01*
X75994642Y-147633214D01*
X75923214Y-147668928D01*
X75887500Y-147704642D01*
X75851785Y-147776071D01*
X75851785Y-147918928D01*
X75887500Y-147990357D01*
X75923214Y-148026071D01*
X75994642Y-148061785D01*
X76137500Y-148061785D01*
X76208928Y-148026071D01*
X76244642Y-147990357D01*
X76280357Y-147918928D01*
X76280357Y-147776071D01*
X76244642Y-147704642D01*
X76208928Y-147668928D01*
X76137500Y-147633214D01*
X76708928Y-147633214D02*
X76637500Y-147597500D01*
X76601785Y-147561785D01*
X76566071Y-147490357D01*
X76566071Y-147454642D01*
X76601785Y-147383214D01*
X76637500Y-147347500D01*
X76708928Y-147311785D01*
X76851785Y-147311785D01*
X76923214Y-147347500D01*
X76958928Y-147383214D01*
X76994642Y-147454642D01*
X76994642Y-147490357D01*
X76958928Y-147561785D01*
X76923214Y-147597500D01*
X76851785Y-147633214D01*
X76708928Y-147633214D01*
X76637500Y-147668928D01*
X76601785Y-147704642D01*
X76566071Y-147776071D01*
X76566071Y-147918928D01*
X76601785Y-147990357D01*
X76637500Y-148026071D01*
X76708928Y-148061785D01*
X76851785Y-148061785D01*
X76923214Y-148026071D01*
X76958928Y-147990357D01*
X76994642Y-147918928D01*
X76994642Y-147776071D01*
X76958928Y-147704642D01*
X76923214Y-147668928D01*
X76851785Y-147633214D01*
X77280357Y-147383214D02*
X77316071Y-147347500D01*
X77387500Y-147311785D01*
X77566071Y-147311785D01*
X77637500Y-147347500D01*
X77673214Y-147383214D01*
X77708928Y-147454642D01*
X77708928Y-147526071D01*
X77673214Y-147633214D01*
X77244642Y-148061785D01*
X77708928Y-148061785D01*
X64423214Y-149336785D02*
X64351785Y-149301071D01*
X64316071Y-149265357D01*
X64280357Y-149193928D01*
X64280357Y-148979642D01*
X64316071Y-148908214D01*
X64351785Y-148872500D01*
X64423214Y-148836785D01*
X64530357Y-148836785D01*
X64601785Y-148872500D01*
X64637500Y-148908214D01*
X64673214Y-148979642D01*
X64673214Y-149193928D01*
X64637500Y-149265357D01*
X64601785Y-149301071D01*
X64530357Y-149336785D01*
X64423214Y-149336785D01*
X64994642Y-149336785D02*
X64994642Y-148836785D01*
X64994642Y-148979642D02*
X65030357Y-148908214D01*
X65066071Y-148872500D01*
X65137500Y-148836785D01*
X65208928Y-148836785D01*
X65458928Y-149336785D02*
X65458928Y-148836785D01*
X65458928Y-148586785D02*
X65423214Y-148622500D01*
X65458928Y-148658214D01*
X65494642Y-148622500D01*
X65458928Y-148586785D01*
X65458928Y-148658214D01*
X66101785Y-149301071D02*
X66030357Y-149336785D01*
X65887500Y-149336785D01*
X65816071Y-149301071D01*
X65780357Y-149229642D01*
X65780357Y-148943928D01*
X65816071Y-148872500D01*
X65887500Y-148836785D01*
X66030357Y-148836785D01*
X66101785Y-148872500D01*
X66137500Y-148943928D01*
X66137500Y-149015357D01*
X65780357Y-149086785D01*
X66458928Y-148836785D02*
X66458928Y-149336785D01*
X66458928Y-148908214D02*
X66494642Y-148872500D01*
X66566071Y-148836785D01*
X66673214Y-148836785D01*
X66744642Y-148872500D01*
X66780357Y-148943928D01*
X66780357Y-149336785D01*
X67030357Y-148836785D02*
X67316071Y-148836785D01*
X67137500Y-148586785D02*
X67137500Y-149229642D01*
X67173214Y-149301071D01*
X67244642Y-149336785D01*
X67316071Y-149336785D01*
X67887500Y-149336785D02*
X67887500Y-148943928D01*
X67851785Y-148872500D01*
X67780357Y-148836785D01*
X67637500Y-148836785D01*
X67566071Y-148872500D01*
X67887500Y-149301071D02*
X67816071Y-149336785D01*
X67637500Y-149336785D01*
X67566071Y-149301071D01*
X67530357Y-149229642D01*
X67530357Y-149158214D01*
X67566071Y-149086785D01*
X67637500Y-149051071D01*
X67816071Y-149051071D01*
X67887500Y-149015357D01*
X68137500Y-148836785D02*
X68423214Y-148836785D01*
X68244642Y-148586785D02*
X68244642Y-149229642D01*
X68280357Y-149301071D01*
X68351785Y-149336785D01*
X68423214Y-149336785D01*
X68673214Y-149336785D02*
X68673214Y-148836785D01*
X68673214Y-148586785D02*
X68637500Y-148622500D01*
X68673214Y-148658214D01*
X68708928Y-148622500D01*
X68673214Y-148586785D01*
X68673214Y-148658214D01*
X69137500Y-149336785D02*
X69066071Y-149301071D01*
X69030357Y-149265357D01*
X68994642Y-149193928D01*
X68994642Y-148979642D01*
X69030357Y-148908214D01*
X69066071Y-148872500D01*
X69137500Y-148836785D01*
X69244642Y-148836785D01*
X69316071Y-148872500D01*
X69351785Y-148908214D01*
X69387500Y-148979642D01*
X69387500Y-149193928D01*
X69351785Y-149265357D01*
X69316071Y-149301071D01*
X69244642Y-149336785D01*
X69137500Y-149336785D01*
X69708928Y-148836785D02*
X69708928Y-149336785D01*
X69708928Y-148908214D02*
X69744642Y-148872500D01*
X69816071Y-148836785D01*
X69923214Y-148836785D01*
X69994642Y-148872500D01*
X70030357Y-148943928D01*
X70030357Y-149336785D01*
X70958928Y-149336785D02*
X70958928Y-148586785D01*
X70958928Y-148872500D02*
X71030357Y-148836785D01*
X71173214Y-148836785D01*
X71244642Y-148872500D01*
X71280357Y-148908214D01*
X71316071Y-148979642D01*
X71316071Y-149193928D01*
X71280357Y-149265357D01*
X71244642Y-149301071D01*
X71173214Y-149336785D01*
X71030357Y-149336785D01*
X70958928Y-149301071D01*
X71923214Y-149301071D02*
X71851785Y-149336785D01*
X71708928Y-149336785D01*
X71637500Y-149301071D01*
X71601785Y-149229642D01*
X71601785Y-148943928D01*
X71637500Y-148872500D01*
X71708928Y-148836785D01*
X71851785Y-148836785D01*
X71923214Y-148872500D01*
X71958928Y-148943928D01*
X71958928Y-149015357D01*
X71601785Y-149086785D01*
X72173214Y-148836785D02*
X72458928Y-148836785D01*
X72280357Y-149336785D02*
X72280357Y-148693928D01*
X72316071Y-148622500D01*
X72387500Y-148586785D01*
X72458928Y-148586785D01*
X72816071Y-149336785D02*
X72744642Y-149301071D01*
X72708928Y-149265357D01*
X72673214Y-149193928D01*
X72673214Y-148979642D01*
X72708928Y-148908214D01*
X72744642Y-148872500D01*
X72816071Y-148836785D01*
X72923214Y-148836785D01*
X72994642Y-148872500D01*
X73030357Y-148908214D01*
X73066071Y-148979642D01*
X73066071Y-149193928D01*
X73030357Y-149265357D01*
X72994642Y-149301071D01*
X72923214Y-149336785D01*
X72816071Y-149336785D01*
X73387500Y-149336785D02*
X73387500Y-148836785D01*
X73387500Y-148979642D02*
X73423214Y-148908214D01*
X73458928Y-148872500D01*
X73530357Y-148836785D01*
X73601785Y-148836785D01*
X74137500Y-149301071D02*
X74066071Y-149336785D01*
X73923214Y-149336785D01*
X73851785Y-149301071D01*
X73816071Y-149229642D01*
X73816071Y-148943928D01*
X73851785Y-148872500D01*
X73923214Y-148836785D01*
X74066071Y-148836785D01*
X74137500Y-148872500D01*
X74173214Y-148943928D01*
X74173214Y-149015357D01*
X73816071Y-149086785D01*
X64316071Y-150611785D02*
X64316071Y-150111785D01*
X64316071Y-149861785D02*
X64280357Y-149897500D01*
X64316071Y-149933214D01*
X64351785Y-149897500D01*
X64316071Y-149861785D01*
X64316071Y-149933214D01*
X64673214Y-150111785D02*
X64673214Y-150611785D01*
X64673214Y-150183214D02*
X64708928Y-150147500D01*
X64780357Y-150111785D01*
X64887500Y-150111785D01*
X64958928Y-150147500D01*
X64994642Y-150218928D01*
X64994642Y-150611785D01*
X65316071Y-150576071D02*
X65387500Y-150611785D01*
X65530357Y-150611785D01*
X65601785Y-150576071D01*
X65637500Y-150504642D01*
X65637500Y-150468928D01*
X65601785Y-150397500D01*
X65530357Y-150361785D01*
X65423214Y-150361785D01*
X65351785Y-150326071D01*
X65316071Y-150254642D01*
X65316071Y-150218928D01*
X65351785Y-150147500D01*
X65423214Y-150111785D01*
X65530357Y-150111785D01*
X65601785Y-150147500D01*
X66244642Y-150576071D02*
X66173214Y-150611785D01*
X66030357Y-150611785D01*
X65958928Y-150576071D01*
X65923214Y-150504642D01*
X65923214Y-150218928D01*
X65958928Y-150147500D01*
X66030357Y-150111785D01*
X66173214Y-150111785D01*
X66244642Y-150147500D01*
X66280357Y-150218928D01*
X66280357Y-150290357D01*
X65923214Y-150361785D01*
X66601785Y-150611785D02*
X66601785Y-150111785D01*
X66601785Y-150254642D02*
X66637500Y-150183214D01*
X66673214Y-150147500D01*
X66744642Y-150111785D01*
X66816071Y-150111785D01*
X66958928Y-150111785D02*
X67244642Y-150111785D01*
X67066071Y-149861785D02*
X67066071Y-150504642D01*
X67101785Y-150576071D01*
X67173214Y-150611785D01*
X67244642Y-150611785D01*
X67494642Y-150611785D02*
X67494642Y-150111785D01*
X67494642Y-149861785D02*
X67458928Y-149897500D01*
X67494642Y-149933214D01*
X67530357Y-149897500D01*
X67494642Y-149861785D01*
X67494642Y-149933214D01*
X67958928Y-150611785D02*
X67887500Y-150576071D01*
X67851785Y-150540357D01*
X67816071Y-150468928D01*
X67816071Y-150254642D01*
X67851785Y-150183214D01*
X67887500Y-150147500D01*
X67958928Y-150111785D01*
X68066071Y-150111785D01*
X68137500Y-150147500D01*
X68173214Y-150183214D01*
X68208928Y-150254642D01*
X68208928Y-150468928D01*
X68173214Y-150540357D01*
X68137500Y-150576071D01*
X68066071Y-150611785D01*
X67958928Y-150611785D01*
X68530357Y-150111785D02*
X68530357Y-150611785D01*
X68530357Y-150183214D02*
X68566071Y-150147500D01*
X68637500Y-150111785D01*
X68744642Y-150111785D01*
X68816071Y-150147500D01*
X68851785Y-150218928D01*
X68851785Y-150611785D01*
X70387500Y-150611785D02*
X70351785Y-150611785D01*
X70280357Y-150576071D01*
X70173214Y-150468928D01*
X69994642Y-150254642D01*
X69923214Y-150147500D01*
X69887500Y-150040357D01*
X69887500Y-149968928D01*
X69923214Y-149897500D01*
X69994642Y-149861785D01*
X70030357Y-149861785D01*
X70101785Y-149897500D01*
X70137500Y-149968928D01*
X70137500Y-150004642D01*
X70101785Y-150076071D01*
X70066071Y-150111785D01*
X69851785Y-150254642D01*
X69816071Y-150290357D01*
X69780357Y-150361785D01*
X69780357Y-150468928D01*
X69816071Y-150540357D01*
X69851785Y-150576071D01*
X69923214Y-150611785D01*
X70030357Y-150611785D01*
X70101785Y-150576071D01*
X70137500Y-150540357D01*
X70244642Y-150397500D01*
X70280357Y-150290357D01*
X70280357Y-150218928D01*
X71280357Y-150111785D02*
X71280357Y-150861785D01*
X71280357Y-150147500D02*
X71351785Y-150111785D01*
X71494642Y-150111785D01*
X71566071Y-150147500D01*
X71601785Y-150183214D01*
X71637500Y-150254642D01*
X71637500Y-150468928D01*
X71601785Y-150540357D01*
X71566071Y-150576071D01*
X71494642Y-150611785D01*
X71351785Y-150611785D01*
X71280357Y-150576071D01*
X72066071Y-150611785D02*
X71994642Y-150576071D01*
X71958928Y-150540357D01*
X71923214Y-150468928D01*
X71923214Y-150254642D01*
X71958928Y-150183214D01*
X71994642Y-150147500D01*
X72066071Y-150111785D01*
X72173214Y-150111785D01*
X72244642Y-150147500D01*
X72280357Y-150183214D01*
X72316071Y-150254642D01*
X72316071Y-150468928D01*
X72280357Y-150540357D01*
X72244642Y-150576071D01*
X72173214Y-150611785D01*
X72066071Y-150611785D01*
X72566071Y-150111785D02*
X72708928Y-150611785D01*
X72851785Y-150254642D01*
X72994642Y-150611785D01*
X73137500Y-150111785D01*
X73708928Y-150576071D02*
X73637500Y-150611785D01*
X73494642Y-150611785D01*
X73423214Y-150576071D01*
X73387500Y-150504642D01*
X73387500Y-150218928D01*
X73423214Y-150147500D01*
X73494642Y-150111785D01*
X73637500Y-150111785D01*
X73708928Y-150147500D01*
X73744642Y-150218928D01*
X73744642Y-150290357D01*
X73387500Y-150361785D01*
X74066071Y-150611785D02*
X74066071Y-150111785D01*
X74066071Y-150254642D02*
X74101785Y-150183214D01*
X74137500Y-150147500D01*
X74208928Y-150111785D01*
X74280357Y-150111785D01*
X74530357Y-150611785D02*
X74530357Y-150111785D01*
X74530357Y-149861785D02*
X74494642Y-149897500D01*
X74530357Y-149933214D01*
X74566071Y-149897500D01*
X74530357Y-149861785D01*
X74530357Y-149933214D01*
X74887500Y-150111785D02*
X74887500Y-150611785D01*
X74887500Y-150183214D02*
X74923214Y-150147500D01*
X74994642Y-150111785D01*
X75101785Y-150111785D01*
X75173214Y-150147500D01*
X75208928Y-150218928D01*
X75208928Y-150611785D01*
X75887500Y-150111785D02*
X75887500Y-150718928D01*
X75851785Y-150790357D01*
X75816071Y-150826071D01*
X75744642Y-150861785D01*
X75637500Y-150861785D01*
X75566071Y-150826071D01*
X75887500Y-150576071D02*
X75816071Y-150611785D01*
X75673214Y-150611785D01*
X75601785Y-150576071D01*
X75566071Y-150540357D01*
X75530357Y-150468928D01*
X75530357Y-150254642D01*
X75566071Y-150183214D01*
X75601785Y-150147500D01*
X75673214Y-150111785D01*
X75816071Y-150111785D01*
X75887500Y-150147500D01*
X76244642Y-150540357D02*
X76280357Y-150576071D01*
X76244642Y-150611785D01*
X76208928Y-150576071D01*
X76244642Y-150540357D01*
X76244642Y-150611785D01*
X76244642Y-150326071D02*
X76208928Y-149897500D01*
X76244642Y-149861785D01*
X76280357Y-149897500D01*
X76244642Y-150326071D01*
X76244642Y-149861785D01*
X218637857Y-121554285D02*
X218209285Y-121554285D01*
X218423571Y-121554285D02*
X218423571Y-120804285D01*
X218352142Y-120911428D01*
X218280714Y-120982857D01*
X218209285Y-121018571D01*
X219280714Y-120804285D02*
X219137857Y-120804285D01*
X219066428Y-120840000D01*
X219030714Y-120875714D01*
X218959285Y-120982857D01*
X218923571Y-121125714D01*
X218923571Y-121411428D01*
X218959285Y-121482857D01*
X218995000Y-121518571D01*
X219066428Y-121554285D01*
X219209285Y-121554285D01*
X219280714Y-121518571D01*
X219316428Y-121482857D01*
X219352142Y-121411428D01*
X219352142Y-121232857D01*
X219316428Y-121161428D01*
X219280714Y-121125714D01*
X219209285Y-121090000D01*
X219066428Y-121090000D01*
X218995000Y-121125714D01*
X218959285Y-121161428D01*
X218923571Y-121232857D01*
X219673571Y-121268571D02*
X220245000Y-121268571D01*
X220959285Y-120804285D02*
X220602142Y-120804285D01*
X220566428Y-121161428D01*
X220602142Y-121125714D01*
X220673571Y-121090000D01*
X220852142Y-121090000D01*
X220923571Y-121125714D01*
X220959285Y-121161428D01*
X220995000Y-121232857D01*
X220995000Y-121411428D01*
X220959285Y-121482857D01*
X220923571Y-121518571D01*
X220852142Y-121554285D01*
X220673571Y-121554285D01*
X220602142Y-121518571D01*
X220566428Y-121482857D01*
X221459285Y-120804285D02*
X221530714Y-120804285D01*
X221602142Y-120840000D01*
X221637857Y-120875714D01*
X221673571Y-120947142D01*
X221709285Y-121090000D01*
X221709285Y-121268571D01*
X221673571Y-121411428D01*
X221637857Y-121482857D01*
X221602142Y-121518571D01*
X221530714Y-121554285D01*
X221459285Y-121554285D01*
X221387857Y-121518571D01*
X221352142Y-121482857D01*
X221316428Y-121411428D01*
X221280714Y-121268571D01*
X221280714Y-121090000D01*
X221316428Y-120947142D01*
X221352142Y-120875714D01*
X221387857Y-120840000D01*
X221459285Y-120804285D01*
X222602142Y-121554285D02*
X222602142Y-120804285D01*
X222852142Y-121340000D01*
X223102142Y-120804285D01*
X223102142Y-121554285D01*
X223459285Y-121554285D02*
X223459285Y-120804285D01*
X223459285Y-121161428D02*
X223887857Y-121161428D01*
X223887857Y-121554285D02*
X223887857Y-120804285D01*
X224173571Y-121054285D02*
X224566428Y-121054285D01*
X224173571Y-121554285D01*
X224566428Y-121554285D01*
X219370000Y-122829285D02*
X219298571Y-122793571D01*
X219262857Y-122757857D01*
X219227142Y-122686428D01*
X219227142Y-122472142D01*
X219262857Y-122400714D01*
X219298571Y-122365000D01*
X219370000Y-122329285D01*
X219477142Y-122329285D01*
X219548571Y-122365000D01*
X219584285Y-122400714D01*
X219620000Y-122472142D01*
X219620000Y-122686428D01*
X219584285Y-122757857D01*
X219548571Y-122793571D01*
X219477142Y-122829285D01*
X219370000Y-122829285D01*
X219941428Y-122329285D02*
X219941428Y-123079285D01*
X219941428Y-122365000D02*
X220012857Y-122329285D01*
X220155714Y-122329285D01*
X220227142Y-122365000D01*
X220262857Y-122400714D01*
X220298571Y-122472142D01*
X220298571Y-122686428D01*
X220262857Y-122757857D01*
X220227142Y-122793571D01*
X220155714Y-122829285D01*
X220012857Y-122829285D01*
X219941428Y-122793571D01*
X220512857Y-122329285D02*
X220798571Y-122329285D01*
X220620000Y-122079285D02*
X220620000Y-122722142D01*
X220655714Y-122793571D01*
X220727142Y-122829285D01*
X220798571Y-122829285D01*
X221048571Y-122829285D02*
X221048571Y-122329285D01*
X221048571Y-122079285D02*
X221012857Y-122115000D01*
X221048571Y-122150714D01*
X221084285Y-122115000D01*
X221048571Y-122079285D01*
X221048571Y-122150714D01*
X221512857Y-122829285D02*
X221441428Y-122793571D01*
X221405714Y-122757857D01*
X221370000Y-122686428D01*
X221370000Y-122472142D01*
X221405714Y-122400714D01*
X221441428Y-122365000D01*
X221512857Y-122329285D01*
X221620000Y-122329285D01*
X221691428Y-122365000D01*
X221727142Y-122400714D01*
X221762857Y-122472142D01*
X221762857Y-122686428D01*
X221727142Y-122757857D01*
X221691428Y-122793571D01*
X221620000Y-122829285D01*
X221512857Y-122829285D01*
X222084285Y-122329285D02*
X222084285Y-122829285D01*
X222084285Y-122400714D02*
X222120000Y-122365000D01*
X222191428Y-122329285D01*
X222298571Y-122329285D01*
X222370000Y-122365000D01*
X222405714Y-122436428D01*
X222405714Y-122829285D01*
X223084285Y-122829285D02*
X223084285Y-122436428D01*
X223048571Y-122365000D01*
X222977142Y-122329285D01*
X222834285Y-122329285D01*
X222762857Y-122365000D01*
X223084285Y-122793571D02*
X223012857Y-122829285D01*
X222834285Y-122829285D01*
X222762857Y-122793571D01*
X222727142Y-122722142D01*
X222727142Y-122650714D01*
X222762857Y-122579285D01*
X222834285Y-122543571D01*
X223012857Y-122543571D01*
X223084285Y-122507857D01*
X223548571Y-122829285D02*
X223477142Y-122793571D01*
X223441428Y-122722142D01*
X223441428Y-122079285D01*
X218495000Y-124104285D02*
X218423571Y-124068571D01*
X218387857Y-123997142D01*
X218387857Y-123354285D01*
X218887857Y-124104285D02*
X218816428Y-124068571D01*
X218780714Y-124032857D01*
X218745000Y-123961428D01*
X218745000Y-123747142D01*
X218780714Y-123675714D01*
X218816428Y-123640000D01*
X218887857Y-123604285D01*
X218995000Y-123604285D01*
X219066428Y-123640000D01*
X219102142Y-123675714D01*
X219137857Y-123747142D01*
X219137857Y-123961428D01*
X219102142Y-124032857D01*
X219066428Y-124068571D01*
X218995000Y-124104285D01*
X218887857Y-124104285D01*
X219780714Y-124068571D02*
X219709285Y-124104285D01*
X219566428Y-124104285D01*
X219495000Y-124068571D01*
X219459285Y-124032857D01*
X219423571Y-123961428D01*
X219423571Y-123747142D01*
X219459285Y-123675714D01*
X219495000Y-123640000D01*
X219566428Y-123604285D01*
X219709285Y-123604285D01*
X219780714Y-123640000D01*
X220423571Y-124104285D02*
X220423571Y-123711428D01*
X220387857Y-123640000D01*
X220316428Y-123604285D01*
X220173571Y-123604285D01*
X220102142Y-123640000D01*
X220423571Y-124068571D02*
X220352142Y-124104285D01*
X220173571Y-124104285D01*
X220102142Y-124068571D01*
X220066428Y-123997142D01*
X220066428Y-123925714D01*
X220102142Y-123854285D01*
X220173571Y-123818571D01*
X220352142Y-123818571D01*
X220423571Y-123782857D01*
X220887857Y-124104285D02*
X220816428Y-124068571D01*
X220780714Y-123997142D01*
X220780714Y-123354285D01*
X222066428Y-124068571D02*
X221995000Y-124104285D01*
X221852142Y-124104285D01*
X221780714Y-124068571D01*
X221745000Y-124032857D01*
X221709285Y-123961428D01*
X221709285Y-123747142D01*
X221745000Y-123675714D01*
X221780714Y-123640000D01*
X221852142Y-123604285D01*
X221995000Y-123604285D01*
X222066428Y-123640000D01*
X222495000Y-124104285D02*
X222423571Y-124068571D01*
X222387857Y-123997142D01*
X222387857Y-123354285D01*
X222887857Y-124104285D02*
X222816428Y-124068571D01*
X222780714Y-124032857D01*
X222745000Y-123961428D01*
X222745000Y-123747142D01*
X222780714Y-123675714D01*
X222816428Y-123640000D01*
X222887857Y-123604285D01*
X222995000Y-123604285D01*
X223066428Y-123640000D01*
X223102142Y-123675714D01*
X223137857Y-123747142D01*
X223137857Y-123961428D01*
X223102142Y-124032857D01*
X223066428Y-124068571D01*
X222995000Y-124104285D01*
X222887857Y-124104285D01*
X223780714Y-124068571D02*
X223709285Y-124104285D01*
X223566428Y-124104285D01*
X223495000Y-124068571D01*
X223459285Y-124032857D01*
X223423571Y-123961428D01*
X223423571Y-123747142D01*
X223459285Y-123675714D01*
X223495000Y-123640000D01*
X223566428Y-123604285D01*
X223709285Y-123604285D01*
X223780714Y-123640000D01*
X224102142Y-124104285D02*
X224102142Y-123354285D01*
X224173571Y-123818571D02*
X224387857Y-124104285D01*
X224387857Y-123604285D02*
X224102142Y-123890000D01*
X216360714Y-127583571D02*
X216289285Y-127619285D01*
X216146428Y-127619285D01*
X216075000Y-127583571D01*
X216039285Y-127547857D01*
X216003571Y-127476428D01*
X216003571Y-127262142D01*
X216039285Y-127190714D01*
X216075000Y-127155000D01*
X216146428Y-127119285D01*
X216289285Y-127119285D01*
X216360714Y-127155000D01*
X216789285Y-127619285D02*
X216717857Y-127583571D01*
X216682142Y-127547857D01*
X216646428Y-127476428D01*
X216646428Y-127262142D01*
X216682142Y-127190714D01*
X216717857Y-127155000D01*
X216789285Y-127119285D01*
X216896428Y-127119285D01*
X216967857Y-127155000D01*
X217003571Y-127190714D01*
X217039285Y-127262142D01*
X217039285Y-127476428D01*
X217003571Y-127547857D01*
X216967857Y-127583571D01*
X216896428Y-127619285D01*
X216789285Y-127619285D01*
X217360714Y-127619285D02*
X217360714Y-127119285D01*
X217360714Y-127190714D02*
X217396428Y-127155000D01*
X217467857Y-127119285D01*
X217575000Y-127119285D01*
X217646428Y-127155000D01*
X217682142Y-127226428D01*
X217682142Y-127619285D01*
X217682142Y-127226428D02*
X217717857Y-127155000D01*
X217789285Y-127119285D01*
X217896428Y-127119285D01*
X217967857Y-127155000D01*
X218003571Y-127226428D01*
X218003571Y-127619285D01*
X218360714Y-127619285D02*
X218360714Y-127119285D01*
X218360714Y-127190714D02*
X218396428Y-127155000D01*
X218467857Y-127119285D01*
X218575000Y-127119285D01*
X218646428Y-127155000D01*
X218682142Y-127226428D01*
X218682142Y-127619285D01*
X218682142Y-127226428D02*
X218717857Y-127155000D01*
X218789285Y-127119285D01*
X218896428Y-127119285D01*
X218967857Y-127155000D01*
X219003571Y-127226428D01*
X219003571Y-127619285D01*
X219467857Y-127619285D02*
X219396428Y-127583571D01*
X219360714Y-127547857D01*
X219325000Y-127476428D01*
X219325000Y-127262142D01*
X219360714Y-127190714D01*
X219396428Y-127155000D01*
X219467857Y-127119285D01*
X219575000Y-127119285D01*
X219646428Y-127155000D01*
X219682142Y-127190714D01*
X219717857Y-127262142D01*
X219717857Y-127476428D01*
X219682142Y-127547857D01*
X219646428Y-127583571D01*
X219575000Y-127619285D01*
X219467857Y-127619285D01*
X220039285Y-127119285D02*
X220039285Y-127619285D01*
X220039285Y-127190714D02*
X220075000Y-127155000D01*
X220146428Y-127119285D01*
X220253571Y-127119285D01*
X220325000Y-127155000D01*
X220360714Y-127226428D01*
X220360714Y-127619285D01*
X216708571Y-135379285D02*
X216708571Y-134629285D01*
X216887142Y-134629285D01*
X216994285Y-134665000D01*
X217065714Y-134736428D01*
X217101428Y-134807857D01*
X217137142Y-134950714D01*
X217137142Y-135057857D01*
X217101428Y-135200714D01*
X217065714Y-135272142D01*
X216994285Y-135343571D01*
X216887142Y-135379285D01*
X216708571Y-135379285D01*
X217458571Y-135379285D02*
X217458571Y-134629285D01*
X217815714Y-135379285D02*
X217815714Y-134629285D01*
X218101428Y-134629285D01*
X218172857Y-134665000D01*
X218208571Y-134700714D01*
X218244285Y-134772142D01*
X218244285Y-134879285D01*
X218208571Y-134950714D01*
X218172857Y-134986428D01*
X218101428Y-135022142D01*
X217815714Y-135022142D01*
X218565714Y-135093571D02*
X219137142Y-135093571D01*
X219601428Y-134950714D02*
X219530000Y-134915000D01*
X219494285Y-134879285D01*
X219458571Y-134807857D01*
X219458571Y-134772142D01*
X219494285Y-134700714D01*
X219530000Y-134665000D01*
X219601428Y-134629285D01*
X219744285Y-134629285D01*
X219815714Y-134665000D01*
X219851428Y-134700714D01*
X219887142Y-134772142D01*
X219887142Y-134807857D01*
X219851428Y-134879285D01*
X219815714Y-134915000D01*
X219744285Y-134950714D01*
X219601428Y-134950714D01*
X219530000Y-134986428D01*
X219494285Y-135022142D01*
X219458571Y-135093571D01*
X219458571Y-135236428D01*
X219494285Y-135307857D01*
X219530000Y-135343571D01*
X219601428Y-135379285D01*
X219744285Y-135379285D01*
X219815714Y-135343571D01*
X219851428Y-135307857D01*
X219887142Y-135236428D01*
X219887142Y-135093571D01*
X219851428Y-135022142D01*
X219815714Y-134986428D01*
X219744285Y-134950714D01*
X216351428Y-143109285D02*
X216351428Y-142359285D01*
X216530000Y-142359285D01*
X216637142Y-142395000D01*
X216708571Y-142466428D01*
X216744285Y-142537857D01*
X216780000Y-142680714D01*
X216780000Y-142787857D01*
X216744285Y-142930714D01*
X216708571Y-143002142D01*
X216637142Y-143073571D01*
X216530000Y-143109285D01*
X216351428Y-143109285D01*
X217101428Y-143109285D02*
X217101428Y-142359285D01*
X217458571Y-143109285D02*
X217458571Y-142359285D01*
X217744285Y-142359285D01*
X217815714Y-142395000D01*
X217851428Y-142430714D01*
X217887142Y-142502142D01*
X217887142Y-142609285D01*
X217851428Y-142680714D01*
X217815714Y-142716428D01*
X217744285Y-142752142D01*
X217458571Y-142752142D01*
X218208571Y-142823571D02*
X218780000Y-142823571D01*
X219530000Y-143109285D02*
X219101428Y-143109285D01*
X219315714Y-143109285D02*
X219315714Y-142359285D01*
X219244285Y-142466428D01*
X219172857Y-142537857D01*
X219101428Y-142573571D01*
X220172857Y-142609285D02*
X220172857Y-143109285D01*
X219994285Y-142323571D02*
X219815714Y-142859285D01*
X220280000Y-142859285D01*
X225574285Y-135289285D02*
X225145714Y-135289285D01*
X225360000Y-135289285D02*
X225360000Y-134539285D01*
X225288571Y-134646428D01*
X225217142Y-134717857D01*
X225145714Y-134753571D01*
X225594285Y-142959285D02*
X225165714Y-142959285D01*
X225380000Y-142959285D02*
X225380000Y-142209285D01*
X225308571Y-142316428D01*
X225237142Y-142387857D01*
X225165714Y-142423571D01*
X95749285Y-102965714D02*
X95749285Y-103394285D01*
X95749285Y-103180000D02*
X94999285Y-103180000D01*
X95106428Y-103251428D01*
X95177857Y-103322857D01*
X95213571Y-103394285D01*
D11*
X90012380Y-101520238D02*
X89964761Y-101609523D01*
X89869523Y-101645238D01*
X89012380Y-101538095D01*
X90012380Y-100996428D02*
X89964761Y-101085714D01*
X89917142Y-101127380D01*
X89821904Y-101163095D01*
X89536190Y-101127380D01*
X89440952Y-101067857D01*
X89393333Y-101014285D01*
X89345714Y-100913095D01*
X89345714Y-100770238D01*
X89393333Y-100680952D01*
X89440952Y-100639285D01*
X89536190Y-100603571D01*
X89821904Y-100639285D01*
X89917142Y-100698809D01*
X89964761Y-100752380D01*
X90012380Y-100853571D01*
X90012380Y-100996428D01*
X89964761Y-99800000D02*
X90012380Y-99901190D01*
X90012380Y-100091666D01*
X89964761Y-100180952D01*
X89917142Y-100222619D01*
X89821904Y-100258333D01*
X89536190Y-100222619D01*
X89440952Y-100163095D01*
X89393333Y-100109523D01*
X89345714Y-100008333D01*
X89345714Y-99817857D01*
X89393333Y-99728571D01*
X90012380Y-98948809D02*
X89488571Y-98883333D01*
X89393333Y-98919047D01*
X89345714Y-99008333D01*
X89345714Y-99198809D01*
X89393333Y-99300000D01*
X89964761Y-98942857D02*
X90012380Y-99044047D01*
X90012380Y-99282142D01*
X89964761Y-99371428D01*
X89869523Y-99407142D01*
X89774285Y-99395238D01*
X89679047Y-99335714D01*
X89631428Y-99234523D01*
X89631428Y-98996428D01*
X89583809Y-98895238D01*
X90012380Y-98329761D02*
X89964761Y-98419047D01*
X89869523Y-98454761D01*
X89012380Y-98347619D01*
X91664761Y-100466666D02*
X91712380Y-100567857D01*
X91712380Y-100758333D01*
X91664761Y-100847619D01*
X91617142Y-100889285D01*
X91521904Y-100925000D01*
X91236190Y-100889285D01*
X91140952Y-100829761D01*
X91093333Y-100776190D01*
X91045714Y-100675000D01*
X91045714Y-100484523D01*
X91093333Y-100395238D01*
X91712380Y-99901190D02*
X91664761Y-99990476D01*
X91569523Y-100026190D01*
X90712380Y-99919047D01*
X91712380Y-99520238D02*
X90712380Y-99395238D01*
X91331428Y-99377380D02*
X91712380Y-99139285D01*
X91045714Y-99055952D02*
X91426666Y-99484523D01*
D10*
X61442857Y-125889285D02*
X61907142Y-125889285D01*
X61657142Y-126175000D01*
X61764285Y-126175000D01*
X61835714Y-126210714D01*
X61871428Y-126246428D01*
X61907142Y-126317857D01*
X61907142Y-126496428D01*
X61871428Y-126567857D01*
X61835714Y-126603571D01*
X61764285Y-126639285D01*
X61550000Y-126639285D01*
X61478571Y-126603571D01*
X61442857Y-126567857D01*
X62585714Y-125889285D02*
X62228571Y-125889285D01*
X62192857Y-126246428D01*
X62228571Y-126210714D01*
X62300000Y-126175000D01*
X62478571Y-126175000D01*
X62550000Y-126210714D01*
X62585714Y-126246428D01*
X62621428Y-126317857D01*
X62621428Y-126496428D01*
X62585714Y-126567857D01*
X62550000Y-126603571D01*
X62478571Y-126639285D01*
X62300000Y-126639285D01*
X62228571Y-126603571D01*
X62192857Y-126567857D01*
X88935714Y-142389285D02*
X88792857Y-142389285D01*
X88721428Y-142425000D01*
X88685714Y-142460714D01*
X88614285Y-142567857D01*
X88578571Y-142710714D01*
X88578571Y-142996428D01*
X88614285Y-143067857D01*
X88650000Y-143103571D01*
X88721428Y-143139285D01*
X88864285Y-143139285D01*
X88935714Y-143103571D01*
X88971428Y-143067857D01*
X89007142Y-142996428D01*
X89007142Y-142817857D01*
X88971428Y-142746428D01*
X88935714Y-142710714D01*
X88864285Y-142675000D01*
X88721428Y-142675000D01*
X88650000Y-142710714D01*
X88614285Y-142746428D01*
X88578571Y-142817857D01*
X89471428Y-142389285D02*
X89542857Y-142389285D01*
X89614285Y-142425000D01*
X89650000Y-142460714D01*
X89685714Y-142532142D01*
X89721428Y-142675000D01*
X89721428Y-142853571D01*
X89685714Y-142996428D01*
X89650000Y-143067857D01*
X89614285Y-143103571D01*
X89542857Y-143139285D01*
X89471428Y-143139285D01*
X89400000Y-143103571D01*
X89364285Y-143067857D01*
X89328571Y-142996428D01*
X89292857Y-142853571D01*
X89292857Y-142675000D01*
X89328571Y-142532142D01*
X89364285Y-142460714D01*
X89400000Y-142425000D01*
X89471428Y-142389285D01*
X68635714Y-142639285D02*
X68635714Y-143139285D01*
X68457142Y-142353571D02*
X68278571Y-142889285D01*
X68742857Y-142889285D01*
X69350000Y-142639285D02*
X69350000Y-143139285D01*
X69171428Y-142353571D02*
X68992857Y-142889285D01*
X69457142Y-142889285D01*
X95557142Y-116389285D02*
X95700000Y-116389285D01*
X95771428Y-116353571D01*
X95807142Y-116317857D01*
X95878571Y-116210714D01*
X95914285Y-116067857D01*
X95914285Y-115782142D01*
X95878571Y-115710714D01*
X95842857Y-115675000D01*
X95771428Y-115639285D01*
X95628571Y-115639285D01*
X95557142Y-115675000D01*
X95521428Y-115710714D01*
X95485714Y-115782142D01*
X95485714Y-115960714D01*
X95521428Y-116032142D01*
X95557142Y-116067857D01*
X95628571Y-116103571D01*
X95771428Y-116103571D01*
X95842857Y-116067857D01*
X95878571Y-116032142D01*
X95914285Y-115960714D01*
D11*
X97035714Y-126752380D02*
X96464285Y-126752380D01*
X96750000Y-126752380D02*
X96750000Y-125752380D01*
X96654761Y-125895238D01*
X96559523Y-125990476D01*
X96464285Y-126038095D01*
X80275238Y-98845238D02*
X80227619Y-98744047D01*
X80227619Y-98553571D01*
X80275238Y-98464285D01*
X80322857Y-98422619D01*
X80418095Y-98386904D01*
X80703809Y-98422619D01*
X80799047Y-98482142D01*
X80846666Y-98535714D01*
X80894285Y-98636904D01*
X80894285Y-98827380D01*
X80846666Y-98916666D01*
X80894285Y-99351190D02*
X79894285Y-99226190D01*
X80846666Y-99345238D02*
X80894285Y-99446428D01*
X80894285Y-99636904D01*
X80846666Y-99726190D01*
X80799047Y-99767857D01*
X80703809Y-99803571D01*
X80418095Y-99767857D01*
X80322857Y-99708333D01*
X80275238Y-99654761D01*
X80227619Y-99553571D01*
X80227619Y-99363095D01*
X80275238Y-99273809D01*
X80894285Y-100684523D02*
X80227619Y-100601190D01*
X80894285Y-100255952D02*
X80370476Y-100190476D01*
X80275238Y-100226190D01*
X80227619Y-100315476D01*
X80227619Y-100458333D01*
X80275238Y-100559523D01*
X80322857Y-100613095D01*
X78575238Y-99083333D02*
X78527619Y-98982142D01*
X78527619Y-98791666D01*
X78575238Y-98702380D01*
X78622857Y-98660714D01*
X78718095Y-98625000D01*
X79003809Y-98660714D01*
X79099047Y-98720238D01*
X79146666Y-98773809D01*
X79194285Y-98875000D01*
X79194285Y-99065476D01*
X79146666Y-99154761D01*
X78527619Y-99648809D02*
X78575238Y-99559523D01*
X78670476Y-99523809D01*
X79527619Y-99630952D01*
X78527619Y-100029761D02*
X79527619Y-100154761D01*
X78908571Y-100172619D02*
X78527619Y-100410714D01*
X79194285Y-100494047D02*
X78813333Y-100065476D01*
D12*
X54900000Y-118000000D02*
X54900000Y-154700000D01*
X59900000Y-118000000D02*
X54900000Y-118000000D01*
X59900000Y-154700000D02*
X59900000Y-118000000D01*
X54900000Y-154700000D02*
X59900000Y-154700000D01*
X66900000Y-107400000D02*
X58900000Y-98000000D01*
X66900000Y-98000000D02*
X58900000Y-107400000D01*
X58900000Y-98000000D02*
X66900000Y-98000000D01*
X58900000Y-107400000D02*
X58900000Y-98000000D01*
X66900000Y-107400000D02*
X58900000Y-107400000D01*
X66900000Y-98000000D02*
X66900000Y-107400000D01*
X211730000Y-107400000D02*
X226900000Y-98000000D01*
X211730000Y-98000000D02*
X226900000Y-107400000D01*
X211730000Y-107400000D02*
X211730000Y-98000000D01*
D10*
X226900000Y-107400000D02*
X211730000Y-107400000D01*
D13*
%TO.C,S1*%
X87750000Y-101245000D02*
X86620000Y-101245000D01*
X83380000Y-101245000D02*
X82250000Y-101245000D01*
X82250000Y-101245000D02*
X82250000Y-100595000D01*
X82250000Y-98745000D02*
X82250000Y-99255000D01*
X87750000Y-100595000D02*
X87750000Y-101245000D01*
X87750000Y-98745000D02*
X87750000Y-99255000D01*
X82250000Y-98745000D02*
X83700000Y-98745000D01*
X83700000Y-98745000D02*
X84900000Y-98745000D01*
X84900000Y-98745000D02*
X87750000Y-98745000D01*
X84900000Y-98745000D02*
X84900000Y-97645000D01*
X84900000Y-97645000D02*
X84700000Y-97445000D01*
X84700000Y-97445000D02*
X83900000Y-97445000D01*
X83900000Y-97445000D02*
X83700000Y-97645000D01*
X83700000Y-97645000D02*
X83700000Y-98745000D01*
D11*
X86100000Y-102135000D02*
G75*
G03*
X86100000Y-102135000I-100000J0D01*
G01*
D12*
%TO.C,C15*%
X217330000Y-146565000D02*
X213420000Y-146565000D01*
X213420000Y-146565000D02*
X213420000Y-148435000D01*
X213420000Y-148435000D02*
X217330000Y-148435000D01*
D10*
%TO.C,X1*%
X211740000Y-137750000D02*
X224540000Y-137750000D01*
D12*
X212490000Y-145450000D02*
X224640000Y-145450000D01*
X211740000Y-125300000D02*
X211740000Y-144700000D01*
X223890000Y-124550000D02*
X212490000Y-124550000D01*
X224640000Y-145450000D02*
X224640000Y-125300000D01*
X211740000Y-144700000D02*
G75*
G03*
X212490000Y-145450000I750000J0D01*
G01*
X212490000Y-124550000D02*
G75*
G03*
X211740000Y-125300000I0J-750000D01*
G01*
X224640000Y-125300000D02*
G75*
G03*
X223890000Y-124550000I-750000J0D01*
G01*
%TO.C,C14*%
X94634420Y-109510000D02*
X94915580Y-109510000D01*
X94634420Y-108490000D02*
X94915580Y-108490000D01*
%TO.C,U1*%
X92390000Y-104600000D02*
X92390000Y-106400000D01*
X95610000Y-106400000D02*
X95610000Y-103950000D01*
%TO.C,R5*%
X87053258Y-102727500D02*
X86578742Y-102727500D01*
X87053258Y-103772500D02*
X86578742Y-103772500D01*
%TO.C,R4*%
X82937742Y-103772500D02*
X83412258Y-103772500D01*
X82937742Y-102727500D02*
X83412258Y-102727500D01*
%TO.C,J4*%
X97143000Y-108250200D02*
X211697000Y-108250200D01*
X211697000Y-108250200D02*
X211697000Y-97404400D01*
X211697000Y-97404400D02*
X97143000Y-97404400D01*
X97143000Y-97404400D02*
X97143000Y-108250200D01*
X212713000Y-100300000D02*
G75*
G03*
X212713000Y-100300000I-381000J0D01*
G01*
D14*
%TO.C,J2*%
X96103553Y-126250000D02*
G75*
G03*
X96103553Y-126250000I-353553J0D01*
G01*
D11*
X63475000Y-110725000D02*
X94525000Y-110725000D01*
X63475000Y-141775000D02*
X63475000Y-110725000D01*
X94525000Y-141775000D02*
X63475000Y-141775000D01*
X94525000Y-110725000D02*
X94525000Y-141775000D01*
D12*
%TO.C,C13*%
X61290000Y-131665000D02*
X57380000Y-131665000D01*
X61290000Y-133535000D02*
X61290000Y-131665000D01*
X57380000Y-133535000D02*
X61290000Y-133535000D01*
%TO.C,C12*%
X85685000Y-105490000D02*
X85685000Y-109400000D01*
X85685000Y-109400000D02*
X87555000Y-109400000D01*
X87555000Y-109400000D02*
X87555000Y-105490000D01*
%TO.C,C11*%
X85015000Y-146977000D02*
X85015000Y-143067000D01*
X85015000Y-143067000D02*
X83145000Y-143067000D01*
X83145000Y-143067000D02*
X83145000Y-146977000D01*
%TO.C,C10*%
X210390000Y-135634420D02*
X210390000Y-135915580D01*
X209370000Y-135634420D02*
X209370000Y-135915580D01*
%TO.C,C9*%
X208390000Y-135634420D02*
X208390000Y-135915580D01*
X207370000Y-135634420D02*
X207370000Y-135915580D01*
%TO.C,R2*%
X69362500Y-107882258D02*
X69362500Y-107407742D01*
X68317500Y-107882258D02*
X68317500Y-107407742D01*
%TO.C,R1*%
X79522500Y-107882258D02*
X79522500Y-107407742D01*
X78477500Y-107882258D02*
X78477500Y-107407742D01*
D15*
%TO.C,J1*%
X99500000Y-150020000D02*
X93320000Y-150020000D01*
X93320000Y-150020000D02*
X93320000Y-150020000D01*
X93320000Y-150020000D02*
X99500000Y-150020000D01*
X99500000Y-150020000D02*
X99500000Y-150020000D01*
X93320000Y-150020000D02*
X93320000Y-150020000D01*
X93320000Y-150020000D02*
X93320000Y-162640000D01*
X93320000Y-162640000D02*
X93320000Y-162640000D01*
X93320000Y-162640000D02*
X93320000Y-150020000D01*
X93320000Y-162640000D02*
X207620000Y-162640000D01*
X207620000Y-162640000D02*
X207620000Y-162640000D01*
X207620000Y-162640000D02*
X93320000Y-162640000D01*
X93320000Y-162640000D02*
X93320000Y-162640000D01*
X207620000Y-162640000D02*
X207620000Y-162640000D01*
X207620000Y-162640000D02*
X207620000Y-150020000D01*
X207620000Y-150020000D02*
X207620000Y-150020000D01*
X207620000Y-150020000D02*
X207620000Y-162640000D01*
X207620000Y-150020000D02*
X201500000Y-150020000D01*
X201500000Y-150020000D02*
X201500000Y-150020000D01*
X201500000Y-150020000D02*
X207620000Y-150020000D01*
X207620000Y-150020000D02*
X207620000Y-150020000D01*
D12*
%TO.C,C7*%
X59695580Y-116600000D02*
X59414420Y-116600000D01*
X59695580Y-115580000D02*
X59414420Y-115580000D01*
%TO.C,C8*%
X59695580Y-136920000D02*
X59414420Y-136920000D01*
X59695580Y-135900000D02*
X59414420Y-135900000D01*
%TO.C,C3*%
X97414420Y-135900000D02*
X97695580Y-135900000D01*
X97414420Y-136920000D02*
X97695580Y-136920000D01*
%TO.C,C1*%
X79510000Y-144661420D02*
X79510000Y-144942580D01*
X78490000Y-144661420D02*
X78490000Y-144942580D01*
%TO.C,C2*%
X82050000Y-144661420D02*
X82050000Y-144942580D01*
X81030000Y-144661420D02*
X81030000Y-144942580D01*
%TO.C,C5*%
X83570000Y-107785580D02*
X83570000Y-107504420D01*
X84590000Y-107785580D02*
X84590000Y-107504420D01*
%TO.C,C6*%
X81030000Y-107785580D02*
X81030000Y-107504420D01*
X82050000Y-107785580D02*
X82050000Y-107504420D01*
%TO.C,C4*%
X88650000Y-107785580D02*
X88650000Y-107504420D01*
X89670000Y-107785580D02*
X89670000Y-107504420D01*
%TO.C,S1*%
D10*
X79448095Y-102144761D02*
X79590952Y-102192380D01*
X79829047Y-102192380D01*
X79924285Y-102144761D01*
X79971904Y-102097142D01*
X80019523Y-102001904D01*
X80019523Y-101906666D01*
X79971904Y-101811428D01*
X79924285Y-101763809D01*
X79829047Y-101716190D01*
X79638571Y-101668571D01*
X79543333Y-101620952D01*
X79495714Y-101573333D01*
X79448095Y-101478095D01*
X79448095Y-101382857D01*
X79495714Y-101287619D01*
X79543333Y-101240000D01*
X79638571Y-101192380D01*
X79876666Y-101192380D01*
X80019523Y-101240000D01*
X80971904Y-102192380D02*
X80400476Y-102192380D01*
X80686190Y-102192380D02*
X80686190Y-101192380D01*
X80590952Y-101335238D01*
X80495714Y-101430476D01*
X80400476Y-101478095D01*
%TO.C,C15*%
X212027142Y-148202857D02*
X212074761Y-148250476D01*
X212122380Y-148393333D01*
X212122380Y-148488571D01*
X212074761Y-148631428D01*
X211979523Y-148726666D01*
X211884285Y-148774285D01*
X211693809Y-148821904D01*
X211550952Y-148821904D01*
X211360476Y-148774285D01*
X211265238Y-148726666D01*
X211170000Y-148631428D01*
X211122380Y-148488571D01*
X211122380Y-148393333D01*
X211170000Y-148250476D01*
X211217619Y-148202857D01*
X212122380Y-147250476D02*
X212122380Y-147821904D01*
X212122380Y-147536190D02*
X211122380Y-147536190D01*
X211265238Y-147631428D01*
X211360476Y-147726666D01*
X211408095Y-147821904D01*
X211122380Y-146345714D02*
X211122380Y-146821904D01*
X211598571Y-146869523D01*
X211550952Y-146821904D01*
X211503333Y-146726666D01*
X211503333Y-146488571D01*
X211550952Y-146393333D01*
X211598571Y-146345714D01*
X211693809Y-146298095D01*
X211931904Y-146298095D01*
X212027142Y-146345714D01*
X212074761Y-146393333D01*
X212122380Y-146488571D01*
X212122380Y-146726666D01*
X212074761Y-146821904D01*
X212027142Y-146869523D01*
%TO.C,X1*%
X210252380Y-126519523D02*
X211252380Y-125852857D01*
X210252380Y-125852857D02*
X211252380Y-126519523D01*
X211252380Y-124948095D02*
X211252380Y-125519523D01*
X211252380Y-125233809D02*
X210252380Y-125233809D01*
X210395238Y-125329047D01*
X210490476Y-125424285D01*
X210538095Y-125519523D01*
%TO.C,C14*%
X91137142Y-109367142D02*
X91089523Y-109414761D01*
X90946666Y-109462380D01*
X90851428Y-109462380D01*
X90708571Y-109414761D01*
X90613333Y-109319523D01*
X90565714Y-109224285D01*
X90518095Y-109033809D01*
X90518095Y-108890952D01*
X90565714Y-108700476D01*
X90613333Y-108605238D01*
X90708571Y-108510000D01*
X90851428Y-108462380D01*
X90946666Y-108462380D01*
X91089523Y-108510000D01*
X91137142Y-108557619D01*
X92089523Y-109462380D02*
X91518095Y-109462380D01*
X91803809Y-109462380D02*
X91803809Y-108462380D01*
X91708571Y-108605238D01*
X91613333Y-108700476D01*
X91518095Y-108748095D01*
X92946666Y-108795714D02*
X92946666Y-109462380D01*
X92708571Y-108414761D02*
X92470476Y-109129047D01*
X93089523Y-109129047D01*
%TO.C,U1*%
X90678095Y-106622380D02*
X90678095Y-107431904D01*
X90725714Y-107527142D01*
X90773333Y-107574761D01*
X90868571Y-107622380D01*
X91059047Y-107622380D01*
X91154285Y-107574761D01*
X91201904Y-107527142D01*
X91249523Y-107431904D01*
X91249523Y-106622380D01*
X92249523Y-107622380D02*
X91678095Y-107622380D01*
X91963809Y-107622380D02*
X91963809Y-106622380D01*
X91868571Y-106765238D01*
X91773333Y-106860476D01*
X91678095Y-106908095D01*
%TO.C,R5*%
X89163333Y-103762380D02*
X88830000Y-103286190D01*
X88591904Y-103762380D02*
X88591904Y-102762380D01*
X88972857Y-102762380D01*
X89068095Y-102810000D01*
X89115714Y-102857619D01*
X89163333Y-102952857D01*
X89163333Y-103095714D01*
X89115714Y-103190952D01*
X89068095Y-103238571D01*
X88972857Y-103286190D01*
X88591904Y-103286190D01*
X90068095Y-102762380D02*
X89591904Y-102762380D01*
X89544285Y-103238571D01*
X89591904Y-103190952D01*
X89687142Y-103143333D01*
X89925238Y-103143333D01*
X90020476Y-103190952D01*
X90068095Y-103238571D01*
X90115714Y-103333809D01*
X90115714Y-103571904D01*
X90068095Y-103667142D01*
X90020476Y-103714761D01*
X89925238Y-103762380D01*
X89687142Y-103762380D01*
X89591904Y-103714761D01*
X89544285Y-103667142D01*
%TO.C,R4*%
X80513333Y-103662380D02*
X80180000Y-103186190D01*
X79941904Y-103662380D02*
X79941904Y-102662380D01*
X80322857Y-102662380D01*
X80418095Y-102710000D01*
X80465714Y-102757619D01*
X80513333Y-102852857D01*
X80513333Y-102995714D01*
X80465714Y-103090952D01*
X80418095Y-103138571D01*
X80322857Y-103186190D01*
X79941904Y-103186190D01*
X81370476Y-102995714D02*
X81370476Y-103662380D01*
X81132380Y-102614761D02*
X80894285Y-103329047D01*
X81513333Y-103329047D01*
%TO.C,J4*%
X210816666Y-108582380D02*
X210816666Y-109296666D01*
X210769047Y-109439523D01*
X210673809Y-109534761D01*
X210530952Y-109582380D01*
X210435714Y-109582380D01*
X211721428Y-108915714D02*
X211721428Y-109582380D01*
X211483333Y-108534761D02*
X211245238Y-109249047D01*
X211864285Y-109249047D01*
X150565714Y-108852380D02*
X150089523Y-108852380D01*
X150041904Y-109328571D01*
X150089523Y-109280952D01*
X150184761Y-109233333D01*
X150422857Y-109233333D01*
X150518095Y-109280952D01*
X150565714Y-109328571D01*
X150613333Y-109423809D01*
X150613333Y-109661904D01*
X150565714Y-109757142D01*
X150518095Y-109804761D01*
X150422857Y-109852380D01*
X150184761Y-109852380D01*
X150089523Y-109804761D01*
X150041904Y-109757142D01*
X151518095Y-108852380D02*
X151041904Y-108852380D01*
X150994285Y-109328571D01*
X151041904Y-109280952D01*
X151137142Y-109233333D01*
X151375238Y-109233333D01*
X151470476Y-109280952D01*
X151518095Y-109328571D01*
X151565714Y-109423809D01*
X151565714Y-109661904D01*
X151518095Y-109757142D01*
X151470476Y-109804761D01*
X151375238Y-109852380D01*
X151137142Y-109852380D01*
X151041904Y-109804761D01*
X150994285Y-109757142D01*
X151899047Y-108852380D02*
X152518095Y-108852380D01*
X152184761Y-109233333D01*
X152327619Y-109233333D01*
X152422857Y-109280952D01*
X152470476Y-109328571D01*
X152518095Y-109423809D01*
X152518095Y-109661904D01*
X152470476Y-109757142D01*
X152422857Y-109804761D01*
X152327619Y-109852380D01*
X152041904Y-109852380D01*
X151946666Y-109804761D01*
X151899047Y-109757142D01*
X153422857Y-108852380D02*
X152946666Y-108852380D01*
X152899047Y-109328571D01*
X152946666Y-109280952D01*
X153041904Y-109233333D01*
X153280000Y-109233333D01*
X153375238Y-109280952D01*
X153422857Y-109328571D01*
X153470476Y-109423809D01*
X153470476Y-109661904D01*
X153422857Y-109757142D01*
X153375238Y-109804761D01*
X153280000Y-109852380D01*
X153041904Y-109852380D01*
X152946666Y-109804761D01*
X152899047Y-109757142D01*
X154089523Y-108852380D02*
X154184761Y-108852380D01*
X154280000Y-108900000D01*
X154327619Y-108947619D01*
X154375238Y-109042857D01*
X154422857Y-109233333D01*
X154422857Y-109471428D01*
X154375238Y-109661904D01*
X154327619Y-109757142D01*
X154280000Y-109804761D01*
X154184761Y-109852380D01*
X154089523Y-109852380D01*
X153994285Y-109804761D01*
X153946666Y-109757142D01*
X153899047Y-109661904D01*
X153851428Y-109471428D01*
X153851428Y-109233333D01*
X153899047Y-109042857D01*
X153946666Y-108947619D01*
X153994285Y-108900000D01*
X154089523Y-108852380D01*
X154899047Y-109852380D02*
X155089523Y-109852380D01*
X155184761Y-109804761D01*
X155232380Y-109757142D01*
X155327619Y-109614285D01*
X155375238Y-109423809D01*
X155375238Y-109042857D01*
X155327619Y-108947619D01*
X155280000Y-108900000D01*
X155184761Y-108852380D01*
X154994285Y-108852380D01*
X154899047Y-108900000D01*
X154851428Y-108947619D01*
X154803809Y-109042857D01*
X154803809Y-109280952D01*
X154851428Y-109376190D01*
X154899047Y-109423809D01*
X154994285Y-109471428D01*
X155184761Y-109471428D01*
X155280000Y-109423809D01*
X155327619Y-109376190D01*
X155375238Y-109280952D01*
X155946666Y-109280952D02*
X155851428Y-109233333D01*
X155803809Y-109185714D01*
X155756190Y-109090476D01*
X155756190Y-109042857D01*
X155803809Y-108947619D01*
X155851428Y-108900000D01*
X155946666Y-108852380D01*
X156137142Y-108852380D01*
X156232380Y-108900000D01*
X156280000Y-108947619D01*
X156327619Y-109042857D01*
X156327619Y-109090476D01*
X156280000Y-109185714D01*
X156232380Y-109233333D01*
X156137142Y-109280952D01*
X155946666Y-109280952D01*
X155851428Y-109328571D01*
X155803809Y-109376190D01*
X155756190Y-109471428D01*
X155756190Y-109661904D01*
X155803809Y-109757142D01*
X155851428Y-109804761D01*
X155946666Y-109852380D01*
X156137142Y-109852380D01*
X156232380Y-109804761D01*
X156280000Y-109757142D01*
X156327619Y-109661904D01*
X156327619Y-109471428D01*
X156280000Y-109376190D01*
X156232380Y-109328571D01*
X156137142Y-109280952D01*
X156756190Y-109471428D02*
X157518095Y-109471428D01*
X158470476Y-108852380D02*
X157994285Y-108852380D01*
X157946666Y-109328571D01*
X157994285Y-109280952D01*
X158089523Y-109233333D01*
X158327619Y-109233333D01*
X158422857Y-109280952D01*
X158470476Y-109328571D01*
X158518095Y-109423809D01*
X158518095Y-109661904D01*
X158470476Y-109757142D01*
X158422857Y-109804761D01*
X158327619Y-109852380D01*
X158089523Y-109852380D01*
X157994285Y-109804761D01*
X157946666Y-109757142D01*
X102672342Y-105737142D02*
X102624723Y-105784761D01*
X102481866Y-105832380D01*
X102386628Y-105832380D01*
X102243771Y-105784761D01*
X102148533Y-105689523D01*
X102100914Y-105594285D01*
X102053295Y-105403809D01*
X102053295Y-105260952D01*
X102100914Y-105070476D01*
X102148533Y-104975238D01*
X102243771Y-104880000D01*
X102386628Y-104832380D01*
X102481866Y-104832380D01*
X102624723Y-104880000D01*
X102672342Y-104927619D01*
X103529485Y-105165714D02*
X103529485Y-105832380D01*
X103291390Y-104784761D02*
X103053295Y-105499047D01*
X103672342Y-105499047D01*
X104243771Y-104832380D02*
X104339009Y-104832380D01*
X104434247Y-104880000D01*
X104481866Y-104927619D01*
X104529485Y-105022857D01*
X104577104Y-105213333D01*
X104577104Y-105451428D01*
X104529485Y-105641904D01*
X104481866Y-105737142D01*
X104434247Y-105784761D01*
X104339009Y-105832380D01*
X104243771Y-105832380D01*
X104148533Y-105784761D01*
X104100914Y-105737142D01*
X104053295Y-105641904D01*
X104005676Y-105451428D01*
X104005676Y-105213333D01*
X104053295Y-105022857D01*
X104100914Y-104927619D01*
X104148533Y-104880000D01*
X104243771Y-104832380D01*
X102124723Y-100466666D02*
X102600914Y-100466666D01*
X102029485Y-100752380D02*
X102362819Y-99752380D01*
X102696152Y-100752380D01*
X103458057Y-100085714D02*
X103458057Y-100752380D01*
X103219961Y-99704761D02*
X102981866Y-100419047D01*
X103600914Y-100419047D01*
X104172342Y-99752380D02*
X104267580Y-99752380D01*
X104362819Y-99800000D01*
X104410438Y-99847619D01*
X104458057Y-99942857D01*
X104505676Y-100133333D01*
X104505676Y-100371428D01*
X104458057Y-100561904D01*
X104410438Y-100657142D01*
X104362819Y-100704761D01*
X104267580Y-100752380D01*
X104172342Y-100752380D01*
X104077104Y-100704761D01*
X104029485Y-100657142D01*
X103981866Y-100561904D01*
X103934247Y-100371428D01*
X103934247Y-100133333D01*
X103981866Y-99942857D01*
X104029485Y-99847619D01*
X104077104Y-99800000D01*
X104172342Y-99752380D01*
X205358133Y-105737142D02*
X205310514Y-105784761D01*
X205167657Y-105832380D01*
X205072419Y-105832380D01*
X204929561Y-105784761D01*
X204834323Y-105689523D01*
X204786704Y-105594285D01*
X204739085Y-105403809D01*
X204739085Y-105260952D01*
X204786704Y-105070476D01*
X204834323Y-104975238D01*
X204929561Y-104880000D01*
X205072419Y-104832380D01*
X205167657Y-104832380D01*
X205310514Y-104880000D01*
X205358133Y-104927619D01*
X206310514Y-105832380D02*
X205739085Y-105832380D01*
X206024800Y-105832380D02*
X206024800Y-104832380D01*
X205929561Y-104975238D01*
X205834323Y-105070476D01*
X205739085Y-105118095D01*
X204810514Y-100466666D02*
X205286704Y-100466666D01*
X204715276Y-100752380D02*
X205048609Y-99752380D01*
X205381942Y-100752380D01*
X206239085Y-100752380D02*
X205667657Y-100752380D01*
X205953371Y-100752380D02*
X205953371Y-99752380D01*
X205858133Y-99895238D01*
X205762895Y-99990476D01*
X205667657Y-100038095D01*
X203950000Y-99752380D02*
X203950000Y-99990476D01*
X203711904Y-99895238D02*
X203950000Y-99990476D01*
X204188095Y-99895238D01*
X203807142Y-100180952D02*
X203950000Y-99990476D01*
X204092857Y-100180952D01*
%TO.C,J2*%
X95102091Y-111683509D02*
X95816754Y-111683509D01*
X95959687Y-111731153D01*
X96054975Y-111826441D01*
X96102619Y-111969374D01*
X96102619Y-112064662D01*
X95197380Y-111254711D02*
X95149736Y-111207067D01*
X95102091Y-111111779D01*
X95102091Y-110873558D01*
X95149736Y-110778269D01*
X95197380Y-110730625D01*
X95292668Y-110682981D01*
X95387956Y-110682981D01*
X95530889Y-110730625D01*
X96102619Y-111302355D01*
X96102619Y-110682981D01*
%TO.C,C13*%
X58337142Y-134707142D02*
X58289523Y-134754761D01*
X58146666Y-134802380D01*
X58051428Y-134802380D01*
X57908571Y-134754761D01*
X57813333Y-134659523D01*
X57765714Y-134564285D01*
X57718095Y-134373809D01*
X57718095Y-134230952D01*
X57765714Y-134040476D01*
X57813333Y-133945238D01*
X57908571Y-133850000D01*
X58051428Y-133802380D01*
X58146666Y-133802380D01*
X58289523Y-133850000D01*
X58337142Y-133897619D01*
X59289523Y-134802380D02*
X58718095Y-134802380D01*
X59003809Y-134802380D02*
X59003809Y-133802380D01*
X58908571Y-133945238D01*
X58813333Y-134040476D01*
X58718095Y-134088095D01*
X59622857Y-133802380D02*
X60241904Y-133802380D01*
X59908571Y-134183333D01*
X60051428Y-134183333D01*
X60146666Y-134230952D01*
X60194285Y-134278571D01*
X60241904Y-134373809D01*
X60241904Y-134611904D01*
X60194285Y-134707142D01*
X60146666Y-134754761D01*
X60051428Y-134802380D01*
X59765714Y-134802380D01*
X59670476Y-134754761D01*
X59622857Y-134707142D01*
%TO.C,C12*%
X86077142Y-110682142D02*
X86029523Y-110729761D01*
X85886666Y-110777380D01*
X85791428Y-110777380D01*
X85648571Y-110729761D01*
X85553333Y-110634523D01*
X85505714Y-110539285D01*
X85458095Y-110348809D01*
X85458095Y-110205952D01*
X85505714Y-110015476D01*
X85553333Y-109920238D01*
X85648571Y-109825000D01*
X85791428Y-109777380D01*
X85886666Y-109777380D01*
X86029523Y-109825000D01*
X86077142Y-109872619D01*
X87029523Y-110777380D02*
X86458095Y-110777380D01*
X86743809Y-110777380D02*
X86743809Y-109777380D01*
X86648571Y-109920238D01*
X86553333Y-110015476D01*
X86458095Y-110063095D01*
X87410476Y-109872619D02*
X87458095Y-109825000D01*
X87553333Y-109777380D01*
X87791428Y-109777380D01*
X87886666Y-109825000D01*
X87934285Y-109872619D01*
X87981904Y-109967857D01*
X87981904Y-110063095D01*
X87934285Y-110205952D01*
X87362857Y-110777380D01*
X87981904Y-110777380D01*
%TO.C,C11*%
X85677142Y-149844857D02*
X85724761Y-149892476D01*
X85772380Y-150035333D01*
X85772380Y-150130571D01*
X85724761Y-150273428D01*
X85629523Y-150368666D01*
X85534285Y-150416285D01*
X85343809Y-150463904D01*
X85200952Y-150463904D01*
X85010476Y-150416285D01*
X84915238Y-150368666D01*
X84820000Y-150273428D01*
X84772380Y-150130571D01*
X84772380Y-150035333D01*
X84820000Y-149892476D01*
X84867619Y-149844857D01*
X85772380Y-148892476D02*
X85772380Y-149463904D01*
X85772380Y-149178190D02*
X84772380Y-149178190D01*
X84915238Y-149273428D01*
X85010476Y-149368666D01*
X85058095Y-149463904D01*
X85772380Y-147940095D02*
X85772380Y-148511523D01*
X85772380Y-148225809D02*
X84772380Y-148225809D01*
X84915238Y-148321047D01*
X85010476Y-148416285D01*
X85058095Y-148511523D01*
%TO.C,C10*%
X209227142Y-139647142D02*
X209179523Y-139694761D01*
X209036666Y-139742380D01*
X208941428Y-139742380D01*
X208798571Y-139694761D01*
X208703333Y-139599523D01*
X208655714Y-139504285D01*
X208608095Y-139313809D01*
X208608095Y-139170952D01*
X208655714Y-138980476D01*
X208703333Y-138885238D01*
X208798571Y-138790000D01*
X208941428Y-138742380D01*
X209036666Y-138742380D01*
X209179523Y-138790000D01*
X209227142Y-138837619D01*
X210179523Y-139742380D02*
X209608095Y-139742380D01*
X209893809Y-139742380D02*
X209893809Y-138742380D01*
X209798571Y-138885238D01*
X209703333Y-138980476D01*
X209608095Y-139028095D01*
X210798571Y-138742380D02*
X210893809Y-138742380D01*
X210989047Y-138790000D01*
X211036666Y-138837619D01*
X211084285Y-138932857D01*
X211131904Y-139123333D01*
X211131904Y-139361428D01*
X211084285Y-139551904D01*
X211036666Y-139647142D01*
X210989047Y-139694761D01*
X210893809Y-139742380D01*
X210798571Y-139742380D01*
X210703333Y-139694761D01*
X210655714Y-139647142D01*
X210608095Y-139551904D01*
X210560476Y-139361428D01*
X210560476Y-139123333D01*
X210608095Y-138932857D01*
X210655714Y-138837619D01*
X210703333Y-138790000D01*
X210798571Y-138742380D01*
%TO.C,C9*%
X207713333Y-132897142D02*
X207665714Y-132944761D01*
X207522857Y-132992380D01*
X207427619Y-132992380D01*
X207284761Y-132944761D01*
X207189523Y-132849523D01*
X207141904Y-132754285D01*
X207094285Y-132563809D01*
X207094285Y-132420952D01*
X207141904Y-132230476D01*
X207189523Y-132135238D01*
X207284761Y-132040000D01*
X207427619Y-131992380D01*
X207522857Y-131992380D01*
X207665714Y-132040000D01*
X207713333Y-132087619D01*
X208189523Y-132992380D02*
X208380000Y-132992380D01*
X208475238Y-132944761D01*
X208522857Y-132897142D01*
X208618095Y-132754285D01*
X208665714Y-132563809D01*
X208665714Y-132182857D01*
X208618095Y-132087619D01*
X208570476Y-132040000D01*
X208475238Y-131992380D01*
X208284761Y-131992380D01*
X208189523Y-132040000D01*
X208141904Y-132087619D01*
X208094285Y-132182857D01*
X208094285Y-132420952D01*
X208141904Y-132516190D01*
X208189523Y-132563809D01*
X208284761Y-132611428D01*
X208475238Y-132611428D01*
X208570476Y-132563809D01*
X208618095Y-132516190D01*
X208665714Y-132420952D01*
%TO.C,R2*%
X71062380Y-107851666D02*
X70586190Y-108185000D01*
X71062380Y-108423095D02*
X70062380Y-108423095D01*
X70062380Y-108042142D01*
X70110000Y-107946904D01*
X70157619Y-107899285D01*
X70252857Y-107851666D01*
X70395714Y-107851666D01*
X70490952Y-107899285D01*
X70538571Y-107946904D01*
X70586190Y-108042142D01*
X70586190Y-108423095D01*
X70157619Y-107470714D02*
X70110000Y-107423095D01*
X70062380Y-107327857D01*
X70062380Y-107089761D01*
X70110000Y-106994523D01*
X70157619Y-106946904D01*
X70252857Y-106899285D01*
X70348095Y-106899285D01*
X70490952Y-106946904D01*
X71062380Y-107518333D01*
X71062380Y-106899285D01*
%TO.C,R1*%
X78022380Y-107811666D02*
X77546190Y-108145000D01*
X78022380Y-108383095D02*
X77022380Y-108383095D01*
X77022380Y-108002142D01*
X77070000Y-107906904D01*
X77117619Y-107859285D01*
X77212857Y-107811666D01*
X77355714Y-107811666D01*
X77450952Y-107859285D01*
X77498571Y-107906904D01*
X77546190Y-108002142D01*
X77546190Y-108383095D01*
X78022380Y-106859285D02*
X78022380Y-107430714D01*
X78022380Y-107145000D02*
X77022380Y-107145000D01*
X77165238Y-107240238D01*
X77260476Y-107335476D01*
X77308095Y-107430714D01*
%TO.C,J1*%
D16*
X208756666Y-150784523D02*
X208756666Y-151691666D01*
X208696190Y-151873095D01*
X208575238Y-151994047D01*
X208393809Y-152054523D01*
X208272857Y-152054523D01*
X210026666Y-152054523D02*
X209300952Y-152054523D01*
X209663809Y-152054523D02*
X209663809Y-150784523D01*
X209542857Y-150965952D01*
X209421904Y-151086904D01*
X209300952Y-151147380D01*
%TO.C,C7*%
D10*
X59188333Y-114657142D02*
X59140714Y-114704761D01*
X58997857Y-114752380D01*
X58902619Y-114752380D01*
X58759761Y-114704761D01*
X58664523Y-114609523D01*
X58616904Y-114514285D01*
X58569285Y-114323809D01*
X58569285Y-114180952D01*
X58616904Y-113990476D01*
X58664523Y-113895238D01*
X58759761Y-113800000D01*
X58902619Y-113752380D01*
X58997857Y-113752380D01*
X59140714Y-113800000D01*
X59188333Y-113847619D01*
X59521666Y-113752380D02*
X60188333Y-113752380D01*
X59759761Y-114752380D01*
%TO.C,C8*%
X59388333Y-138197142D02*
X59340714Y-138244761D01*
X59197857Y-138292380D01*
X59102619Y-138292380D01*
X58959761Y-138244761D01*
X58864523Y-138149523D01*
X58816904Y-138054285D01*
X58769285Y-137863809D01*
X58769285Y-137720952D01*
X58816904Y-137530476D01*
X58864523Y-137435238D01*
X58959761Y-137340000D01*
X59102619Y-137292380D01*
X59197857Y-137292380D01*
X59340714Y-137340000D01*
X59388333Y-137387619D01*
X59959761Y-137720952D02*
X59864523Y-137673333D01*
X59816904Y-137625714D01*
X59769285Y-137530476D01*
X59769285Y-137482857D01*
X59816904Y-137387619D01*
X59864523Y-137340000D01*
X59959761Y-137292380D01*
X60150238Y-137292380D01*
X60245476Y-137340000D01*
X60293095Y-137387619D01*
X60340714Y-137482857D01*
X60340714Y-137530476D01*
X60293095Y-137625714D01*
X60245476Y-137673333D01*
X60150238Y-137720952D01*
X59959761Y-137720952D01*
X59864523Y-137768571D01*
X59816904Y-137816190D01*
X59769285Y-137911428D01*
X59769285Y-138101904D01*
X59816904Y-138197142D01*
X59864523Y-138244761D01*
X59959761Y-138292380D01*
X60150238Y-138292380D01*
X60245476Y-138244761D01*
X60293095Y-138197142D01*
X60340714Y-138101904D01*
X60340714Y-137911428D01*
X60293095Y-137816190D01*
X60245476Y-137768571D01*
X60150238Y-137720952D01*
%TO.C,C3*%
X97388333Y-135337142D02*
X97340714Y-135384761D01*
X97197857Y-135432380D01*
X97102619Y-135432380D01*
X96959761Y-135384761D01*
X96864523Y-135289523D01*
X96816904Y-135194285D01*
X96769285Y-135003809D01*
X96769285Y-134860952D01*
X96816904Y-134670476D01*
X96864523Y-134575238D01*
X96959761Y-134480000D01*
X97102619Y-134432380D01*
X97197857Y-134432380D01*
X97340714Y-134480000D01*
X97388333Y-134527619D01*
X97721666Y-134432380D02*
X98340714Y-134432380D01*
X98007380Y-134813333D01*
X98150238Y-134813333D01*
X98245476Y-134860952D01*
X98293095Y-134908571D01*
X98340714Y-135003809D01*
X98340714Y-135241904D01*
X98293095Y-135337142D01*
X98245476Y-135384761D01*
X98150238Y-135432380D01*
X97864523Y-135432380D01*
X97769285Y-135384761D01*
X97721666Y-135337142D01*
%TO.C,C1*%
X80297142Y-147278666D02*
X80344761Y-147326285D01*
X80392380Y-147469142D01*
X80392380Y-147564380D01*
X80344761Y-147707238D01*
X80249523Y-147802476D01*
X80154285Y-147850095D01*
X79963809Y-147897714D01*
X79820952Y-147897714D01*
X79630476Y-147850095D01*
X79535238Y-147802476D01*
X79440000Y-147707238D01*
X79392380Y-147564380D01*
X79392380Y-147469142D01*
X79440000Y-147326285D01*
X79487619Y-147278666D01*
X80392380Y-146326285D02*
X80392380Y-146897714D01*
X80392380Y-146612000D02*
X79392380Y-146612000D01*
X79535238Y-146707238D01*
X79630476Y-146802476D01*
X79678095Y-146897714D01*
%TO.C,C2*%
X82947142Y-147428666D02*
X82994761Y-147476285D01*
X83042380Y-147619142D01*
X83042380Y-147714380D01*
X82994761Y-147857238D01*
X82899523Y-147952476D01*
X82804285Y-148000095D01*
X82613809Y-148047714D01*
X82470952Y-148047714D01*
X82280476Y-148000095D01*
X82185238Y-147952476D01*
X82090000Y-147857238D01*
X82042380Y-147714380D01*
X82042380Y-147619142D01*
X82090000Y-147476285D01*
X82137619Y-147428666D01*
X82137619Y-147047714D02*
X82090000Y-147000095D01*
X82042380Y-146904857D01*
X82042380Y-146666761D01*
X82090000Y-146571523D01*
X82137619Y-146523904D01*
X82232857Y-146476285D01*
X82328095Y-146476285D01*
X82470952Y-146523904D01*
X83042380Y-147095333D01*
X83042380Y-146476285D01*
%TO.C,C5*%
X83447142Y-105351666D02*
X83494761Y-105399285D01*
X83542380Y-105542142D01*
X83542380Y-105637380D01*
X83494761Y-105780238D01*
X83399523Y-105875476D01*
X83304285Y-105923095D01*
X83113809Y-105970714D01*
X82970952Y-105970714D01*
X82780476Y-105923095D01*
X82685238Y-105875476D01*
X82590000Y-105780238D01*
X82542380Y-105637380D01*
X82542380Y-105542142D01*
X82590000Y-105399285D01*
X82637619Y-105351666D01*
X82542380Y-104446904D02*
X82542380Y-104923095D01*
X83018571Y-104970714D01*
X82970952Y-104923095D01*
X82923333Y-104827857D01*
X82923333Y-104589761D01*
X82970952Y-104494523D01*
X83018571Y-104446904D01*
X83113809Y-104399285D01*
X83351904Y-104399285D01*
X83447142Y-104446904D01*
X83494761Y-104494523D01*
X83542380Y-104589761D01*
X83542380Y-104827857D01*
X83494761Y-104923095D01*
X83447142Y-104970714D01*
%TO.C,C6*%
X81037142Y-105381666D02*
X81084761Y-105429285D01*
X81132380Y-105572142D01*
X81132380Y-105667380D01*
X81084761Y-105810238D01*
X80989523Y-105905476D01*
X80894285Y-105953095D01*
X80703809Y-106000714D01*
X80560952Y-106000714D01*
X80370476Y-105953095D01*
X80275238Y-105905476D01*
X80180000Y-105810238D01*
X80132380Y-105667380D01*
X80132380Y-105572142D01*
X80180000Y-105429285D01*
X80227619Y-105381666D01*
X80132380Y-104524523D02*
X80132380Y-104715000D01*
X80180000Y-104810238D01*
X80227619Y-104857857D01*
X80370476Y-104953095D01*
X80560952Y-105000714D01*
X80941904Y-105000714D01*
X81037142Y-104953095D01*
X81084761Y-104905476D01*
X81132380Y-104810238D01*
X81132380Y-104619761D01*
X81084761Y-104524523D01*
X81037142Y-104476904D01*
X80941904Y-104429285D01*
X80703809Y-104429285D01*
X80608571Y-104476904D01*
X80560952Y-104524523D01*
X80513333Y-104619761D01*
X80513333Y-104810238D01*
X80560952Y-104905476D01*
X80608571Y-104953095D01*
X80703809Y-105000714D01*
%TO.C,C4*%
X90707142Y-105411666D02*
X90754761Y-105459285D01*
X90802380Y-105602142D01*
X90802380Y-105697380D01*
X90754761Y-105840238D01*
X90659523Y-105935476D01*
X90564285Y-105983095D01*
X90373809Y-106030714D01*
X90230952Y-106030714D01*
X90040476Y-105983095D01*
X89945238Y-105935476D01*
X89850000Y-105840238D01*
X89802380Y-105697380D01*
X89802380Y-105602142D01*
X89850000Y-105459285D01*
X89897619Y-105411666D01*
X90135714Y-104554523D02*
X90802380Y-104554523D01*
X89754761Y-104792619D02*
X90469047Y-105030714D01*
X90469047Y-104411666D01*
%TD*%
M02*
