M48
; DRILL file {KiCad 5.1.9+dfsg1-1~bpo10+1} date Fri Apr 14 13:40:23 2023
; FORMAT={-:-/ absolute / inch / decimal}
; #@! TF.CreationDate,2023-04-14T13:40:23+02:00
; #@! TF.GenerationSoftware,Kicad,Pcbnew,5.1.9+dfsg1-1~bpo10+1
; #@! TF.FileFunction,Plated,1,4,PTH
FMAT,2
INCH
T1C0.0157
T2C0.0315
T3C0.0420
T4C0.0421
T5C0.1138
T6C0.1140
%
G90
G05
T1
X2.2561Y-4.5705
X2.2561Y-5.3705
X2.2689Y-5.1476
X2.2835Y-5.5906
X2.2835Y-5.7874
X2.2835Y-5.9843
X2.3752Y-5.1476
X2.4409Y-4.5705
X2.4409Y-5.3705
X2.4803Y-5.7874
X2.4803Y-5.9843
X2.6772Y-5.9843
X2.7102Y-4.1396
X2.9528Y-4.7705
X3.1102Y-4.1396
X3.1102Y-4.9705
X3.1102Y-5.8288
X3.1807Y-5.5409
X3.2102Y-4.1396
X3.2102Y-4.3307
X3.2102Y-5.8288
X3.2421Y-4.0059
X3.2602Y-4.6705
X3.3102Y-4.1396
X3.3102Y-5.8682
X3.35Y-4.3307
X3.3555Y-4.7339
X3.4504Y-4.0059
X3.5102Y-4.1396
X3.5102Y-4.3307
X3.5203Y-5.803
X3.7008Y-4.0524
X3.7008Y-4.3512
X3.8205Y-4.2913
X3.937Y-4.6705
X3.937Y-4.7705
X4.0354Y-4.4244
X8.0709Y-5.1181
X8.0709Y-5.315
X8.0709Y-5.5118
X8.1843Y-5.2602
X8.1843Y-5.437
X8.263Y-5.2602
X8.263Y-5.437
X8.2677Y-4.3307
X8.2677Y-4.5276
X8.2677Y-4.7244
X8.3764Y-5.8071
X8.6126Y-5.8071
T2
X2.6102Y-4.5705
X2.6102Y-4.6705
X2.6102Y-4.7705
X2.6102Y-4.8705
X2.6102Y-4.9705
X2.6102Y-5.0705
X2.6102Y-5.1705
X2.6102Y-5.2705
X2.6102Y-5.3705
X2.7102Y-4.4705
X2.7102Y-4.5705
X2.7102Y-4.6705
X2.7102Y-4.7705
X2.7102Y-4.8705
X2.7102Y-4.9705
X2.7102Y-5.0705
X2.7102Y-5.1705
X2.7102Y-5.2705
X2.7102Y-5.3705
X2.7102Y-5.4705
X2.8102Y-4.4705
X2.8102Y-4.5705
X2.8102Y-5.3705
X2.8102Y-5.4705
X2.9102Y-4.4705
X2.9102Y-4.5705
X2.9102Y-5.3705
X2.9102Y-5.4705
X3.0102Y-4.4705
X3.0102Y-4.5705
X3.0102Y-5.3705
X3.0102Y-5.4705
X3.1102Y-4.4705
X3.1102Y-4.5705
X3.1102Y-5.3705
X3.1102Y-5.4705
X3.2102Y-4.4705
X3.2102Y-4.5705
X3.2102Y-5.3705
X3.2102Y-5.4705
X3.3102Y-4.4705
X3.3102Y-4.5705
X3.3102Y-5.3705
X3.3102Y-5.4705
X3.4102Y-4.4705
X3.4102Y-4.5705
X3.4102Y-5.3705
X3.4102Y-5.4705
X3.5102Y-4.4705
X3.5102Y-4.5705
X3.5102Y-4.6705
X3.5102Y-4.7705
X3.5102Y-4.8705
X3.5102Y-4.9705
X3.5102Y-5.0705
X3.5102Y-5.1705
X3.5102Y-5.2705
X3.5102Y-5.3705
X3.5102Y-5.4705
X3.6102Y-4.5705
X3.6102Y-4.6705
X3.6102Y-4.7705
X3.6102Y-4.8705
X3.6102Y-4.9705
X3.6102Y-5.0705
X3.6102Y-5.1705
X3.6102Y-5.2705
X3.6102Y-5.3705
X8.4402Y-5.015
X8.4402Y-5.315
X8.4402Y-5.615
X8.7402Y-5.015
X8.7402Y-5.315
X8.7402Y-5.615
T3
X4.1295Y-3.9488
X4.1295Y-4.0488
X4.1295Y-4.1488
X4.2295Y-3.9488
X4.2295Y-4.0488
X4.2295Y-4.1488
X4.3295Y-3.9488
X4.3295Y-4.0488
X4.3295Y-4.1488
X4.4295Y-3.9488
X4.4295Y-4.0488
X4.4295Y-4.1488
X4.5295Y-3.9488
X4.5295Y-4.0488
X4.5295Y-4.1488
X4.6295Y-3.9488
X4.6295Y-4.0488
X4.6295Y-4.1488
X4.7295Y-3.9488
X4.7295Y-4.0488
X4.7295Y-4.1488
X4.8295Y-3.9488
X4.8295Y-4.0488
X4.8295Y-4.1488
X4.9295Y-3.9488
X4.9295Y-4.0488
X4.9295Y-4.1488
X5.0295Y-3.9488
X5.0295Y-4.0488
X5.0295Y-4.1488
X5.1295Y-3.9488
X5.1295Y-4.0488
X5.1295Y-4.1488
X5.2295Y-3.9488
X5.2295Y-4.0488
X5.2295Y-4.1488
X5.3295Y-3.9488
X5.3295Y-4.0488
X5.3295Y-4.1488
X5.4295Y-3.9488
X5.4295Y-4.0488
X5.4295Y-4.1488
X5.5295Y-3.9488
X5.5295Y-4.0488
X5.5295Y-4.1488
X5.6295Y-3.9488
X5.6295Y-4.0488
X5.6295Y-4.1488
X5.7295Y-3.9488
X5.7295Y-4.0488
X5.7295Y-4.1488
X5.8295Y-3.9488
X5.8295Y-4.0488
X5.8295Y-4.1488
X5.9295Y-3.9488
X5.9295Y-4.0488
X5.9295Y-4.1488
X6.0295Y-3.9488
X6.0295Y-4.0488
X6.0295Y-4.1488
X6.1295Y-3.9488
X6.1295Y-4.0488
X6.1295Y-4.1488
X6.2295Y-3.9488
X6.2295Y-4.0488
X6.2295Y-4.1488
X6.3295Y-3.9488
X6.3295Y-4.0488
X6.3295Y-4.1488
X6.4295Y-3.9488
X6.4295Y-4.0488
X6.4295Y-4.1488
X6.5295Y-3.9488
X6.5295Y-4.0488
X6.5295Y-4.1488
X6.6295Y-3.9488
X6.6295Y-4.0488
X6.6295Y-4.1488
X6.7295Y-3.9488
X6.7295Y-4.0488
X6.7295Y-4.1488
X6.8295Y-3.9488
X6.8295Y-4.0488
X6.8295Y-4.1488
X6.9295Y-3.9488
X6.9295Y-4.0488
X6.9295Y-4.1488
X7.0295Y-3.9488
X7.0295Y-4.0488
X7.0295Y-4.1488
X7.1295Y-3.9488
X7.1295Y-4.0488
X7.1295Y-4.1488
X7.2295Y-3.9488
X7.2295Y-4.0488
X7.2295Y-4.1488
X7.3295Y-3.9488
X7.3295Y-4.0488
X7.3295Y-4.1488
X7.4295Y-3.9488
X7.4295Y-4.0488
X7.4295Y-4.1488
X7.5295Y-3.9488
X7.5295Y-4.0488
X7.5295Y-4.1488
X7.6295Y-3.9488
X7.6295Y-4.0488
X7.6295Y-4.1488
X7.7295Y-3.9488
X7.7295Y-4.0488
X7.7295Y-4.1488
X7.8295Y-3.9488
X7.8295Y-4.0488
X7.8295Y-4.1488
X7.9295Y-3.9488
X7.9295Y-4.0488
X7.9295Y-4.1488
X8.0295Y-3.9488
X8.0295Y-4.0488
X8.0295Y-4.1488
T4
X3.974Y-5.7055
X3.974Y-5.8055
X3.974Y-5.9055
X4.074Y-5.7055
X4.074Y-5.8055
X4.074Y-5.9055
X4.174Y-5.7055
X4.174Y-5.8055
X4.174Y-5.9055
X4.274Y-5.7055
X4.274Y-5.8055
X4.274Y-5.9055
X4.374Y-5.7055
X4.374Y-5.8055
X4.374Y-5.9055
X4.474Y-5.7055
X4.474Y-5.8055
X4.474Y-5.9055
X4.574Y-5.7055
X4.574Y-5.8055
X4.574Y-5.9055
X4.674Y-5.7055
X4.674Y-5.8055
X4.674Y-5.9055
X4.774Y-5.7055
X4.774Y-5.8055
X4.774Y-5.9055
X4.874Y-5.7055
X4.874Y-5.8055
X4.874Y-5.9055
X4.974Y-5.7055
X4.974Y-5.8055
X4.974Y-5.9055
X5.074Y-5.7055
X5.074Y-5.8055
X5.074Y-5.9055
X5.174Y-5.7055
X5.174Y-5.8055
X5.174Y-5.9055
X5.274Y-5.7055
X5.274Y-5.8055
X5.274Y-5.9055
X5.374Y-5.7055
X5.374Y-5.8055
X5.374Y-5.9055
X5.474Y-5.7055
X5.474Y-5.8055
X5.474Y-5.9055
X5.574Y-5.7055
X5.574Y-5.8055
X5.574Y-5.9055
X5.674Y-5.7055
X5.674Y-5.8055
X5.674Y-5.9055
X5.774Y-5.7055
X5.774Y-5.8055
X5.774Y-5.9055
X5.874Y-5.7055
X5.874Y-5.8055
X5.874Y-5.9055
X5.974Y-5.7055
X5.974Y-5.8055
X5.974Y-5.9055
X6.074Y-5.7055
X6.074Y-5.8055
X6.074Y-5.9055
X6.174Y-5.7055
X6.174Y-5.8055
X6.174Y-5.9055
X6.274Y-5.7055
X6.274Y-5.8055
X6.274Y-5.9055
X6.374Y-5.7055
X6.374Y-5.8055
X6.374Y-5.9055
X6.474Y-5.7055
X6.474Y-5.8055
X6.474Y-5.9055
X6.574Y-5.7055
X6.574Y-5.8055
X6.574Y-5.9055
X6.674Y-5.7055
X6.674Y-5.8055
X6.674Y-5.9055
X6.774Y-5.7055
X6.774Y-5.8055
X6.774Y-5.9055
X6.874Y-5.7055
X6.874Y-5.8055
X6.874Y-5.9055
X6.974Y-5.7055
X6.974Y-5.8055
X6.974Y-5.9055
X7.074Y-5.7055
X7.074Y-5.8055
X7.074Y-5.9055
X7.174Y-5.7055
X7.174Y-5.8055
X7.174Y-5.9055
X7.274Y-5.7055
X7.274Y-5.8055
X7.274Y-5.9055
X7.374Y-5.7055
X7.374Y-5.8055
X7.374Y-5.9055
X7.474Y-5.7055
X7.474Y-5.8055
X7.474Y-5.9055
X7.574Y-5.7055
X7.574Y-5.8055
X7.574Y-5.9055
X7.674Y-5.7055
X7.674Y-5.8055
X7.674Y-5.9055
X7.774Y-5.7055
X7.774Y-5.8055
X7.774Y-5.9055
X7.874Y-5.7055
X7.874Y-5.8055
X7.874Y-5.9055
T5
X3.774Y-6.0055
X8.074Y-6.0055
T6
X3.908Y-4.0368
X8.251Y-4.0368
T0
M30
