%TF.GenerationSoftware,KiCad,Pcbnew,5.1.9+dfsg1-1~bpo10+1*%
%TF.CreationDate,2024-04-11T15:53:54+02:00*%
%TF.ProjectId,IIsiPDSAdapter,49497369-5044-4534-9164-61707465722e,rev?*%
%TF.SameCoordinates,Original*%
%TF.FileFunction,Legend,Bot*%
%TF.FilePolarity,Positive*%
%FSLAX46Y46*%
G04 Gerber Fmt 4.6, Leading zero omitted, Abs format (unit mm)*
G04 Created by KiCad (PCBNEW 5.1.9+dfsg1-1~bpo10+1) date 2024-04-11 15:53:54*
%MOMM*%
%LPD*%
G01*
G04 APERTURE LIST*
%ADD10C,0.120000*%
%ADD11C,0.150000*%
G04 APERTURE END LIST*
D10*
%TO.C,J4*%
X222883000Y-125800000D02*
G75*
G03*
X222883000Y-125800000I-381000J0D01*
G01*
%TO.C,J3*%
X212713000Y-100300000D02*
G75*
G03*
X212713000Y-100300000I-381000J0D01*
G01*
%TO.C,J4*%
D11*
X112842342Y-131237142D02*
X112794723Y-131284761D01*
X112651866Y-131332380D01*
X112556628Y-131332380D01*
X112413771Y-131284761D01*
X112318533Y-131189523D01*
X112270914Y-131094285D01*
X112223295Y-130903809D01*
X112223295Y-130760952D01*
X112270914Y-130570476D01*
X112318533Y-130475238D01*
X112413771Y-130380000D01*
X112556628Y-130332380D01*
X112651866Y-130332380D01*
X112794723Y-130380000D01*
X112842342Y-130427619D01*
X113699485Y-130665714D02*
X113699485Y-131332380D01*
X113461390Y-130284761D02*
X113223295Y-130999047D01*
X113842342Y-130999047D01*
X114413771Y-130332380D02*
X114509009Y-130332380D01*
X114604247Y-130380000D01*
X114651866Y-130427619D01*
X114699485Y-130522857D01*
X114747104Y-130713333D01*
X114747104Y-130951428D01*
X114699485Y-131141904D01*
X114651866Y-131237142D01*
X114604247Y-131284761D01*
X114509009Y-131332380D01*
X114413771Y-131332380D01*
X114318533Y-131284761D01*
X114270914Y-131237142D01*
X114223295Y-131141904D01*
X114175676Y-130951428D01*
X114175676Y-130713333D01*
X114223295Y-130522857D01*
X114270914Y-130427619D01*
X114318533Y-130380000D01*
X114413771Y-130332380D01*
X112294723Y-125966666D02*
X112770914Y-125966666D01*
X112199485Y-126252380D02*
X112532819Y-125252380D01*
X112866152Y-126252380D01*
X113628057Y-125585714D02*
X113628057Y-126252380D01*
X113389961Y-125204761D02*
X113151866Y-125919047D01*
X113770914Y-125919047D01*
X114342342Y-125252380D02*
X114437580Y-125252380D01*
X114532819Y-125300000D01*
X114580438Y-125347619D01*
X114628057Y-125442857D01*
X114675676Y-125633333D01*
X114675676Y-125871428D01*
X114628057Y-126061904D01*
X114580438Y-126157142D01*
X114532819Y-126204761D01*
X114437580Y-126252380D01*
X114342342Y-126252380D01*
X114247104Y-126204761D01*
X114199485Y-126157142D01*
X114151866Y-126061904D01*
X114104247Y-125871428D01*
X114104247Y-125633333D01*
X114151866Y-125442857D01*
X114199485Y-125347619D01*
X114247104Y-125300000D01*
X114342342Y-125252380D01*
X215528133Y-131237142D02*
X215480514Y-131284761D01*
X215337657Y-131332380D01*
X215242419Y-131332380D01*
X215099561Y-131284761D01*
X215004323Y-131189523D01*
X214956704Y-131094285D01*
X214909085Y-130903809D01*
X214909085Y-130760952D01*
X214956704Y-130570476D01*
X215004323Y-130475238D01*
X215099561Y-130380000D01*
X215242419Y-130332380D01*
X215337657Y-130332380D01*
X215480514Y-130380000D01*
X215528133Y-130427619D01*
X216480514Y-131332380D02*
X215909085Y-131332380D01*
X216194800Y-131332380D02*
X216194800Y-130332380D01*
X216099561Y-130475238D01*
X216004323Y-130570476D01*
X215909085Y-130618095D01*
X214980514Y-125966666D02*
X215456704Y-125966666D01*
X214885276Y-126252380D02*
X215218609Y-125252380D01*
X215551942Y-126252380D01*
X216409085Y-126252380D02*
X215837657Y-126252380D01*
X216123371Y-126252380D02*
X216123371Y-125252380D01*
X216028133Y-125395238D01*
X215932895Y-125490476D01*
X215837657Y-125538095D01*
%TO.C,J3*%
X102672342Y-105737142D02*
X102624723Y-105784761D01*
X102481866Y-105832380D01*
X102386628Y-105832380D01*
X102243771Y-105784761D01*
X102148533Y-105689523D01*
X102100914Y-105594285D01*
X102053295Y-105403809D01*
X102053295Y-105260952D01*
X102100914Y-105070476D01*
X102148533Y-104975238D01*
X102243771Y-104880000D01*
X102386628Y-104832380D01*
X102481866Y-104832380D01*
X102624723Y-104880000D01*
X102672342Y-104927619D01*
X103529485Y-105165714D02*
X103529485Y-105832380D01*
X103291390Y-104784761D02*
X103053295Y-105499047D01*
X103672342Y-105499047D01*
X104243771Y-104832380D02*
X104339009Y-104832380D01*
X104434247Y-104880000D01*
X104481866Y-104927619D01*
X104529485Y-105022857D01*
X104577104Y-105213333D01*
X104577104Y-105451428D01*
X104529485Y-105641904D01*
X104481866Y-105737142D01*
X104434247Y-105784761D01*
X104339009Y-105832380D01*
X104243771Y-105832380D01*
X104148533Y-105784761D01*
X104100914Y-105737142D01*
X104053295Y-105641904D01*
X104005676Y-105451428D01*
X104005676Y-105213333D01*
X104053295Y-105022857D01*
X104100914Y-104927619D01*
X104148533Y-104880000D01*
X104243771Y-104832380D01*
X102124723Y-100466666D02*
X102600914Y-100466666D01*
X102029485Y-100752380D02*
X102362819Y-99752380D01*
X102696152Y-100752380D01*
X103458057Y-100085714D02*
X103458057Y-100752380D01*
X103219961Y-99704761D02*
X102981866Y-100419047D01*
X103600914Y-100419047D01*
X104172342Y-99752380D02*
X104267580Y-99752380D01*
X104362819Y-99800000D01*
X104410438Y-99847619D01*
X104458057Y-99942857D01*
X104505676Y-100133333D01*
X104505676Y-100371428D01*
X104458057Y-100561904D01*
X104410438Y-100657142D01*
X104362819Y-100704761D01*
X104267580Y-100752380D01*
X104172342Y-100752380D01*
X104077104Y-100704761D01*
X104029485Y-100657142D01*
X103981866Y-100561904D01*
X103934247Y-100371428D01*
X103934247Y-100133333D01*
X103981866Y-99942857D01*
X104029485Y-99847619D01*
X104077104Y-99800000D01*
X104172342Y-99752380D01*
X205358133Y-105737142D02*
X205310514Y-105784761D01*
X205167657Y-105832380D01*
X205072419Y-105832380D01*
X204929561Y-105784761D01*
X204834323Y-105689523D01*
X204786704Y-105594285D01*
X204739085Y-105403809D01*
X204739085Y-105260952D01*
X204786704Y-105070476D01*
X204834323Y-104975238D01*
X204929561Y-104880000D01*
X205072419Y-104832380D01*
X205167657Y-104832380D01*
X205310514Y-104880000D01*
X205358133Y-104927619D01*
X206310514Y-105832380D02*
X205739085Y-105832380D01*
X206024800Y-105832380D02*
X206024800Y-104832380D01*
X205929561Y-104975238D01*
X205834323Y-105070476D01*
X205739085Y-105118095D01*
X204810514Y-100466666D02*
X205286704Y-100466666D01*
X204715276Y-100752380D02*
X205048609Y-99752380D01*
X205381942Y-100752380D01*
X206239085Y-100752380D02*
X205667657Y-100752380D01*
X205953371Y-100752380D02*
X205953371Y-99752380D01*
X205858133Y-99895238D01*
X205762895Y-99990476D01*
X205667657Y-100038095D01*
%TD*%
M02*
