M48
; DRILL file {KiCad 5.1.9+dfsg1-1~bpo10+1} date Mon Jan  8 18:09:55 2024
; FORMAT={-:-/ absolute / inch / decimal}
; #@! TF.CreationDate,2024-01-08T18:09:55+01:00
; #@! TF.GenerationSoftware,Kicad,Pcbnew,5.1.9+dfsg1-1~bpo10+1
; #@! TF.FileFunction,Plated,1,4,PTH
FMAT,2
INCH
T1C0.0118
T2C0.0157
T3C0.0300
T4C0.0315
T5C0.0420
T6C0.0421
T7C0.1138
T8C0.1140
%
G90
G05
T1
X2.8898Y-4.3504
X3.4449Y-5.689
X3.4646Y-5.6693
X3.5433Y-5.7283
X3.622Y-5.7087
X4.3406Y-5.1772
X4.3602Y-5.1575
X4.3799Y-5.1378
T2
X2.3384Y-5.0205
X2.3384Y-5.1705
X2.3404Y-4.8705
X2.3404Y-5.2705
X2.3531Y-4.439
X2.3984Y-4.685
X2.4594Y-5.3205
X2.4594Y-5.5118
X2.5295Y-4.5205
X2.5295Y-4.6205
X2.5295Y-4.8705
X2.5295Y-5.2705
X2.7165Y-4.2648
X2.8248Y-4.2618
X3.0512Y-4.2008
X3.0512Y-4.2618
X3.1091Y-5.8445
X3.1091Y-6.0217
X3.1878Y-5.8445
X3.1878Y-6.0217
X3.2185Y-5.5315
X3.2421Y-4.0059
X3.248Y-4.2648
X3.248Y-4.3258
X3.3602Y-5.0205
X3.376Y-5.8583
X3.376Y-5.9646
X3.4102Y-5.5185
X3.4504Y-4.0059
X3.4744Y-4.2648
X3.4744Y-4.3258
X3.5827Y-5.6496
X3.6594Y-4.9705
X3.7795Y-5.1378
X4.0157Y-6.0236
X4.4094Y-6.0236
X4.8031Y-6.0236
X5.1969Y-6.0236
X5.5906Y-6.0236
X5.9843Y-6.0236
X6.378Y-6.0236
X6.7717Y-6.0236
X7.1654Y-6.0236
X7.5591Y-6.0236
X8.3465Y-4.3307
X8.3465Y-5.5118
X8.3465Y-5.9055
X8.7402Y-3.937
X8.7402Y-4.3307
X8.7402Y-5.5118
X8.7402Y-5.9055
T3
X2.6602Y-4.5205
X2.6602Y-4.6205
X2.6602Y-4.7205
X2.6602Y-4.8205
X2.6602Y-4.9205
X2.6602Y-5.0205
X2.6602Y-5.1205
X2.6602Y-5.2205
X2.6602Y-5.3205
X2.6602Y-5.4205
X2.7602Y-4.5205
X2.7602Y-4.6205
X2.7602Y-4.7205
X2.7602Y-4.8205
X2.7602Y-4.9205
X2.7602Y-5.0205
X2.7602Y-5.1205
X2.7602Y-5.2205
X2.7602Y-5.3205
X2.7602Y-5.4205
X2.8602Y-4.5205
X2.8602Y-4.6205
X2.8602Y-4.7205
X2.8602Y-5.2205
X2.8602Y-5.3205
X2.8602Y-5.4205
X2.9602Y-4.5205
X2.9602Y-4.6205
X2.9602Y-5.3205
X2.9602Y-5.4205
X3.0602Y-4.5205
X3.0602Y-4.6205
X3.0602Y-5.3205
X3.0602Y-5.4205
X3.1602Y-4.5205
X3.1602Y-4.6205
X3.1602Y-5.3205
X3.1602Y-5.4205
X3.2602Y-4.5205
X3.2602Y-4.6205
X3.2602Y-5.3205
X3.2602Y-5.4205
X3.3602Y-4.5205
X3.3602Y-4.6205
X3.3602Y-4.7205
X3.3602Y-5.2205
X3.3602Y-5.3205
X3.3602Y-5.4205
X3.4602Y-4.5205
X3.4602Y-4.6205
X3.4602Y-4.7205
X3.4602Y-4.8205
X3.4602Y-4.9205
X3.4602Y-5.0205
X3.4602Y-5.1205
X3.4602Y-5.2205
X3.4602Y-5.3205
X3.4602Y-5.4205
X3.5602Y-4.5205
X3.5602Y-4.6205
X3.5602Y-4.7205
X3.5602Y-4.8205
X3.5602Y-4.9205
X3.5602Y-5.0205
X3.5602Y-5.1205
X3.5602Y-5.2205
X3.5602Y-5.3205
X3.5602Y-5.4205
T4
X2.3228Y-5.6646
X2.3228Y-5.9646
X2.6228Y-5.6646
X2.6228Y-5.9646
X2.9228Y-5.6646
X2.9228Y-5.9646
T5
X4.1295Y-3.9488
X4.1295Y-4.0488
X4.1295Y-4.1488
X4.2295Y-3.9488
X4.2295Y-4.0488
X4.2295Y-4.1488
X4.3295Y-3.9488
X4.3295Y-4.0488
X4.3295Y-4.1488
X4.4295Y-3.9488
X4.4295Y-4.0488
X4.4295Y-4.1488
X4.5295Y-3.9488
X4.5295Y-4.0488
X4.5295Y-4.1488
X4.5299Y-4.9528
X4.5299Y-5.0528
X4.5299Y-5.1528
X4.6295Y-3.9488
X4.6295Y-4.0488
X4.6295Y-4.1488
X4.6299Y-4.9528
X4.6299Y-5.0528
X4.6299Y-5.1528
X4.7295Y-3.9488
X4.7295Y-4.0488
X4.7295Y-4.1488
X4.7299Y-4.9528
X4.7299Y-5.0528
X4.7299Y-5.1528
X4.8295Y-3.9488
X4.8295Y-4.0488
X4.8295Y-4.1488
X4.8299Y-4.9528
X4.8299Y-5.0528
X4.8299Y-5.1528
X4.9295Y-3.9488
X4.9295Y-4.0488
X4.9295Y-4.1488
X4.9299Y-4.9528
X4.9299Y-5.0528
X4.9299Y-5.1528
X5.0295Y-3.9488
X5.0295Y-4.0488
X5.0295Y-4.1488
X5.0299Y-4.9528
X5.0299Y-5.0528
X5.0299Y-5.1528
X5.1295Y-3.9488
X5.1295Y-4.0488
X5.1295Y-4.1488
X5.1299Y-4.9528
X5.1299Y-5.0528
X5.1299Y-5.1528
X5.2295Y-3.9488
X5.2295Y-4.0488
X5.2295Y-4.1488
X5.2299Y-4.9528
X5.2299Y-5.0528
X5.2299Y-5.1528
X5.3295Y-3.9488
X5.3295Y-4.0488
X5.3295Y-4.1488
X5.3299Y-4.9528
X5.3299Y-5.0528
X5.3299Y-5.1528
X5.4295Y-3.9488
X5.4295Y-4.0488
X5.4295Y-4.1488
X5.4299Y-4.9528
X5.4299Y-5.0528
X5.4299Y-5.1528
X5.5295Y-3.9488
X5.5295Y-4.0488
X5.5295Y-4.1488
X5.5299Y-4.9528
X5.5299Y-5.0528
X5.5299Y-5.1528
X5.6295Y-3.9488
X5.6295Y-4.0488
X5.6295Y-4.1488
X5.6299Y-4.9528
X5.6299Y-5.0528
X5.6299Y-5.1528
X5.7295Y-3.9488
X5.7295Y-4.0488
X5.7295Y-4.1488
X5.7299Y-4.9528
X5.7299Y-5.0528
X5.7299Y-5.1528
X5.8295Y-3.9488
X5.8295Y-4.0488
X5.8295Y-4.1488
X5.8299Y-4.9528
X5.8299Y-5.0528
X5.8299Y-5.1528
X5.9295Y-3.9488
X5.9295Y-4.0488
X5.9295Y-4.1488
X5.9299Y-4.9528
X5.9299Y-5.0528
X5.9299Y-5.1528
X6.0295Y-3.9488
X6.0295Y-4.0488
X6.0295Y-4.1488
X6.0299Y-4.9528
X6.0299Y-5.0528
X6.0299Y-5.1528
X6.1295Y-3.9488
X6.1295Y-4.0488
X6.1295Y-4.1488
X6.1299Y-4.9528
X6.1299Y-5.0528
X6.1299Y-5.1528
X6.2295Y-3.9488
X6.2295Y-4.0488
X6.2295Y-4.1488
X6.2299Y-4.9528
X6.2299Y-5.0528
X6.2299Y-5.1528
X6.3295Y-3.9488
X6.3295Y-4.0488
X6.3295Y-4.1488
X6.3299Y-4.9528
X6.3299Y-5.0528
X6.3299Y-5.1528
X6.4295Y-3.9488
X6.4295Y-4.0488
X6.4295Y-4.1488
X6.4299Y-4.9528
X6.4299Y-5.0528
X6.4299Y-5.1528
X6.5295Y-3.9488
X6.5295Y-4.0488
X6.5295Y-4.1488
X6.5299Y-4.9528
X6.5299Y-5.0528
X6.5299Y-5.1528
X6.6295Y-3.9488
X6.6295Y-4.0488
X6.6295Y-4.1488
X6.6299Y-4.9528
X6.6299Y-5.0528
X6.6299Y-5.1528
X6.7295Y-3.9488
X6.7295Y-4.0488
X6.7295Y-4.1488
X6.7299Y-4.9528
X6.7299Y-5.0528
X6.7299Y-5.1528
X6.8295Y-3.9488
X6.8295Y-4.0488
X6.8295Y-4.1488
X6.8299Y-4.9528
X6.8299Y-5.0528
X6.8299Y-5.1528
X6.9295Y-3.9488
X6.9295Y-4.0488
X6.9295Y-4.1488
X6.9299Y-4.9528
X6.9299Y-5.0528
X6.9299Y-5.1528
X7.0295Y-3.9488
X7.0295Y-4.0488
X7.0295Y-4.1488
X7.0299Y-4.9528
X7.0299Y-5.0528
X7.0299Y-5.1528
X7.1295Y-3.9488
X7.1295Y-4.0488
X7.1295Y-4.1488
X7.1299Y-4.9528
X7.1299Y-5.0528
X7.1299Y-5.1528
X7.2295Y-3.9488
X7.2295Y-4.0488
X7.2295Y-4.1488
X7.2299Y-4.9528
X7.2299Y-5.0528
X7.2299Y-5.1528
X7.3295Y-3.9488
X7.3295Y-4.0488
X7.3295Y-4.1488
X7.3299Y-4.9528
X7.3299Y-5.0528
X7.3299Y-5.1528
X7.4295Y-3.9488
X7.4295Y-4.0488
X7.4295Y-4.1488
X7.4299Y-4.9528
X7.4299Y-5.0528
X7.4299Y-5.1528
X7.5295Y-3.9488
X7.5295Y-4.0488
X7.5295Y-4.1488
X7.5299Y-4.9528
X7.5299Y-5.0528
X7.5299Y-5.1528
X7.6295Y-3.9488
X7.6295Y-4.0488
X7.6295Y-4.1488
X7.6299Y-4.9528
X7.6299Y-5.0528
X7.6299Y-5.1528
X7.7295Y-3.9488
X7.7295Y-4.0488
X7.7295Y-4.1488
X7.7299Y-4.9528
X7.7299Y-5.0528
X7.7299Y-5.1528
X7.8295Y-3.9488
X7.8295Y-4.0488
X7.8295Y-4.1488
X7.8299Y-4.9528
X7.8299Y-5.0528
X7.8299Y-5.1528
X7.9295Y-3.9488
X7.9295Y-4.0488
X7.9295Y-4.1488
X7.9299Y-4.9528
X7.9299Y-5.0528
X7.9299Y-5.1528
X8.0295Y-3.9488
X8.0295Y-4.0488
X8.0295Y-4.1488
X8.0299Y-4.9528
X8.0299Y-5.0528
X8.0299Y-5.1528
X8.1299Y-4.9528
X8.1299Y-5.0528
X8.1299Y-5.1528
X8.2299Y-4.9528
X8.2299Y-5.0528
X8.2299Y-5.1528
X8.3299Y-4.9528
X8.3299Y-5.0528
X8.3299Y-5.1528
X8.4299Y-4.9528
X8.4299Y-5.0528
X8.4299Y-5.1528
T6
X3.974Y-5.7055
X3.974Y-5.8055
X3.974Y-5.9055
X4.074Y-5.7055
X4.074Y-5.8055
X4.074Y-5.9055
X4.174Y-5.7055
X4.174Y-5.8055
X4.174Y-5.9055
X4.274Y-5.7055
X4.274Y-5.8055
X4.274Y-5.9055
X4.374Y-5.7055
X4.374Y-5.8055
X4.374Y-5.9055
X4.474Y-5.7055
X4.474Y-5.8055
X4.474Y-5.9055
X4.574Y-5.7055
X4.574Y-5.8055
X4.574Y-5.9055
X4.674Y-5.7055
X4.674Y-5.8055
X4.674Y-5.9055
X4.774Y-5.7055
X4.774Y-5.8055
X4.774Y-5.9055
X4.874Y-5.7055
X4.874Y-5.8055
X4.874Y-5.9055
X4.974Y-5.7055
X4.974Y-5.8055
X4.974Y-5.9055
X5.074Y-5.7055
X5.074Y-5.8055
X5.074Y-5.9055
X5.174Y-5.7055
X5.174Y-5.8055
X5.174Y-5.9055
X5.274Y-5.7055
X5.274Y-5.8055
X5.274Y-5.9055
X5.374Y-5.7055
X5.374Y-5.8055
X5.374Y-5.9055
X5.474Y-5.7055
X5.474Y-5.8055
X5.474Y-5.9055
X5.574Y-5.7055
X5.574Y-5.8055
X5.574Y-5.9055
X5.674Y-5.7055
X5.674Y-5.8055
X5.674Y-5.9055
X5.774Y-5.7055
X5.774Y-5.8055
X5.774Y-5.9055
X5.874Y-5.7055
X5.874Y-5.8055
X5.874Y-5.9055
X5.974Y-5.7055
X5.974Y-5.8055
X5.974Y-5.9055
X6.074Y-5.7055
X6.074Y-5.8055
X6.074Y-5.9055
X6.174Y-5.7055
X6.174Y-5.8055
X6.174Y-5.9055
X6.274Y-5.7055
X6.274Y-5.8055
X6.274Y-5.9055
X6.374Y-5.7055
X6.374Y-5.8055
X6.374Y-5.9055
X6.474Y-5.7055
X6.474Y-5.8055
X6.474Y-5.9055
X6.574Y-5.7055
X6.574Y-5.8055
X6.574Y-5.9055
X6.674Y-5.7055
X6.674Y-5.8055
X6.674Y-5.9055
X6.774Y-5.7055
X6.774Y-5.8055
X6.774Y-5.9055
X6.874Y-5.7055
X6.874Y-5.8055
X6.874Y-5.9055
X6.974Y-5.7055
X6.974Y-5.8055
X6.974Y-5.9055
X7.074Y-5.7055
X7.074Y-5.8055
X7.074Y-5.9055
X7.174Y-5.7055
X7.174Y-5.8055
X7.174Y-5.9055
X7.274Y-5.7055
X7.274Y-5.8055
X7.274Y-5.9055
X7.374Y-5.7055
X7.374Y-5.8055
X7.374Y-5.9055
X7.474Y-5.7055
X7.474Y-5.8055
X7.474Y-5.9055
X7.574Y-5.7055
X7.574Y-5.8055
X7.574Y-5.9055
X7.674Y-5.7055
X7.674Y-5.8055
X7.674Y-5.9055
X7.774Y-5.7055
X7.774Y-5.8055
X7.774Y-5.9055
X7.874Y-5.7055
X7.874Y-5.8055
X7.874Y-5.9055
T7
X3.774Y-6.0055
X8.074Y-6.0055
T8
X3.908Y-4.0368
X4.3084Y-5.0408
X8.251Y-4.0368
X8.6514Y-5.0408
T0
M30
