%TF.GenerationSoftware,KiCad,Pcbnew,5.1.9+dfsg1-1~bpo10+1*%
%TF.CreationDate,2024-04-11T15:53:54+02:00*%
%TF.ProjectId,IIsiPDSAdapter,49497369-5044-4534-9164-61707465722e,rev?*%
%TF.SameCoordinates,Original*%
%TF.FileFunction,Legend,Top*%
%TF.FilePolarity,Positive*%
%FSLAX46Y46*%
G04 Gerber Fmt 4.6, Leading zero omitted, Abs format (unit mm)*
G04 Created by KiCad (PCBNEW 5.1.9+dfsg1-1~bpo10+1) date 2024-04-11 15:53:54*
%MOMM*%
%LPD*%
G01*
G04 APERTURE LIST*
%ADD10C,0.150000*%
%ADD11C,0.200000*%
%ADD12C,0.120000*%
%ADD13C,0.127000*%
%ADD14C,0.100000*%
%ADD15C,0.254000*%
G04 APERTURE END LIST*
D10*
X90829285Y-140507142D02*
X90829285Y-140935714D01*
X90829285Y-140721428D02*
X90079285Y-140721428D01*
X90186428Y-140792857D01*
X90257857Y-140864285D01*
X90293571Y-140935714D01*
X90079285Y-140042857D02*
X90079285Y-139971428D01*
X90115000Y-139900000D01*
X90150714Y-139864285D01*
X90222142Y-139828571D01*
X90365000Y-139792857D01*
X90543571Y-139792857D01*
X90686428Y-139828571D01*
X90757857Y-139864285D01*
X90793571Y-139900000D01*
X90829285Y-139971428D01*
X90829285Y-140042857D01*
X90793571Y-140114285D01*
X90757857Y-140150000D01*
X90686428Y-140185714D01*
X90543571Y-140221428D01*
X90365000Y-140221428D01*
X90222142Y-140185714D01*
X90150714Y-140150000D01*
X90115000Y-140114285D01*
X90079285Y-140042857D01*
X90329285Y-139471428D02*
X90543571Y-138900000D01*
X90757857Y-139471428D01*
X64689285Y-138069285D02*
X64689285Y-137319285D01*
X65117857Y-138069285D02*
X64796428Y-137640714D01*
X65117857Y-137319285D02*
X64689285Y-137747857D01*
X65439285Y-137569285D02*
X66010714Y-137783571D01*
X65439285Y-137997857D01*
X72419285Y-107065714D02*
X72419285Y-107494285D01*
X72419285Y-107280000D02*
X71669285Y-107280000D01*
X71776428Y-107351428D01*
X71847857Y-107422857D01*
X71883571Y-107494285D01*
X87854285Y-153002142D02*
X87854285Y-153430714D01*
X87854285Y-153216428D02*
X87104285Y-153216428D01*
X87211428Y-153287857D01*
X87282857Y-153359285D01*
X87318571Y-153430714D01*
X87104285Y-152359285D02*
X87104285Y-152502142D01*
X87140000Y-152573571D01*
X87175714Y-152609285D01*
X87282857Y-152680714D01*
X87425714Y-152716428D01*
X87711428Y-152716428D01*
X87782857Y-152680714D01*
X87818571Y-152645000D01*
X87854285Y-152573571D01*
X87854285Y-152430714D01*
X87818571Y-152359285D01*
X87782857Y-152323571D01*
X87711428Y-152287857D01*
X87532857Y-152287857D01*
X87461428Y-152323571D01*
X87425714Y-152359285D01*
X87390000Y-152430714D01*
X87390000Y-152573571D01*
X87425714Y-152645000D01*
X87461428Y-152680714D01*
X87532857Y-152716428D01*
X87568571Y-151966428D02*
X87568571Y-151395000D01*
X87104285Y-150680714D02*
X87104285Y-151037857D01*
X87461428Y-151073571D01*
X87425714Y-151037857D01*
X87390000Y-150966428D01*
X87390000Y-150787857D01*
X87425714Y-150716428D01*
X87461428Y-150680714D01*
X87532857Y-150645000D01*
X87711428Y-150645000D01*
X87782857Y-150680714D01*
X87818571Y-150716428D01*
X87854285Y-150787857D01*
X87854285Y-150966428D01*
X87818571Y-151037857D01*
X87782857Y-151073571D01*
X87104285Y-150180714D02*
X87104285Y-150109285D01*
X87140000Y-150037857D01*
X87175714Y-150002142D01*
X87247142Y-149966428D01*
X87390000Y-149930714D01*
X87568571Y-149930714D01*
X87711428Y-149966428D01*
X87782857Y-150002142D01*
X87818571Y-150037857D01*
X87854285Y-150109285D01*
X87854285Y-150180714D01*
X87818571Y-150252142D01*
X87782857Y-150287857D01*
X87711428Y-150323571D01*
X87568571Y-150359285D01*
X87390000Y-150359285D01*
X87247142Y-150323571D01*
X87175714Y-150287857D01*
X87140000Y-150252142D01*
X87104285Y-150180714D01*
X87854285Y-149037857D02*
X87104285Y-149037857D01*
X87640000Y-148787857D01*
X87104285Y-148537857D01*
X87854285Y-148537857D01*
X87854285Y-148180714D02*
X87104285Y-148180714D01*
X87461428Y-148180714D02*
X87461428Y-147752142D01*
X87854285Y-147752142D02*
X87104285Y-147752142D01*
X87354285Y-147466428D02*
X87354285Y-147073571D01*
X87854285Y-147466428D01*
X87854285Y-147073571D01*
X89129285Y-152270000D02*
X89093571Y-152341428D01*
X89057857Y-152377142D01*
X88986428Y-152412857D01*
X88772142Y-152412857D01*
X88700714Y-152377142D01*
X88665000Y-152341428D01*
X88629285Y-152270000D01*
X88629285Y-152162857D01*
X88665000Y-152091428D01*
X88700714Y-152055714D01*
X88772142Y-152020000D01*
X88986428Y-152020000D01*
X89057857Y-152055714D01*
X89093571Y-152091428D01*
X89129285Y-152162857D01*
X89129285Y-152270000D01*
X88629285Y-151698571D02*
X89379285Y-151698571D01*
X88665000Y-151698571D02*
X88629285Y-151627142D01*
X88629285Y-151484285D01*
X88665000Y-151412857D01*
X88700714Y-151377142D01*
X88772142Y-151341428D01*
X88986428Y-151341428D01*
X89057857Y-151377142D01*
X89093571Y-151412857D01*
X89129285Y-151484285D01*
X89129285Y-151627142D01*
X89093571Y-151698571D01*
X88629285Y-151127142D02*
X88629285Y-150841428D01*
X88379285Y-151020000D02*
X89022142Y-151020000D01*
X89093571Y-150984285D01*
X89129285Y-150912857D01*
X89129285Y-150841428D01*
X89129285Y-150591428D02*
X88629285Y-150591428D01*
X88379285Y-150591428D02*
X88415000Y-150627142D01*
X88450714Y-150591428D01*
X88415000Y-150555714D01*
X88379285Y-150591428D01*
X88450714Y-150591428D01*
X89129285Y-150127142D02*
X89093571Y-150198571D01*
X89057857Y-150234285D01*
X88986428Y-150270000D01*
X88772142Y-150270000D01*
X88700714Y-150234285D01*
X88665000Y-150198571D01*
X88629285Y-150127142D01*
X88629285Y-150020000D01*
X88665000Y-149948571D01*
X88700714Y-149912857D01*
X88772142Y-149877142D01*
X88986428Y-149877142D01*
X89057857Y-149912857D01*
X89093571Y-149948571D01*
X89129285Y-150020000D01*
X89129285Y-150127142D01*
X88629285Y-149555714D02*
X89129285Y-149555714D01*
X88700714Y-149555714D02*
X88665000Y-149520000D01*
X88629285Y-149448571D01*
X88629285Y-149341428D01*
X88665000Y-149270000D01*
X88736428Y-149234285D01*
X89129285Y-149234285D01*
X89129285Y-148555714D02*
X88736428Y-148555714D01*
X88665000Y-148591428D01*
X88629285Y-148662857D01*
X88629285Y-148805714D01*
X88665000Y-148877142D01*
X89093571Y-148555714D02*
X89129285Y-148627142D01*
X89129285Y-148805714D01*
X89093571Y-148877142D01*
X89022142Y-148912857D01*
X88950714Y-148912857D01*
X88879285Y-148877142D01*
X88843571Y-148805714D01*
X88843571Y-148627142D01*
X88807857Y-148555714D01*
X89129285Y-148091428D02*
X89093571Y-148162857D01*
X89022142Y-148198571D01*
X88379285Y-148198571D01*
X90404285Y-153145000D02*
X90368571Y-153216428D01*
X90297142Y-153252142D01*
X89654285Y-153252142D01*
X90404285Y-152752142D02*
X90368571Y-152823571D01*
X90332857Y-152859285D01*
X90261428Y-152895000D01*
X90047142Y-152895000D01*
X89975714Y-152859285D01*
X89940000Y-152823571D01*
X89904285Y-152752142D01*
X89904285Y-152645000D01*
X89940000Y-152573571D01*
X89975714Y-152537857D01*
X90047142Y-152502142D01*
X90261428Y-152502142D01*
X90332857Y-152537857D01*
X90368571Y-152573571D01*
X90404285Y-152645000D01*
X90404285Y-152752142D01*
X90368571Y-151859285D02*
X90404285Y-151930714D01*
X90404285Y-152073571D01*
X90368571Y-152145000D01*
X90332857Y-152180714D01*
X90261428Y-152216428D01*
X90047142Y-152216428D01*
X89975714Y-152180714D01*
X89940000Y-152145000D01*
X89904285Y-152073571D01*
X89904285Y-151930714D01*
X89940000Y-151859285D01*
X90404285Y-151216428D02*
X90011428Y-151216428D01*
X89940000Y-151252142D01*
X89904285Y-151323571D01*
X89904285Y-151466428D01*
X89940000Y-151537857D01*
X90368571Y-151216428D02*
X90404285Y-151287857D01*
X90404285Y-151466428D01*
X90368571Y-151537857D01*
X90297142Y-151573571D01*
X90225714Y-151573571D01*
X90154285Y-151537857D01*
X90118571Y-151466428D01*
X90118571Y-151287857D01*
X90082857Y-151216428D01*
X90404285Y-150752142D02*
X90368571Y-150823571D01*
X90297142Y-150859285D01*
X89654285Y-150859285D01*
X90368571Y-149573571D02*
X90404285Y-149645000D01*
X90404285Y-149787857D01*
X90368571Y-149859285D01*
X90332857Y-149895000D01*
X90261428Y-149930714D01*
X90047142Y-149930714D01*
X89975714Y-149895000D01*
X89940000Y-149859285D01*
X89904285Y-149787857D01*
X89904285Y-149645000D01*
X89940000Y-149573571D01*
X90404285Y-149145000D02*
X90368571Y-149216428D01*
X90297142Y-149252142D01*
X89654285Y-149252142D01*
X90404285Y-148752142D02*
X90368571Y-148823571D01*
X90332857Y-148859285D01*
X90261428Y-148895000D01*
X90047142Y-148895000D01*
X89975714Y-148859285D01*
X89940000Y-148823571D01*
X89904285Y-148752142D01*
X89904285Y-148645000D01*
X89940000Y-148573571D01*
X89975714Y-148537857D01*
X90047142Y-148502142D01*
X90261428Y-148502142D01*
X90332857Y-148537857D01*
X90368571Y-148573571D01*
X90404285Y-148645000D01*
X90404285Y-148752142D01*
X90368571Y-147859285D02*
X90404285Y-147930714D01*
X90404285Y-148073571D01*
X90368571Y-148145000D01*
X90332857Y-148180714D01*
X90261428Y-148216428D01*
X90047142Y-148216428D01*
X89975714Y-148180714D01*
X89940000Y-148145000D01*
X89904285Y-148073571D01*
X89904285Y-147930714D01*
X89940000Y-147859285D01*
X90404285Y-147537857D02*
X89654285Y-147537857D01*
X90118571Y-147466428D02*
X90404285Y-147252142D01*
X89904285Y-147252142D02*
X90190000Y-147537857D01*
X97876071Y-109156071D02*
X97840357Y-109263214D01*
X97804642Y-109298928D01*
X97733214Y-109334642D01*
X97626071Y-109334642D01*
X97554642Y-109298928D01*
X97518928Y-109263214D01*
X97483214Y-109191785D01*
X97483214Y-108906071D01*
X98233214Y-108906071D01*
X98233214Y-109156071D01*
X98197500Y-109227500D01*
X98161785Y-109263214D01*
X98090357Y-109298928D01*
X98018928Y-109298928D01*
X97947500Y-109263214D01*
X97911785Y-109227500D01*
X97876071Y-109156071D01*
X97876071Y-108906071D01*
X97518928Y-109941785D02*
X97483214Y-109870357D01*
X97483214Y-109727500D01*
X97518928Y-109656071D01*
X97590357Y-109620357D01*
X97876071Y-109620357D01*
X97947500Y-109656071D01*
X97983214Y-109727500D01*
X97983214Y-109870357D01*
X97947500Y-109941785D01*
X97876071Y-109977500D01*
X97804642Y-109977500D01*
X97733214Y-109620357D01*
X97983214Y-110227500D02*
X97483214Y-110370357D01*
X97840357Y-110513214D01*
X97483214Y-110656071D01*
X97983214Y-110798928D01*
X97483214Y-111406071D02*
X97876071Y-111406071D01*
X97947500Y-111370357D01*
X97983214Y-111298928D01*
X97983214Y-111156071D01*
X97947500Y-111084642D01*
X97518928Y-111406071D02*
X97483214Y-111334642D01*
X97483214Y-111156071D01*
X97518928Y-111084642D01*
X97590357Y-111048928D01*
X97661785Y-111048928D01*
X97733214Y-111084642D01*
X97768928Y-111156071D01*
X97768928Y-111334642D01*
X97804642Y-111406071D01*
X97483214Y-111763214D02*
X97983214Y-111763214D01*
X97840357Y-111763214D02*
X97911785Y-111798928D01*
X97947500Y-111834642D01*
X97983214Y-111906071D01*
X97983214Y-111977500D01*
X97518928Y-112513214D02*
X97483214Y-112441785D01*
X97483214Y-112298928D01*
X97518928Y-112227500D01*
X97590357Y-112191785D01*
X97876071Y-112191785D01*
X97947500Y-112227500D01*
X97983214Y-112298928D01*
X97983214Y-112441785D01*
X97947500Y-112513214D01*
X97876071Y-112548928D01*
X97804642Y-112548928D01*
X97733214Y-112191785D01*
X97554642Y-112870357D02*
X97518928Y-112906071D01*
X97483214Y-112870357D01*
X97518928Y-112834642D01*
X97554642Y-112870357D01*
X97483214Y-112870357D01*
X97768928Y-112870357D02*
X98197500Y-112834642D01*
X98233214Y-112870357D01*
X98197500Y-112906071D01*
X97768928Y-112870357D01*
X98233214Y-112870357D01*
X96208214Y-108906071D02*
X96958214Y-108906071D01*
X96958214Y-109084642D01*
X96922500Y-109191785D01*
X96851071Y-109263214D01*
X96779642Y-109298928D01*
X96636785Y-109334642D01*
X96529642Y-109334642D01*
X96386785Y-109298928D01*
X96315357Y-109263214D01*
X96243928Y-109191785D01*
X96208214Y-109084642D01*
X96208214Y-108906071D01*
X96208214Y-109763214D02*
X96243928Y-109691785D01*
X96279642Y-109656071D01*
X96351071Y-109620357D01*
X96565357Y-109620357D01*
X96636785Y-109656071D01*
X96672500Y-109691785D01*
X96708214Y-109763214D01*
X96708214Y-109870357D01*
X96672500Y-109941785D01*
X96636785Y-109977500D01*
X96565357Y-110013214D01*
X96351071Y-110013214D01*
X96279642Y-109977500D01*
X96243928Y-109941785D01*
X96208214Y-109870357D01*
X96208214Y-109763214D01*
X96708214Y-110656071D02*
X96208214Y-110656071D01*
X96708214Y-110334642D02*
X96315357Y-110334642D01*
X96243928Y-110370357D01*
X96208214Y-110441785D01*
X96208214Y-110548928D01*
X96243928Y-110620357D01*
X96279642Y-110656071D01*
X96208214Y-111013214D02*
X96958214Y-111013214D01*
X96672500Y-111013214D02*
X96708214Y-111084642D01*
X96708214Y-111227500D01*
X96672500Y-111298928D01*
X96636785Y-111334642D01*
X96565357Y-111370357D01*
X96351071Y-111370357D01*
X96279642Y-111334642D01*
X96243928Y-111298928D01*
X96208214Y-111227500D01*
X96208214Y-111084642D01*
X96243928Y-111013214D01*
X96208214Y-111798928D02*
X96243928Y-111727500D01*
X96315357Y-111691785D01*
X96958214Y-111691785D01*
X96243928Y-112370357D02*
X96208214Y-112298928D01*
X96208214Y-112156071D01*
X96243928Y-112084642D01*
X96315357Y-112048928D01*
X96601071Y-112048928D01*
X96672500Y-112084642D01*
X96708214Y-112156071D01*
X96708214Y-112298928D01*
X96672500Y-112370357D01*
X96601071Y-112406071D01*
X96529642Y-112406071D01*
X96458214Y-112048928D01*
X96493928Y-112727500D02*
X96493928Y-113298928D01*
X96243928Y-113977500D02*
X96208214Y-113906071D01*
X96208214Y-113763214D01*
X96243928Y-113691785D01*
X96279642Y-113656071D01*
X96351071Y-113620357D01*
X96565357Y-113620357D01*
X96636785Y-113656071D01*
X96672500Y-113691785D01*
X96708214Y-113763214D01*
X96708214Y-113906071D01*
X96672500Y-113977500D01*
X96208214Y-114298928D02*
X96958214Y-114298928D01*
X96208214Y-114620357D02*
X96601071Y-114620357D01*
X96672500Y-114584642D01*
X96708214Y-114513214D01*
X96708214Y-114406071D01*
X96672500Y-114334642D01*
X96636785Y-114298928D01*
X96243928Y-115263214D02*
X96208214Y-115191785D01*
X96208214Y-115048928D01*
X96243928Y-114977500D01*
X96315357Y-114941785D01*
X96601071Y-114941785D01*
X96672500Y-114977500D01*
X96708214Y-115048928D01*
X96708214Y-115191785D01*
X96672500Y-115263214D01*
X96601071Y-115298928D01*
X96529642Y-115298928D01*
X96458214Y-114941785D01*
X96243928Y-115941785D02*
X96208214Y-115870357D01*
X96208214Y-115727500D01*
X96243928Y-115656071D01*
X96279642Y-115620357D01*
X96351071Y-115584642D01*
X96565357Y-115584642D01*
X96636785Y-115620357D01*
X96672500Y-115656071D01*
X96708214Y-115727500D01*
X96708214Y-115870357D01*
X96672500Y-115941785D01*
X96208214Y-116263214D02*
X96958214Y-116263214D01*
X96493928Y-116334642D02*
X96208214Y-116548928D01*
X96708214Y-116548928D02*
X96422500Y-116263214D01*
X96208214Y-117441785D02*
X96958214Y-117441785D01*
X96422500Y-117691785D01*
X96958214Y-117941785D01*
X96208214Y-117941785D01*
X96279642Y-118727500D02*
X96243928Y-118691785D01*
X96208214Y-118584642D01*
X96208214Y-118513214D01*
X96243928Y-118406071D01*
X96315357Y-118334642D01*
X96386785Y-118298928D01*
X96529642Y-118263214D01*
X96636785Y-118263214D01*
X96779642Y-118298928D01*
X96851071Y-118334642D01*
X96922500Y-118406071D01*
X96958214Y-118513214D01*
X96958214Y-118584642D01*
X96922500Y-118691785D01*
X96886785Y-118727500D01*
X96958214Y-119370357D02*
X96958214Y-119227500D01*
X96922500Y-119156071D01*
X96886785Y-119120357D01*
X96779642Y-119048928D01*
X96636785Y-119013214D01*
X96351071Y-119013214D01*
X96279642Y-119048928D01*
X96243928Y-119084642D01*
X96208214Y-119156071D01*
X96208214Y-119298928D01*
X96243928Y-119370357D01*
X96279642Y-119406071D01*
X96351071Y-119441785D01*
X96529642Y-119441785D01*
X96601071Y-119406071D01*
X96636785Y-119370357D01*
X96672500Y-119298928D01*
X96672500Y-119156071D01*
X96636785Y-119084642D01*
X96601071Y-119048928D01*
X96529642Y-119013214D01*
X96636785Y-119870357D02*
X96672500Y-119798928D01*
X96708214Y-119763214D01*
X96779642Y-119727500D01*
X96815357Y-119727500D01*
X96886785Y-119763214D01*
X96922500Y-119798928D01*
X96958214Y-119870357D01*
X96958214Y-120013214D01*
X96922500Y-120084642D01*
X96886785Y-120120357D01*
X96815357Y-120156071D01*
X96779642Y-120156071D01*
X96708214Y-120120357D01*
X96672500Y-120084642D01*
X96636785Y-120013214D01*
X96636785Y-119870357D01*
X96601071Y-119798928D01*
X96565357Y-119763214D01*
X96493928Y-119727500D01*
X96351071Y-119727500D01*
X96279642Y-119763214D01*
X96243928Y-119798928D01*
X96208214Y-119870357D01*
X96208214Y-120013214D01*
X96243928Y-120084642D01*
X96279642Y-120120357D01*
X96351071Y-120156071D01*
X96493928Y-120156071D01*
X96565357Y-120120357D01*
X96601071Y-120084642D01*
X96636785Y-120013214D01*
X96636785Y-120584642D02*
X96672500Y-120513214D01*
X96708214Y-120477500D01*
X96779642Y-120441785D01*
X96815357Y-120441785D01*
X96886785Y-120477500D01*
X96922500Y-120513214D01*
X96958214Y-120584642D01*
X96958214Y-120727500D01*
X96922500Y-120798928D01*
X96886785Y-120834642D01*
X96815357Y-120870357D01*
X96779642Y-120870357D01*
X96708214Y-120834642D01*
X96672500Y-120798928D01*
X96636785Y-120727500D01*
X96636785Y-120584642D01*
X96601071Y-120513214D01*
X96565357Y-120477500D01*
X96493928Y-120441785D01*
X96351071Y-120441785D01*
X96279642Y-120477500D01*
X96243928Y-120513214D01*
X96208214Y-120584642D01*
X96208214Y-120727500D01*
X96243928Y-120798928D01*
X96279642Y-120834642D01*
X96351071Y-120870357D01*
X96493928Y-120870357D01*
X96565357Y-120834642D01*
X96601071Y-120798928D01*
X96636785Y-120727500D01*
X96636785Y-121298928D02*
X96672500Y-121227500D01*
X96708214Y-121191785D01*
X96779642Y-121156071D01*
X96815357Y-121156071D01*
X96886785Y-121191785D01*
X96922500Y-121227500D01*
X96958214Y-121298928D01*
X96958214Y-121441785D01*
X96922500Y-121513214D01*
X96886785Y-121548928D01*
X96815357Y-121584642D01*
X96779642Y-121584642D01*
X96708214Y-121548928D01*
X96672500Y-121513214D01*
X96636785Y-121441785D01*
X96636785Y-121298928D01*
X96601071Y-121227500D01*
X96565357Y-121191785D01*
X96493928Y-121156071D01*
X96351071Y-121156071D01*
X96279642Y-121191785D01*
X96243928Y-121227500D01*
X96208214Y-121298928D01*
X96208214Y-121441785D01*
X96243928Y-121513214D01*
X96279642Y-121548928D01*
X96351071Y-121584642D01*
X96493928Y-121584642D01*
X96565357Y-121548928D01*
X96601071Y-121513214D01*
X96636785Y-121441785D01*
X96886785Y-121870357D02*
X96922500Y-121906071D01*
X96958214Y-121977500D01*
X96958214Y-122156071D01*
X96922500Y-122227500D01*
X96886785Y-122263214D01*
X96815357Y-122298928D01*
X96743928Y-122298928D01*
X96636785Y-122263214D01*
X96208214Y-121834642D01*
X96208214Y-122298928D01*
X94933214Y-109013214D02*
X94968928Y-108941785D01*
X95004642Y-108906071D01*
X95076071Y-108870357D01*
X95290357Y-108870357D01*
X95361785Y-108906071D01*
X95397500Y-108941785D01*
X95433214Y-109013214D01*
X95433214Y-109120357D01*
X95397500Y-109191785D01*
X95361785Y-109227500D01*
X95290357Y-109263214D01*
X95076071Y-109263214D01*
X95004642Y-109227500D01*
X94968928Y-109191785D01*
X94933214Y-109120357D01*
X94933214Y-109013214D01*
X94933214Y-109584642D02*
X95433214Y-109584642D01*
X95290357Y-109584642D02*
X95361785Y-109620357D01*
X95397500Y-109656071D01*
X95433214Y-109727500D01*
X95433214Y-109798928D01*
X94933214Y-110048928D02*
X95433214Y-110048928D01*
X95683214Y-110048928D02*
X95647500Y-110013214D01*
X95611785Y-110048928D01*
X95647500Y-110084642D01*
X95683214Y-110048928D01*
X95611785Y-110048928D01*
X94968928Y-110691785D02*
X94933214Y-110620357D01*
X94933214Y-110477500D01*
X94968928Y-110406071D01*
X95040357Y-110370357D01*
X95326071Y-110370357D01*
X95397500Y-110406071D01*
X95433214Y-110477500D01*
X95433214Y-110620357D01*
X95397500Y-110691785D01*
X95326071Y-110727500D01*
X95254642Y-110727500D01*
X95183214Y-110370357D01*
X95433214Y-111048928D02*
X94933214Y-111048928D01*
X95361785Y-111048928D02*
X95397500Y-111084642D01*
X95433214Y-111156071D01*
X95433214Y-111263214D01*
X95397500Y-111334642D01*
X95326071Y-111370357D01*
X94933214Y-111370357D01*
X95433214Y-111620357D02*
X95433214Y-111906071D01*
X95683214Y-111727500D02*
X95040357Y-111727500D01*
X94968928Y-111763214D01*
X94933214Y-111834642D01*
X94933214Y-111906071D01*
X94933214Y-112477500D02*
X95326071Y-112477500D01*
X95397500Y-112441785D01*
X95433214Y-112370357D01*
X95433214Y-112227500D01*
X95397500Y-112156071D01*
X94968928Y-112477500D02*
X94933214Y-112406071D01*
X94933214Y-112227500D01*
X94968928Y-112156071D01*
X95040357Y-112120357D01*
X95111785Y-112120357D01*
X95183214Y-112156071D01*
X95218928Y-112227500D01*
X95218928Y-112406071D01*
X95254642Y-112477500D01*
X95433214Y-112727500D02*
X95433214Y-113013214D01*
X95683214Y-112834642D02*
X95040357Y-112834642D01*
X94968928Y-112870357D01*
X94933214Y-112941785D01*
X94933214Y-113013214D01*
X94933214Y-113263214D02*
X95433214Y-113263214D01*
X95683214Y-113263214D02*
X95647500Y-113227500D01*
X95611785Y-113263214D01*
X95647500Y-113298928D01*
X95683214Y-113263214D01*
X95611785Y-113263214D01*
X94933214Y-113727500D02*
X94968928Y-113656071D01*
X95004642Y-113620357D01*
X95076071Y-113584642D01*
X95290357Y-113584642D01*
X95361785Y-113620357D01*
X95397500Y-113656071D01*
X95433214Y-113727500D01*
X95433214Y-113834642D01*
X95397500Y-113906071D01*
X95361785Y-113941785D01*
X95290357Y-113977500D01*
X95076071Y-113977500D01*
X95004642Y-113941785D01*
X94968928Y-113906071D01*
X94933214Y-113834642D01*
X94933214Y-113727500D01*
X95433214Y-114298928D02*
X94933214Y-114298928D01*
X95361785Y-114298928D02*
X95397500Y-114334642D01*
X95433214Y-114406071D01*
X95433214Y-114513214D01*
X95397500Y-114584642D01*
X95326071Y-114620357D01*
X94933214Y-114620357D01*
X94933214Y-115548928D02*
X95683214Y-115548928D01*
X95397500Y-115548928D02*
X95433214Y-115620357D01*
X95433214Y-115763214D01*
X95397500Y-115834642D01*
X95361785Y-115870357D01*
X95290357Y-115906071D01*
X95076071Y-115906071D01*
X95004642Y-115870357D01*
X94968928Y-115834642D01*
X94933214Y-115763214D01*
X94933214Y-115620357D01*
X94968928Y-115548928D01*
X94968928Y-116513214D02*
X94933214Y-116441785D01*
X94933214Y-116298928D01*
X94968928Y-116227500D01*
X95040357Y-116191785D01*
X95326071Y-116191785D01*
X95397500Y-116227500D01*
X95433214Y-116298928D01*
X95433214Y-116441785D01*
X95397500Y-116513214D01*
X95326071Y-116548928D01*
X95254642Y-116548928D01*
X95183214Y-116191785D01*
X95433214Y-116763214D02*
X95433214Y-117048928D01*
X94933214Y-116870357D02*
X95576071Y-116870357D01*
X95647500Y-116906071D01*
X95683214Y-116977500D01*
X95683214Y-117048928D01*
X94933214Y-117406071D02*
X94968928Y-117334642D01*
X95004642Y-117298928D01*
X95076071Y-117263214D01*
X95290357Y-117263214D01*
X95361785Y-117298928D01*
X95397500Y-117334642D01*
X95433214Y-117406071D01*
X95433214Y-117513214D01*
X95397500Y-117584642D01*
X95361785Y-117620357D01*
X95290357Y-117656071D01*
X95076071Y-117656071D01*
X95004642Y-117620357D01*
X94968928Y-117584642D01*
X94933214Y-117513214D01*
X94933214Y-117406071D01*
X94933214Y-117977500D02*
X95433214Y-117977500D01*
X95290357Y-117977500D02*
X95361785Y-118013214D01*
X95397500Y-118048928D01*
X95433214Y-118120357D01*
X95433214Y-118191785D01*
X94968928Y-118727500D02*
X94933214Y-118656071D01*
X94933214Y-118513214D01*
X94968928Y-118441785D01*
X95040357Y-118406071D01*
X95326071Y-118406071D01*
X95397500Y-118441785D01*
X95433214Y-118513214D01*
X95433214Y-118656071D01*
X95397500Y-118727500D01*
X95326071Y-118763214D01*
X95254642Y-118763214D01*
X95183214Y-118406071D01*
X93658214Y-108906071D02*
X94158214Y-108906071D01*
X94408214Y-108906071D02*
X94372500Y-108870357D01*
X94336785Y-108906071D01*
X94372500Y-108941785D01*
X94408214Y-108906071D01*
X94336785Y-108906071D01*
X94158214Y-109263214D02*
X93658214Y-109263214D01*
X94086785Y-109263214D02*
X94122500Y-109298928D01*
X94158214Y-109370357D01*
X94158214Y-109477500D01*
X94122500Y-109548928D01*
X94051071Y-109584642D01*
X93658214Y-109584642D01*
X93693928Y-109906071D02*
X93658214Y-109977500D01*
X93658214Y-110120357D01*
X93693928Y-110191785D01*
X93765357Y-110227500D01*
X93801071Y-110227500D01*
X93872500Y-110191785D01*
X93908214Y-110120357D01*
X93908214Y-110013214D01*
X93943928Y-109941785D01*
X94015357Y-109906071D01*
X94051071Y-109906071D01*
X94122500Y-109941785D01*
X94158214Y-110013214D01*
X94158214Y-110120357D01*
X94122500Y-110191785D01*
X93693928Y-110834642D02*
X93658214Y-110763214D01*
X93658214Y-110620357D01*
X93693928Y-110548928D01*
X93765357Y-110513214D01*
X94051071Y-110513214D01*
X94122500Y-110548928D01*
X94158214Y-110620357D01*
X94158214Y-110763214D01*
X94122500Y-110834642D01*
X94051071Y-110870357D01*
X93979642Y-110870357D01*
X93908214Y-110513214D01*
X93658214Y-111191785D02*
X94158214Y-111191785D01*
X94015357Y-111191785D02*
X94086785Y-111227500D01*
X94122500Y-111263214D01*
X94158214Y-111334642D01*
X94158214Y-111406071D01*
X94158214Y-111548928D02*
X94158214Y-111834642D01*
X94408214Y-111656071D02*
X93765357Y-111656071D01*
X93693928Y-111691785D01*
X93658214Y-111763214D01*
X93658214Y-111834642D01*
X93658214Y-112084642D02*
X94158214Y-112084642D01*
X94408214Y-112084642D02*
X94372500Y-112048928D01*
X94336785Y-112084642D01*
X94372500Y-112120357D01*
X94408214Y-112084642D01*
X94336785Y-112084642D01*
X93658214Y-112548928D02*
X93693928Y-112477500D01*
X93729642Y-112441785D01*
X93801071Y-112406071D01*
X94015357Y-112406071D01*
X94086785Y-112441785D01*
X94122500Y-112477500D01*
X94158214Y-112548928D01*
X94158214Y-112656071D01*
X94122500Y-112727500D01*
X94086785Y-112763214D01*
X94015357Y-112798928D01*
X93801071Y-112798928D01*
X93729642Y-112763214D01*
X93693928Y-112727500D01*
X93658214Y-112656071D01*
X93658214Y-112548928D01*
X94158214Y-113120357D02*
X93658214Y-113120357D01*
X94086785Y-113120357D02*
X94122500Y-113156071D01*
X94158214Y-113227500D01*
X94158214Y-113334642D01*
X94122500Y-113406071D01*
X94051071Y-113441785D01*
X93658214Y-113441785D01*
X93658214Y-114977500D02*
X93658214Y-114941785D01*
X93693928Y-114870357D01*
X93801071Y-114763214D01*
X94015357Y-114584642D01*
X94122500Y-114513214D01*
X94229642Y-114477500D01*
X94301071Y-114477500D01*
X94372500Y-114513214D01*
X94408214Y-114584642D01*
X94408214Y-114620357D01*
X94372500Y-114691785D01*
X94301071Y-114727500D01*
X94265357Y-114727500D01*
X94193928Y-114691785D01*
X94158214Y-114656071D01*
X94015357Y-114441785D01*
X93979642Y-114406071D01*
X93908214Y-114370357D01*
X93801071Y-114370357D01*
X93729642Y-114406071D01*
X93693928Y-114441785D01*
X93658214Y-114513214D01*
X93658214Y-114620357D01*
X93693928Y-114691785D01*
X93729642Y-114727500D01*
X93872500Y-114834642D01*
X93979642Y-114870357D01*
X94051071Y-114870357D01*
X94158214Y-115870357D02*
X93408214Y-115870357D01*
X94122500Y-115870357D02*
X94158214Y-115941785D01*
X94158214Y-116084642D01*
X94122500Y-116156071D01*
X94086785Y-116191785D01*
X94015357Y-116227500D01*
X93801071Y-116227500D01*
X93729642Y-116191785D01*
X93693928Y-116156071D01*
X93658214Y-116084642D01*
X93658214Y-115941785D01*
X93693928Y-115870357D01*
X93658214Y-116656071D02*
X93693928Y-116584642D01*
X93729642Y-116548928D01*
X93801071Y-116513214D01*
X94015357Y-116513214D01*
X94086785Y-116548928D01*
X94122500Y-116584642D01*
X94158214Y-116656071D01*
X94158214Y-116763214D01*
X94122500Y-116834642D01*
X94086785Y-116870357D01*
X94015357Y-116906071D01*
X93801071Y-116906071D01*
X93729642Y-116870357D01*
X93693928Y-116834642D01*
X93658214Y-116763214D01*
X93658214Y-116656071D01*
X94158214Y-117156071D02*
X93658214Y-117298928D01*
X94015357Y-117441785D01*
X93658214Y-117584642D01*
X94158214Y-117727500D01*
X93693928Y-118298928D02*
X93658214Y-118227500D01*
X93658214Y-118084642D01*
X93693928Y-118013214D01*
X93765357Y-117977500D01*
X94051071Y-117977500D01*
X94122500Y-118013214D01*
X94158214Y-118084642D01*
X94158214Y-118227500D01*
X94122500Y-118298928D01*
X94051071Y-118334642D01*
X93979642Y-118334642D01*
X93908214Y-117977500D01*
X93658214Y-118656071D02*
X94158214Y-118656071D01*
X94015357Y-118656071D02*
X94086785Y-118691785D01*
X94122500Y-118727500D01*
X94158214Y-118798928D01*
X94158214Y-118870357D01*
X93658214Y-119120357D02*
X94158214Y-119120357D01*
X94408214Y-119120357D02*
X94372500Y-119084642D01*
X94336785Y-119120357D01*
X94372500Y-119156071D01*
X94408214Y-119120357D01*
X94336785Y-119120357D01*
X94158214Y-119477500D02*
X93658214Y-119477500D01*
X94086785Y-119477500D02*
X94122500Y-119513214D01*
X94158214Y-119584642D01*
X94158214Y-119691785D01*
X94122500Y-119763214D01*
X94051071Y-119798928D01*
X93658214Y-119798928D01*
X94158214Y-120477500D02*
X93551071Y-120477500D01*
X93479642Y-120441785D01*
X93443928Y-120406071D01*
X93408214Y-120334642D01*
X93408214Y-120227500D01*
X93443928Y-120156071D01*
X93693928Y-120477500D02*
X93658214Y-120406071D01*
X93658214Y-120263214D01*
X93693928Y-120191785D01*
X93729642Y-120156071D01*
X93801071Y-120120357D01*
X94015357Y-120120357D01*
X94086785Y-120156071D01*
X94122500Y-120191785D01*
X94158214Y-120263214D01*
X94158214Y-120406071D01*
X94122500Y-120477500D01*
X93729642Y-120834642D02*
X93693928Y-120870357D01*
X93658214Y-120834642D01*
X93693928Y-120798928D01*
X93729642Y-120834642D01*
X93658214Y-120834642D01*
X93943928Y-120834642D02*
X94372500Y-120798928D01*
X94408214Y-120834642D01*
X94372500Y-120870357D01*
X93943928Y-120834642D01*
X94408214Y-120834642D01*
X58560714Y-145701428D02*
X59310714Y-145701428D01*
X59310714Y-145880000D01*
X59275000Y-145987142D01*
X59203571Y-146058571D01*
X59132142Y-146094285D01*
X58989285Y-146130000D01*
X58882142Y-146130000D01*
X58739285Y-146094285D01*
X58667857Y-146058571D01*
X58596428Y-145987142D01*
X58560714Y-145880000D01*
X58560714Y-145701428D01*
X58560714Y-146451428D02*
X59310714Y-146451428D01*
X58560714Y-146808571D02*
X59310714Y-146808571D01*
X59310714Y-147094285D01*
X59275000Y-147165714D01*
X59239285Y-147201428D01*
X59167857Y-147237142D01*
X59060714Y-147237142D01*
X58989285Y-147201428D01*
X58953571Y-147165714D01*
X58917857Y-147094285D01*
X58917857Y-146808571D01*
X58846428Y-147558571D02*
X58846428Y-148130000D01*
X58560714Y-148880000D02*
X58560714Y-148451428D01*
X58560714Y-148665714D02*
X59310714Y-148665714D01*
X59203571Y-148594285D01*
X59132142Y-148522857D01*
X59096428Y-148451428D01*
X59060714Y-149522857D02*
X58560714Y-149522857D01*
X59346428Y-149344285D02*
X58810714Y-149165714D01*
X58810714Y-149630000D01*
X66280714Y-145948571D02*
X67030714Y-145948571D01*
X67030714Y-146127142D01*
X66995000Y-146234285D01*
X66923571Y-146305714D01*
X66852142Y-146341428D01*
X66709285Y-146377142D01*
X66602142Y-146377142D01*
X66459285Y-146341428D01*
X66387857Y-146305714D01*
X66316428Y-146234285D01*
X66280714Y-146127142D01*
X66280714Y-145948571D01*
X66280714Y-146698571D02*
X67030714Y-146698571D01*
X66280714Y-147055714D02*
X67030714Y-147055714D01*
X67030714Y-147341428D01*
X66995000Y-147412857D01*
X66959285Y-147448571D01*
X66887857Y-147484285D01*
X66780714Y-147484285D01*
X66709285Y-147448571D01*
X66673571Y-147412857D01*
X66637857Y-147341428D01*
X66637857Y-147055714D01*
X66566428Y-147805714D02*
X66566428Y-148377142D01*
X66709285Y-148841428D02*
X66745000Y-148770000D01*
X66780714Y-148734285D01*
X66852142Y-148698571D01*
X66887857Y-148698571D01*
X66959285Y-148734285D01*
X66995000Y-148770000D01*
X67030714Y-148841428D01*
X67030714Y-148984285D01*
X66995000Y-149055714D01*
X66959285Y-149091428D01*
X66887857Y-149127142D01*
X66852142Y-149127142D01*
X66780714Y-149091428D01*
X66745000Y-149055714D01*
X66709285Y-148984285D01*
X66709285Y-148841428D01*
X66673571Y-148770000D01*
X66637857Y-148734285D01*
X66566428Y-148698571D01*
X66423571Y-148698571D01*
X66352142Y-148734285D01*
X66316428Y-148770000D01*
X66280714Y-148841428D01*
X66280714Y-148984285D01*
X66316428Y-149055714D01*
X66352142Y-149091428D01*
X66423571Y-149127142D01*
X66566428Y-149127142D01*
X66637857Y-149091428D01*
X66673571Y-149055714D01*
X66709285Y-148984285D01*
X73976428Y-145840714D02*
X73940714Y-145769285D01*
X73940714Y-145626428D01*
X73976428Y-145555000D01*
X74012142Y-145519285D01*
X74083571Y-145483571D01*
X74297857Y-145483571D01*
X74369285Y-145519285D01*
X74405000Y-145555000D01*
X74440714Y-145626428D01*
X74440714Y-145769285D01*
X74405000Y-145840714D01*
X73940714Y-146269285D02*
X73976428Y-146197857D01*
X74012142Y-146162142D01*
X74083571Y-146126428D01*
X74297857Y-146126428D01*
X74369285Y-146162142D01*
X74405000Y-146197857D01*
X74440714Y-146269285D01*
X74440714Y-146376428D01*
X74405000Y-146447857D01*
X74369285Y-146483571D01*
X74297857Y-146519285D01*
X74083571Y-146519285D01*
X74012142Y-146483571D01*
X73976428Y-146447857D01*
X73940714Y-146376428D01*
X73940714Y-146269285D01*
X73940714Y-146840714D02*
X74440714Y-146840714D01*
X74369285Y-146840714D02*
X74405000Y-146876428D01*
X74440714Y-146947857D01*
X74440714Y-147055000D01*
X74405000Y-147126428D01*
X74333571Y-147162142D01*
X73940714Y-147162142D01*
X74333571Y-147162142D02*
X74405000Y-147197857D01*
X74440714Y-147269285D01*
X74440714Y-147376428D01*
X74405000Y-147447857D01*
X74333571Y-147483571D01*
X73940714Y-147483571D01*
X73940714Y-147840714D02*
X74440714Y-147840714D01*
X74369285Y-147840714D02*
X74405000Y-147876428D01*
X74440714Y-147947857D01*
X74440714Y-148055000D01*
X74405000Y-148126428D01*
X74333571Y-148162142D01*
X73940714Y-148162142D01*
X74333571Y-148162142D02*
X74405000Y-148197857D01*
X74440714Y-148269285D01*
X74440714Y-148376428D01*
X74405000Y-148447857D01*
X74333571Y-148483571D01*
X73940714Y-148483571D01*
X73940714Y-148947857D02*
X73976428Y-148876428D01*
X74012142Y-148840714D01*
X74083571Y-148805000D01*
X74297857Y-148805000D01*
X74369285Y-148840714D01*
X74405000Y-148876428D01*
X74440714Y-148947857D01*
X74440714Y-149055000D01*
X74405000Y-149126428D01*
X74369285Y-149162142D01*
X74297857Y-149197857D01*
X74083571Y-149197857D01*
X74012142Y-149162142D01*
X73976428Y-149126428D01*
X73940714Y-149055000D01*
X73940714Y-148947857D01*
X74440714Y-149519285D02*
X73940714Y-149519285D01*
X74369285Y-149519285D02*
X74405000Y-149555000D01*
X74440714Y-149626428D01*
X74440714Y-149733571D01*
X74405000Y-149805000D01*
X74333571Y-149840714D01*
X73940714Y-149840714D01*
D11*
X90022380Y-101406190D02*
X89974761Y-101501428D01*
X89879523Y-101549047D01*
X89022380Y-101549047D01*
X90022380Y-100882380D02*
X89974761Y-100977619D01*
X89927142Y-101025238D01*
X89831904Y-101072857D01*
X89546190Y-101072857D01*
X89450952Y-101025238D01*
X89403333Y-100977619D01*
X89355714Y-100882380D01*
X89355714Y-100739523D01*
X89403333Y-100644285D01*
X89450952Y-100596666D01*
X89546190Y-100549047D01*
X89831904Y-100549047D01*
X89927142Y-100596666D01*
X89974761Y-100644285D01*
X90022380Y-100739523D01*
X90022380Y-100882380D01*
X89974761Y-99691904D02*
X90022380Y-99787142D01*
X90022380Y-99977619D01*
X89974761Y-100072857D01*
X89927142Y-100120476D01*
X89831904Y-100168095D01*
X89546190Y-100168095D01*
X89450952Y-100120476D01*
X89403333Y-100072857D01*
X89355714Y-99977619D01*
X89355714Y-99787142D01*
X89403333Y-99691904D01*
X90022380Y-98834761D02*
X89498571Y-98834761D01*
X89403333Y-98882380D01*
X89355714Y-98977619D01*
X89355714Y-99168095D01*
X89403333Y-99263333D01*
X89974761Y-98834761D02*
X90022380Y-98930000D01*
X90022380Y-99168095D01*
X89974761Y-99263333D01*
X89879523Y-99310952D01*
X89784285Y-99310952D01*
X89689047Y-99263333D01*
X89641428Y-99168095D01*
X89641428Y-98930000D01*
X89593809Y-98834761D01*
X90022380Y-98215714D02*
X89974761Y-98310952D01*
X89879523Y-98358571D01*
X89022380Y-98358571D01*
X91674761Y-100358571D02*
X91722380Y-100453809D01*
X91722380Y-100644285D01*
X91674761Y-100739523D01*
X91627142Y-100787142D01*
X91531904Y-100834761D01*
X91246190Y-100834761D01*
X91150952Y-100787142D01*
X91103333Y-100739523D01*
X91055714Y-100644285D01*
X91055714Y-100453809D01*
X91103333Y-100358571D01*
X91722380Y-99787142D02*
X91674761Y-99882380D01*
X91579523Y-99930000D01*
X90722380Y-99930000D01*
X91722380Y-99406190D02*
X90722380Y-99406190D01*
X91341428Y-99310952D02*
X91722380Y-99025238D01*
X91055714Y-99025238D02*
X91436666Y-99406190D01*
X80405238Y-98723333D02*
X80357619Y-98628095D01*
X80357619Y-98437619D01*
X80405238Y-98342380D01*
X80452857Y-98294761D01*
X80548095Y-98247142D01*
X80833809Y-98247142D01*
X80929047Y-98294761D01*
X80976666Y-98342380D01*
X81024285Y-98437619D01*
X81024285Y-98628095D01*
X80976666Y-98723333D01*
X81024285Y-99151904D02*
X80024285Y-99151904D01*
X80976666Y-99151904D02*
X81024285Y-99247142D01*
X81024285Y-99437619D01*
X80976666Y-99532857D01*
X80929047Y-99580476D01*
X80833809Y-99628095D01*
X80548095Y-99628095D01*
X80452857Y-99580476D01*
X80405238Y-99532857D01*
X80357619Y-99437619D01*
X80357619Y-99247142D01*
X80405238Y-99151904D01*
X81024285Y-100485238D02*
X80357619Y-100485238D01*
X81024285Y-100056666D02*
X80500476Y-100056666D01*
X80405238Y-100104285D01*
X80357619Y-100199523D01*
X80357619Y-100342380D01*
X80405238Y-100437619D01*
X80452857Y-100485238D01*
X78705238Y-98961428D02*
X78657619Y-98866190D01*
X78657619Y-98675714D01*
X78705238Y-98580476D01*
X78752857Y-98532857D01*
X78848095Y-98485238D01*
X79133809Y-98485238D01*
X79229047Y-98532857D01*
X79276666Y-98580476D01*
X79324285Y-98675714D01*
X79324285Y-98866190D01*
X79276666Y-98961428D01*
X78657619Y-99532857D02*
X78705238Y-99437619D01*
X78800476Y-99390000D01*
X79657619Y-99390000D01*
X78657619Y-99913809D02*
X79657619Y-99913809D01*
X79038571Y-100009047D02*
X78657619Y-100294761D01*
X79324285Y-100294761D02*
X78943333Y-99913809D01*
D12*
X54900000Y-118000000D02*
X54900000Y-154700000D01*
X59900000Y-118000000D02*
X54900000Y-118000000D01*
X59900000Y-154700000D02*
X59900000Y-118000000D01*
X54900000Y-154700000D02*
X59900000Y-154700000D01*
X66900000Y-107400000D02*
X58900000Y-98000000D01*
X66900000Y-98000000D02*
X58900000Y-107400000D01*
X58900000Y-98000000D02*
X66900000Y-98000000D01*
X58900000Y-107400000D02*
X58900000Y-98000000D01*
X66900000Y-107400000D02*
X58900000Y-107400000D01*
X66900000Y-98000000D02*
X66900000Y-107400000D01*
X211730000Y-107400000D02*
X226900000Y-98000000D01*
X211730000Y-98000000D02*
X226900000Y-107400000D01*
X211730000Y-107400000D02*
X211730000Y-98000000D01*
D10*
X226900000Y-107400000D02*
X211730000Y-107400000D01*
D13*
%TO.C,S1*%
X87750000Y-101245000D02*
X86620000Y-101245000D01*
X83380000Y-101245000D02*
X82250000Y-101245000D01*
X82250000Y-101245000D02*
X82250000Y-100595000D01*
X82250000Y-98745000D02*
X82250000Y-99255000D01*
X87750000Y-100595000D02*
X87750000Y-101245000D01*
X87750000Y-98745000D02*
X87750000Y-99255000D01*
X82250000Y-98745000D02*
X83700000Y-98745000D01*
X83700000Y-98745000D02*
X84900000Y-98745000D01*
X84900000Y-98745000D02*
X87750000Y-98745000D01*
X84900000Y-98745000D02*
X84900000Y-97645000D01*
X84900000Y-97645000D02*
X84700000Y-97445000D01*
X84700000Y-97445000D02*
X83900000Y-97445000D01*
X83900000Y-97445000D02*
X83700000Y-97645000D01*
X83700000Y-97645000D02*
X83700000Y-98745000D01*
D11*
X86100000Y-102135000D02*
G75*
G03*
X86100000Y-102135000I-100000J0D01*
G01*
D12*
%TO.C,J4*%
X107313000Y-133750200D02*
X221867000Y-133750200D01*
X221867000Y-133750200D02*
X221867000Y-122904400D01*
X221867000Y-122904400D02*
X107313000Y-122904400D01*
X107313000Y-122904400D02*
X107313000Y-133750200D01*
X222883000Y-125800000D02*
G75*
G03*
X222883000Y-125800000I-381000J0D01*
G01*
%TO.C,C16*%
X87130000Y-109240580D02*
X87130000Y-108959420D01*
X86110000Y-109240580D02*
X86110000Y-108959420D01*
%TO.C,X1*%
X56170000Y-154140000D02*
X76320000Y-154140000D01*
X77070000Y-153390000D02*
X77070000Y-141990000D01*
X76320000Y-141240000D02*
X56920000Y-141240000D01*
X56170000Y-141990000D02*
X56170000Y-154140000D01*
D10*
X63870000Y-141240000D02*
X63870000Y-154040000D01*
D12*
X56920000Y-141240000D02*
G75*
G03*
X56170000Y-141990000I0J-750000D01*
G01*
X77070000Y-141990000D02*
G75*
G03*
X76320000Y-141240000I-750000J0D01*
G01*
X76320000Y-154140000D02*
G75*
G03*
X77070000Y-153390000I0J750000D01*
G01*
%TO.C,C15*%
X83065000Y-147840000D02*
X83065000Y-151750000D01*
X84935000Y-147840000D02*
X83065000Y-147840000D01*
X84935000Y-151750000D02*
X84935000Y-147840000D01*
%TO.C,U1*%
X75400000Y-106640000D02*
X72950000Y-106640000D01*
X73600000Y-109860000D02*
X75400000Y-109860000D01*
%TO.C,R5*%
X87053258Y-102727500D02*
X86578742Y-102727500D01*
X87053258Y-103772500D02*
X86578742Y-103772500D01*
%TO.C,R4*%
X82937742Y-103772500D02*
X83412258Y-103772500D01*
X82937742Y-102727500D02*
X83412258Y-102727500D01*
%TO.C,C14*%
X79510000Y-107615580D02*
X79510000Y-107334420D01*
X78490000Y-107615580D02*
X78490000Y-107334420D01*
%TO.C,C7*%
X87254420Y-143273000D02*
X87535580Y-143273000D01*
X87254420Y-142253000D02*
X87535580Y-142253000D01*
%TO.C,C4*%
X96144420Y-124220000D02*
X96425580Y-124220000D01*
X96144420Y-123200000D02*
X96425580Y-123200000D01*
%TO.C,C3*%
X84590000Y-109240580D02*
X84590000Y-108959420D01*
X83570000Y-109240580D02*
X83570000Y-108959420D01*
%TO.C,C2*%
X61835580Y-123200000D02*
X61554420Y-123200000D01*
X61835580Y-124220000D02*
X61554420Y-124220000D01*
%TO.C,C1*%
X61835580Y-133360000D02*
X61554420Y-133360000D01*
X61835580Y-134380000D02*
X61554420Y-134380000D01*
%TO.C,C13*%
X59520000Y-138615000D02*
X63430000Y-138615000D01*
X63430000Y-138615000D02*
X63430000Y-136745000D01*
X63430000Y-136745000D02*
X59520000Y-136745000D01*
%TO.C,C8*%
X83445580Y-142253000D02*
X83164420Y-142253000D01*
X83445580Y-143273000D02*
X83164420Y-143273000D01*
%TO.C,C12*%
X59520000Y-115755000D02*
X63430000Y-115755000D01*
X63430000Y-115755000D02*
X63430000Y-113885000D01*
X63430000Y-113885000D02*
X59520000Y-113885000D01*
%TO.C,C11*%
X98460000Y-125315000D02*
X94550000Y-125315000D01*
X94550000Y-125315000D02*
X94550000Y-127185000D01*
X94550000Y-127185000D02*
X98460000Y-127185000D01*
%TO.C,C10*%
X81480000Y-150584420D02*
X81480000Y-150865580D01*
X80460000Y-150584420D02*
X80460000Y-150865580D01*
%TO.C,C9*%
X79480000Y-150584420D02*
X79480000Y-150865580D01*
X78460000Y-150584420D02*
X78460000Y-150865580D01*
%TO.C,R2*%
X61882258Y-130807500D02*
X61407742Y-130807500D01*
X61882258Y-131852500D02*
X61407742Y-131852500D01*
%TO.C,R1*%
X61882258Y-126997500D02*
X61407742Y-126997500D01*
X61882258Y-128042500D02*
X61407742Y-128042500D01*
D14*
%TO.C,J1*%
X99500000Y-150020000D02*
X93320000Y-150020000D01*
X93320000Y-150020000D02*
X93320000Y-150020000D01*
X93320000Y-150020000D02*
X99500000Y-150020000D01*
X99500000Y-150020000D02*
X99500000Y-150020000D01*
X93320000Y-150020000D02*
X93320000Y-150020000D01*
X93320000Y-150020000D02*
X93320000Y-162640000D01*
X93320000Y-162640000D02*
X93320000Y-162640000D01*
X93320000Y-162640000D02*
X93320000Y-150020000D01*
X93320000Y-162640000D02*
X207620000Y-162640000D01*
X207620000Y-162640000D02*
X207620000Y-162640000D01*
X207620000Y-162640000D02*
X93320000Y-162640000D01*
X93320000Y-162640000D02*
X93320000Y-162640000D01*
X207620000Y-162640000D02*
X207620000Y-162640000D01*
X207620000Y-162640000D02*
X207620000Y-150020000D01*
X207620000Y-150020000D02*
X207620000Y-150020000D01*
X207620000Y-150020000D02*
X207620000Y-162640000D01*
X207620000Y-150020000D02*
X201500000Y-150020000D01*
X201500000Y-150020000D02*
X201500000Y-150020000D01*
X201500000Y-150020000D02*
X207620000Y-150020000D01*
X207620000Y-150020000D02*
X207620000Y-150020000D01*
D12*
%TO.C,C5*%
X61835580Y-117870000D02*
X61554420Y-117870000D01*
X61835580Y-116850000D02*
X61554420Y-116850000D01*
%TO.C,C6*%
X67060000Y-109240580D02*
X67060000Y-108959420D01*
X68080000Y-109240580D02*
X68080000Y-108959420D01*
%TO.C,J3*%
X212713000Y-100300000D02*
G75*
G03*
X212713000Y-100300000I-381000J0D01*
G01*
X97143000Y-97404400D02*
X97143000Y-108250200D01*
X211697000Y-97404400D02*
X97143000Y-97404400D01*
X211697000Y-108250200D02*
X211697000Y-97404400D01*
X97143000Y-108250200D02*
X211697000Y-108250200D01*
%TO.C,S1*%
D10*
X84763095Y-103624761D02*
X84905952Y-103672380D01*
X85144047Y-103672380D01*
X85239285Y-103624761D01*
X85286904Y-103577142D01*
X85334523Y-103481904D01*
X85334523Y-103386666D01*
X85286904Y-103291428D01*
X85239285Y-103243809D01*
X85144047Y-103196190D01*
X84953571Y-103148571D01*
X84858333Y-103100952D01*
X84810714Y-103053333D01*
X84763095Y-102958095D01*
X84763095Y-102862857D01*
X84810714Y-102767619D01*
X84858333Y-102720000D01*
X84953571Y-102672380D01*
X85191666Y-102672380D01*
X85334523Y-102720000D01*
X86286904Y-103672380D02*
X85715476Y-103672380D01*
X86001190Y-103672380D02*
X86001190Y-102672380D01*
X85905952Y-102815238D01*
X85810714Y-102910476D01*
X85715476Y-102958095D01*
%TO.C,J4*%
X164256666Y-127792380D02*
X164256666Y-128506666D01*
X164209047Y-128649523D01*
X164113809Y-128744761D01*
X163970952Y-128792380D01*
X163875714Y-128792380D01*
X165161428Y-128125714D02*
X165161428Y-128792380D01*
X164923333Y-127744761D02*
X164685238Y-128459047D01*
X165304285Y-128459047D01*
X160875714Y-127792380D02*
X160399523Y-127792380D01*
X160351904Y-128268571D01*
X160399523Y-128220952D01*
X160494761Y-128173333D01*
X160732857Y-128173333D01*
X160828095Y-128220952D01*
X160875714Y-128268571D01*
X160923333Y-128363809D01*
X160923333Y-128601904D01*
X160875714Y-128697142D01*
X160828095Y-128744761D01*
X160732857Y-128792380D01*
X160494761Y-128792380D01*
X160399523Y-128744761D01*
X160351904Y-128697142D01*
X161828095Y-127792380D02*
X161351904Y-127792380D01*
X161304285Y-128268571D01*
X161351904Y-128220952D01*
X161447142Y-128173333D01*
X161685238Y-128173333D01*
X161780476Y-128220952D01*
X161828095Y-128268571D01*
X161875714Y-128363809D01*
X161875714Y-128601904D01*
X161828095Y-128697142D01*
X161780476Y-128744761D01*
X161685238Y-128792380D01*
X161447142Y-128792380D01*
X161351904Y-128744761D01*
X161304285Y-128697142D01*
X162209047Y-127792380D02*
X162828095Y-127792380D01*
X162494761Y-128173333D01*
X162637619Y-128173333D01*
X162732857Y-128220952D01*
X162780476Y-128268571D01*
X162828095Y-128363809D01*
X162828095Y-128601904D01*
X162780476Y-128697142D01*
X162732857Y-128744761D01*
X162637619Y-128792380D01*
X162351904Y-128792380D01*
X162256666Y-128744761D01*
X162209047Y-128697142D01*
X163732857Y-127792380D02*
X163256666Y-127792380D01*
X163209047Y-128268571D01*
X163256666Y-128220952D01*
X163351904Y-128173333D01*
X163590000Y-128173333D01*
X163685238Y-128220952D01*
X163732857Y-128268571D01*
X163780476Y-128363809D01*
X163780476Y-128601904D01*
X163732857Y-128697142D01*
X163685238Y-128744761D01*
X163590000Y-128792380D01*
X163351904Y-128792380D01*
X163256666Y-128744761D01*
X163209047Y-128697142D01*
X164399523Y-127792380D02*
X164494761Y-127792380D01*
X164590000Y-127840000D01*
X164637619Y-127887619D01*
X164685238Y-127982857D01*
X164732857Y-128173333D01*
X164732857Y-128411428D01*
X164685238Y-128601904D01*
X164637619Y-128697142D01*
X164590000Y-128744761D01*
X164494761Y-128792380D01*
X164399523Y-128792380D01*
X164304285Y-128744761D01*
X164256666Y-128697142D01*
X164209047Y-128601904D01*
X164161428Y-128411428D01*
X164161428Y-128173333D01*
X164209047Y-127982857D01*
X164256666Y-127887619D01*
X164304285Y-127840000D01*
X164399523Y-127792380D01*
X165209047Y-128792380D02*
X165399523Y-128792380D01*
X165494761Y-128744761D01*
X165542380Y-128697142D01*
X165637619Y-128554285D01*
X165685238Y-128363809D01*
X165685238Y-127982857D01*
X165637619Y-127887619D01*
X165590000Y-127840000D01*
X165494761Y-127792380D01*
X165304285Y-127792380D01*
X165209047Y-127840000D01*
X165161428Y-127887619D01*
X165113809Y-127982857D01*
X165113809Y-128220952D01*
X165161428Y-128316190D01*
X165209047Y-128363809D01*
X165304285Y-128411428D01*
X165494761Y-128411428D01*
X165590000Y-128363809D01*
X165637619Y-128316190D01*
X165685238Y-128220952D01*
X166256666Y-128220952D02*
X166161428Y-128173333D01*
X166113809Y-128125714D01*
X166066190Y-128030476D01*
X166066190Y-127982857D01*
X166113809Y-127887619D01*
X166161428Y-127840000D01*
X166256666Y-127792380D01*
X166447142Y-127792380D01*
X166542380Y-127840000D01*
X166590000Y-127887619D01*
X166637619Y-127982857D01*
X166637619Y-128030476D01*
X166590000Y-128125714D01*
X166542380Y-128173333D01*
X166447142Y-128220952D01*
X166256666Y-128220952D01*
X166161428Y-128268571D01*
X166113809Y-128316190D01*
X166066190Y-128411428D01*
X166066190Y-128601904D01*
X166113809Y-128697142D01*
X166161428Y-128744761D01*
X166256666Y-128792380D01*
X166447142Y-128792380D01*
X166542380Y-128744761D01*
X166590000Y-128697142D01*
X166637619Y-128601904D01*
X166637619Y-128411428D01*
X166590000Y-128316190D01*
X166542380Y-128268571D01*
X166447142Y-128220952D01*
X167066190Y-128411428D02*
X167828095Y-128411428D01*
X168780476Y-127792380D02*
X168304285Y-127792380D01*
X168256666Y-128268571D01*
X168304285Y-128220952D01*
X168399523Y-128173333D01*
X168637619Y-128173333D01*
X168732857Y-128220952D01*
X168780476Y-128268571D01*
X168828095Y-128363809D01*
X168828095Y-128601904D01*
X168780476Y-128697142D01*
X168732857Y-128744761D01*
X168637619Y-128792380D01*
X168399523Y-128792380D01*
X168304285Y-128744761D01*
X168256666Y-128697142D01*
X112842342Y-131237142D02*
X112794723Y-131284761D01*
X112651866Y-131332380D01*
X112556628Y-131332380D01*
X112413771Y-131284761D01*
X112318533Y-131189523D01*
X112270914Y-131094285D01*
X112223295Y-130903809D01*
X112223295Y-130760952D01*
X112270914Y-130570476D01*
X112318533Y-130475238D01*
X112413771Y-130380000D01*
X112556628Y-130332380D01*
X112651866Y-130332380D01*
X112794723Y-130380000D01*
X112842342Y-130427619D01*
X113699485Y-130665714D02*
X113699485Y-131332380D01*
X113461390Y-130284761D02*
X113223295Y-130999047D01*
X113842342Y-130999047D01*
X114413771Y-130332380D02*
X114509009Y-130332380D01*
X114604247Y-130380000D01*
X114651866Y-130427619D01*
X114699485Y-130522857D01*
X114747104Y-130713333D01*
X114747104Y-130951428D01*
X114699485Y-131141904D01*
X114651866Y-131237142D01*
X114604247Y-131284761D01*
X114509009Y-131332380D01*
X114413771Y-131332380D01*
X114318533Y-131284761D01*
X114270914Y-131237142D01*
X114223295Y-131141904D01*
X114175676Y-130951428D01*
X114175676Y-130713333D01*
X114223295Y-130522857D01*
X114270914Y-130427619D01*
X114318533Y-130380000D01*
X114413771Y-130332380D01*
X112294723Y-125966666D02*
X112770914Y-125966666D01*
X112199485Y-126252380D02*
X112532819Y-125252380D01*
X112866152Y-126252380D01*
X113628057Y-125585714D02*
X113628057Y-126252380D01*
X113389961Y-125204761D02*
X113151866Y-125919047D01*
X113770914Y-125919047D01*
X114342342Y-125252380D02*
X114437580Y-125252380D01*
X114532819Y-125300000D01*
X114580438Y-125347619D01*
X114628057Y-125442857D01*
X114675676Y-125633333D01*
X114675676Y-125871428D01*
X114628057Y-126061904D01*
X114580438Y-126157142D01*
X114532819Y-126204761D01*
X114437580Y-126252380D01*
X114342342Y-126252380D01*
X114247104Y-126204761D01*
X114199485Y-126157142D01*
X114151866Y-126061904D01*
X114104247Y-125871428D01*
X114104247Y-125633333D01*
X114151866Y-125442857D01*
X114199485Y-125347619D01*
X114247104Y-125300000D01*
X114342342Y-125252380D01*
X215528133Y-131237142D02*
X215480514Y-131284761D01*
X215337657Y-131332380D01*
X215242419Y-131332380D01*
X215099561Y-131284761D01*
X215004323Y-131189523D01*
X214956704Y-131094285D01*
X214909085Y-130903809D01*
X214909085Y-130760952D01*
X214956704Y-130570476D01*
X215004323Y-130475238D01*
X215099561Y-130380000D01*
X215242419Y-130332380D01*
X215337657Y-130332380D01*
X215480514Y-130380000D01*
X215528133Y-130427619D01*
X216480514Y-131332380D02*
X215909085Y-131332380D01*
X216194800Y-131332380D02*
X216194800Y-130332380D01*
X216099561Y-130475238D01*
X216004323Y-130570476D01*
X215909085Y-130618095D01*
X214980514Y-125966666D02*
X215456704Y-125966666D01*
X214885276Y-126252380D02*
X215218609Y-125252380D01*
X215551942Y-126252380D01*
X216409085Y-126252380D02*
X215837657Y-126252380D01*
X216123371Y-126252380D02*
X216123371Y-125252380D01*
X216028133Y-125395238D01*
X215932895Y-125490476D01*
X215837657Y-125538095D01*
X214120000Y-125252380D02*
X214120000Y-125490476D01*
X213881904Y-125395238D02*
X214120000Y-125490476D01*
X214358095Y-125395238D01*
X213977142Y-125680952D02*
X214120000Y-125490476D01*
X214262857Y-125680952D01*
%TO.C,C16*%
X86987142Y-106702857D02*
X87034761Y-106750476D01*
X87082380Y-106893333D01*
X87082380Y-106988571D01*
X87034761Y-107131428D01*
X86939523Y-107226666D01*
X86844285Y-107274285D01*
X86653809Y-107321904D01*
X86510952Y-107321904D01*
X86320476Y-107274285D01*
X86225238Y-107226666D01*
X86130000Y-107131428D01*
X86082380Y-106988571D01*
X86082380Y-106893333D01*
X86130000Y-106750476D01*
X86177619Y-106702857D01*
X87082380Y-105750476D02*
X87082380Y-106321904D01*
X87082380Y-106036190D02*
X86082380Y-106036190D01*
X86225238Y-106131428D01*
X86320476Y-106226666D01*
X86368095Y-106321904D01*
X86082380Y-104893333D02*
X86082380Y-105083809D01*
X86130000Y-105179047D01*
X86177619Y-105226666D01*
X86320476Y-105321904D01*
X86510952Y-105369523D01*
X86891904Y-105369523D01*
X86987142Y-105321904D01*
X87034761Y-105274285D01*
X87082380Y-105179047D01*
X87082380Y-104988571D01*
X87034761Y-104893333D01*
X86987142Y-104845714D01*
X86891904Y-104798095D01*
X86653809Y-104798095D01*
X86558571Y-104845714D01*
X86510952Y-104893333D01*
X86463333Y-104988571D01*
X86463333Y-105179047D01*
X86510952Y-105274285D01*
X86558571Y-105321904D01*
X86653809Y-105369523D01*
%TO.C,X1*%
X77380476Y-141552380D02*
X78047142Y-142552380D01*
X78047142Y-141552380D02*
X77380476Y-142552380D01*
X78951904Y-142552380D02*
X78380476Y-142552380D01*
X78666190Y-142552380D02*
X78666190Y-141552380D01*
X78570952Y-141695238D01*
X78475714Y-141790476D01*
X78380476Y-141838095D01*
%TO.C,C15*%
X84367142Y-146872857D02*
X84414761Y-146920476D01*
X84462380Y-147063333D01*
X84462380Y-147158571D01*
X84414761Y-147301428D01*
X84319523Y-147396666D01*
X84224285Y-147444285D01*
X84033809Y-147491904D01*
X83890952Y-147491904D01*
X83700476Y-147444285D01*
X83605238Y-147396666D01*
X83510000Y-147301428D01*
X83462380Y-147158571D01*
X83462380Y-147063333D01*
X83510000Y-146920476D01*
X83557619Y-146872857D01*
X84462380Y-145920476D02*
X84462380Y-146491904D01*
X84462380Y-146206190D02*
X83462380Y-146206190D01*
X83605238Y-146301428D01*
X83700476Y-146396666D01*
X83748095Y-146491904D01*
X83462380Y-145015714D02*
X83462380Y-145491904D01*
X83938571Y-145539523D01*
X83890952Y-145491904D01*
X83843333Y-145396666D01*
X83843333Y-145158571D01*
X83890952Y-145063333D01*
X83938571Y-145015714D01*
X84033809Y-144968095D01*
X84271904Y-144968095D01*
X84367142Y-145015714D01*
X84414761Y-145063333D01*
X84462380Y-145158571D01*
X84462380Y-145396666D01*
X84414761Y-145491904D01*
X84367142Y-145539523D01*
%TO.C,U1*%
X73738095Y-104802380D02*
X73738095Y-105611904D01*
X73785714Y-105707142D01*
X73833333Y-105754761D01*
X73928571Y-105802380D01*
X74119047Y-105802380D01*
X74214285Y-105754761D01*
X74261904Y-105707142D01*
X74309523Y-105611904D01*
X74309523Y-104802380D01*
X75309523Y-105802380D02*
X74738095Y-105802380D01*
X75023809Y-105802380D02*
X75023809Y-104802380D01*
X74928571Y-104945238D01*
X74833333Y-105040476D01*
X74738095Y-105088095D01*
%TO.C,R5*%
X89323333Y-103662380D02*
X88990000Y-103186190D01*
X88751904Y-103662380D02*
X88751904Y-102662380D01*
X89132857Y-102662380D01*
X89228095Y-102710000D01*
X89275714Y-102757619D01*
X89323333Y-102852857D01*
X89323333Y-102995714D01*
X89275714Y-103090952D01*
X89228095Y-103138571D01*
X89132857Y-103186190D01*
X88751904Y-103186190D01*
X90228095Y-102662380D02*
X89751904Y-102662380D01*
X89704285Y-103138571D01*
X89751904Y-103090952D01*
X89847142Y-103043333D01*
X90085238Y-103043333D01*
X90180476Y-103090952D01*
X90228095Y-103138571D01*
X90275714Y-103233809D01*
X90275714Y-103471904D01*
X90228095Y-103567142D01*
X90180476Y-103614761D01*
X90085238Y-103662380D01*
X89847142Y-103662380D01*
X89751904Y-103614761D01*
X89704285Y-103567142D01*
%TO.C,R4*%
X80423333Y-103702380D02*
X80090000Y-103226190D01*
X79851904Y-103702380D02*
X79851904Y-102702380D01*
X80232857Y-102702380D01*
X80328095Y-102750000D01*
X80375714Y-102797619D01*
X80423333Y-102892857D01*
X80423333Y-103035714D01*
X80375714Y-103130952D01*
X80328095Y-103178571D01*
X80232857Y-103226190D01*
X79851904Y-103226190D01*
X81280476Y-103035714D02*
X81280476Y-103702380D01*
X81042380Y-102654761D02*
X80804285Y-103369047D01*
X81423333Y-103369047D01*
%TO.C,C14*%
X80987142Y-108102857D02*
X81034761Y-108150476D01*
X81082380Y-108293333D01*
X81082380Y-108388571D01*
X81034761Y-108531428D01*
X80939523Y-108626666D01*
X80844285Y-108674285D01*
X80653809Y-108721904D01*
X80510952Y-108721904D01*
X80320476Y-108674285D01*
X80225238Y-108626666D01*
X80130000Y-108531428D01*
X80082380Y-108388571D01*
X80082380Y-108293333D01*
X80130000Y-108150476D01*
X80177619Y-108102857D01*
X81082380Y-107150476D02*
X81082380Y-107721904D01*
X81082380Y-107436190D02*
X80082380Y-107436190D01*
X80225238Y-107531428D01*
X80320476Y-107626666D01*
X80368095Y-107721904D01*
X80415714Y-106293333D02*
X81082380Y-106293333D01*
X80034761Y-106531428D02*
X80749047Y-106769523D01*
X80749047Y-106150476D01*
%TO.C,C7*%
X89883333Y-143107142D02*
X89835714Y-143154761D01*
X89692857Y-143202380D01*
X89597619Y-143202380D01*
X89454761Y-143154761D01*
X89359523Y-143059523D01*
X89311904Y-142964285D01*
X89264285Y-142773809D01*
X89264285Y-142630952D01*
X89311904Y-142440476D01*
X89359523Y-142345238D01*
X89454761Y-142250000D01*
X89597619Y-142202380D01*
X89692857Y-142202380D01*
X89835714Y-142250000D01*
X89883333Y-142297619D01*
X90216666Y-142202380D02*
X90883333Y-142202380D01*
X90454761Y-143202380D01*
%TO.C,C4*%
X98913333Y-124137142D02*
X98865714Y-124184761D01*
X98722857Y-124232380D01*
X98627619Y-124232380D01*
X98484761Y-124184761D01*
X98389523Y-124089523D01*
X98341904Y-123994285D01*
X98294285Y-123803809D01*
X98294285Y-123660952D01*
X98341904Y-123470476D01*
X98389523Y-123375238D01*
X98484761Y-123280000D01*
X98627619Y-123232380D01*
X98722857Y-123232380D01*
X98865714Y-123280000D01*
X98913333Y-123327619D01*
X99770476Y-123565714D02*
X99770476Y-124232380D01*
X99532380Y-123184761D02*
X99294285Y-123899047D01*
X99913333Y-123899047D01*
%TO.C,C3*%
X84447142Y-106656666D02*
X84494761Y-106704285D01*
X84542380Y-106847142D01*
X84542380Y-106942380D01*
X84494761Y-107085238D01*
X84399523Y-107180476D01*
X84304285Y-107228095D01*
X84113809Y-107275714D01*
X83970952Y-107275714D01*
X83780476Y-107228095D01*
X83685238Y-107180476D01*
X83590000Y-107085238D01*
X83542380Y-106942380D01*
X83542380Y-106847142D01*
X83590000Y-106704285D01*
X83637619Y-106656666D01*
X83542380Y-106323333D02*
X83542380Y-105704285D01*
X83923333Y-106037619D01*
X83923333Y-105894761D01*
X83970952Y-105799523D01*
X84018571Y-105751904D01*
X84113809Y-105704285D01*
X84351904Y-105704285D01*
X84447142Y-105751904D01*
X84494761Y-105799523D01*
X84542380Y-105894761D01*
X84542380Y-106180476D01*
X84494761Y-106275714D01*
X84447142Y-106323333D01*
%TO.C,C2*%
X58627142Y-123866666D02*
X58674761Y-123914285D01*
X58722380Y-124057142D01*
X58722380Y-124152380D01*
X58674761Y-124295238D01*
X58579523Y-124390476D01*
X58484285Y-124438095D01*
X58293809Y-124485714D01*
X58150952Y-124485714D01*
X57960476Y-124438095D01*
X57865238Y-124390476D01*
X57770000Y-124295238D01*
X57722380Y-124152380D01*
X57722380Y-124057142D01*
X57770000Y-123914285D01*
X57817619Y-123866666D01*
X57817619Y-123485714D02*
X57770000Y-123438095D01*
X57722380Y-123342857D01*
X57722380Y-123104761D01*
X57770000Y-123009523D01*
X57817619Y-122961904D01*
X57912857Y-122914285D01*
X58008095Y-122914285D01*
X58150952Y-122961904D01*
X58722380Y-123533333D01*
X58722380Y-122914285D01*
%TO.C,C1*%
X58567142Y-134146666D02*
X58614761Y-134194285D01*
X58662380Y-134337142D01*
X58662380Y-134432380D01*
X58614761Y-134575238D01*
X58519523Y-134670476D01*
X58424285Y-134718095D01*
X58233809Y-134765714D01*
X58090952Y-134765714D01*
X57900476Y-134718095D01*
X57805238Y-134670476D01*
X57710000Y-134575238D01*
X57662380Y-134432380D01*
X57662380Y-134337142D01*
X57710000Y-134194285D01*
X57757619Y-134146666D01*
X58662380Y-133194285D02*
X58662380Y-133765714D01*
X58662380Y-133480000D02*
X57662380Y-133480000D01*
X57805238Y-133575238D01*
X57900476Y-133670476D01*
X57948095Y-133765714D01*
%TO.C,J2*%
X93216666Y-138212380D02*
X93216666Y-138926666D01*
X93169047Y-139069523D01*
X93073809Y-139164761D01*
X92930952Y-139212380D01*
X92835714Y-139212380D01*
X93645238Y-138307619D02*
X93692857Y-138260000D01*
X93788095Y-138212380D01*
X94026190Y-138212380D01*
X94121428Y-138260000D01*
X94169047Y-138307619D01*
X94216666Y-138402857D01*
X94216666Y-138498095D01*
X94169047Y-138640952D01*
X93597619Y-139212380D01*
X94216666Y-139212380D01*
X67855714Y-112632380D02*
X67284285Y-112632380D01*
X67570000Y-112632380D02*
X67570000Y-111632380D01*
X67474761Y-111775238D01*
X67379523Y-111870476D01*
X67284285Y-111918095D01*
X64891904Y-114876666D02*
X65368095Y-114876666D01*
X64796666Y-115162380D02*
X65130000Y-114162380D01*
X65463333Y-115162380D01*
%TO.C,C13*%
X58462142Y-138322857D02*
X58509761Y-138370476D01*
X58557380Y-138513333D01*
X58557380Y-138608571D01*
X58509761Y-138751428D01*
X58414523Y-138846666D01*
X58319285Y-138894285D01*
X58128809Y-138941904D01*
X57985952Y-138941904D01*
X57795476Y-138894285D01*
X57700238Y-138846666D01*
X57605000Y-138751428D01*
X57557380Y-138608571D01*
X57557380Y-138513333D01*
X57605000Y-138370476D01*
X57652619Y-138322857D01*
X58557380Y-137370476D02*
X58557380Y-137941904D01*
X58557380Y-137656190D02*
X57557380Y-137656190D01*
X57700238Y-137751428D01*
X57795476Y-137846666D01*
X57843095Y-137941904D01*
X57557380Y-137037142D02*
X57557380Y-136418095D01*
X57938333Y-136751428D01*
X57938333Y-136608571D01*
X57985952Y-136513333D01*
X58033571Y-136465714D01*
X58128809Y-136418095D01*
X58366904Y-136418095D01*
X58462142Y-136465714D01*
X58509761Y-136513333D01*
X58557380Y-136608571D01*
X58557380Y-136894285D01*
X58509761Y-136989523D01*
X58462142Y-137037142D01*
%TO.C,C8*%
X80473333Y-143047142D02*
X80425714Y-143094761D01*
X80282857Y-143142380D01*
X80187619Y-143142380D01*
X80044761Y-143094761D01*
X79949523Y-142999523D01*
X79901904Y-142904285D01*
X79854285Y-142713809D01*
X79854285Y-142570952D01*
X79901904Y-142380476D01*
X79949523Y-142285238D01*
X80044761Y-142190000D01*
X80187619Y-142142380D01*
X80282857Y-142142380D01*
X80425714Y-142190000D01*
X80473333Y-142237619D01*
X81044761Y-142570952D02*
X80949523Y-142523333D01*
X80901904Y-142475714D01*
X80854285Y-142380476D01*
X80854285Y-142332857D01*
X80901904Y-142237619D01*
X80949523Y-142190000D01*
X81044761Y-142142380D01*
X81235238Y-142142380D01*
X81330476Y-142190000D01*
X81378095Y-142237619D01*
X81425714Y-142332857D01*
X81425714Y-142380476D01*
X81378095Y-142475714D01*
X81330476Y-142523333D01*
X81235238Y-142570952D01*
X81044761Y-142570952D01*
X80949523Y-142618571D01*
X80901904Y-142666190D01*
X80854285Y-142761428D01*
X80854285Y-142951904D01*
X80901904Y-143047142D01*
X80949523Y-143094761D01*
X81044761Y-143142380D01*
X81235238Y-143142380D01*
X81330476Y-143094761D01*
X81378095Y-143047142D01*
X81425714Y-142951904D01*
X81425714Y-142761428D01*
X81378095Y-142666190D01*
X81330476Y-142618571D01*
X81235238Y-142570952D01*
%TO.C,C12*%
X58407142Y-115482857D02*
X58454761Y-115530476D01*
X58502380Y-115673333D01*
X58502380Y-115768571D01*
X58454761Y-115911428D01*
X58359523Y-116006666D01*
X58264285Y-116054285D01*
X58073809Y-116101904D01*
X57930952Y-116101904D01*
X57740476Y-116054285D01*
X57645238Y-116006666D01*
X57550000Y-115911428D01*
X57502380Y-115768571D01*
X57502380Y-115673333D01*
X57550000Y-115530476D01*
X57597619Y-115482857D01*
X58502380Y-114530476D02*
X58502380Y-115101904D01*
X58502380Y-114816190D02*
X57502380Y-114816190D01*
X57645238Y-114911428D01*
X57740476Y-115006666D01*
X57788095Y-115101904D01*
X57597619Y-114149523D02*
X57550000Y-114101904D01*
X57502380Y-114006666D01*
X57502380Y-113768571D01*
X57550000Y-113673333D01*
X57597619Y-113625714D01*
X57692857Y-113578095D01*
X57788095Y-113578095D01*
X57930952Y-113625714D01*
X58502380Y-114197142D01*
X58502380Y-113578095D01*
%TO.C,C11*%
X100137142Y-126737142D02*
X100089523Y-126784761D01*
X99946666Y-126832380D01*
X99851428Y-126832380D01*
X99708571Y-126784761D01*
X99613333Y-126689523D01*
X99565714Y-126594285D01*
X99518095Y-126403809D01*
X99518095Y-126260952D01*
X99565714Y-126070476D01*
X99613333Y-125975238D01*
X99708571Y-125880000D01*
X99851428Y-125832380D01*
X99946666Y-125832380D01*
X100089523Y-125880000D01*
X100137142Y-125927619D01*
X101089523Y-126832380D02*
X100518095Y-126832380D01*
X100803809Y-126832380D02*
X100803809Y-125832380D01*
X100708571Y-125975238D01*
X100613333Y-126070476D01*
X100518095Y-126118095D01*
X102041904Y-126832380D02*
X101470476Y-126832380D01*
X101756190Y-126832380D02*
X101756190Y-125832380D01*
X101660952Y-125975238D01*
X101565714Y-126070476D01*
X101470476Y-126118095D01*
%TO.C,C10*%
X81367142Y-147012857D02*
X81414761Y-147060476D01*
X81462380Y-147203333D01*
X81462380Y-147298571D01*
X81414761Y-147441428D01*
X81319523Y-147536666D01*
X81224285Y-147584285D01*
X81033809Y-147631904D01*
X80890952Y-147631904D01*
X80700476Y-147584285D01*
X80605238Y-147536666D01*
X80510000Y-147441428D01*
X80462380Y-147298571D01*
X80462380Y-147203333D01*
X80510000Y-147060476D01*
X80557619Y-147012857D01*
X81462380Y-146060476D02*
X81462380Y-146631904D01*
X81462380Y-146346190D02*
X80462380Y-146346190D01*
X80605238Y-146441428D01*
X80700476Y-146536666D01*
X80748095Y-146631904D01*
X80462380Y-145441428D02*
X80462380Y-145346190D01*
X80510000Y-145250952D01*
X80557619Y-145203333D01*
X80652857Y-145155714D01*
X80843333Y-145108095D01*
X81081428Y-145108095D01*
X81271904Y-145155714D01*
X81367142Y-145203333D01*
X81414761Y-145250952D01*
X81462380Y-145346190D01*
X81462380Y-145441428D01*
X81414761Y-145536666D01*
X81367142Y-145584285D01*
X81271904Y-145631904D01*
X81081428Y-145679523D01*
X80843333Y-145679523D01*
X80652857Y-145631904D01*
X80557619Y-145584285D01*
X80510000Y-145536666D01*
X80462380Y-145441428D01*
%TO.C,C9*%
X79337142Y-146986666D02*
X79384761Y-147034285D01*
X79432380Y-147177142D01*
X79432380Y-147272380D01*
X79384761Y-147415238D01*
X79289523Y-147510476D01*
X79194285Y-147558095D01*
X79003809Y-147605714D01*
X78860952Y-147605714D01*
X78670476Y-147558095D01*
X78575238Y-147510476D01*
X78480000Y-147415238D01*
X78432380Y-147272380D01*
X78432380Y-147177142D01*
X78480000Y-147034285D01*
X78527619Y-146986666D01*
X79432380Y-146510476D02*
X79432380Y-146320000D01*
X79384761Y-146224761D01*
X79337142Y-146177142D01*
X79194285Y-146081904D01*
X79003809Y-146034285D01*
X78622857Y-146034285D01*
X78527619Y-146081904D01*
X78480000Y-146129523D01*
X78432380Y-146224761D01*
X78432380Y-146415238D01*
X78480000Y-146510476D01*
X78527619Y-146558095D01*
X78622857Y-146605714D01*
X78860952Y-146605714D01*
X78956190Y-146558095D01*
X79003809Y-146510476D01*
X79051428Y-146415238D01*
X79051428Y-146224761D01*
X79003809Y-146129523D01*
X78956190Y-146081904D01*
X78860952Y-146034285D01*
%TO.C,R2*%
X64108333Y-131762380D02*
X63775000Y-131286190D01*
X63536904Y-131762380D02*
X63536904Y-130762380D01*
X63917857Y-130762380D01*
X64013095Y-130810000D01*
X64060714Y-130857619D01*
X64108333Y-130952857D01*
X64108333Y-131095714D01*
X64060714Y-131190952D01*
X64013095Y-131238571D01*
X63917857Y-131286190D01*
X63536904Y-131286190D01*
X64489285Y-130857619D02*
X64536904Y-130810000D01*
X64632142Y-130762380D01*
X64870238Y-130762380D01*
X64965476Y-130810000D01*
X65013095Y-130857619D01*
X65060714Y-130952857D01*
X65060714Y-131048095D01*
X65013095Y-131190952D01*
X64441666Y-131762380D01*
X65060714Y-131762380D01*
%TO.C,R1*%
X64018333Y-128032380D02*
X63685000Y-127556190D01*
X63446904Y-128032380D02*
X63446904Y-127032380D01*
X63827857Y-127032380D01*
X63923095Y-127080000D01*
X63970714Y-127127619D01*
X64018333Y-127222857D01*
X64018333Y-127365714D01*
X63970714Y-127460952D01*
X63923095Y-127508571D01*
X63827857Y-127556190D01*
X63446904Y-127556190D01*
X64970714Y-128032380D02*
X64399285Y-128032380D01*
X64685000Y-128032380D02*
X64685000Y-127032380D01*
X64589761Y-127175238D01*
X64494523Y-127270476D01*
X64399285Y-127318095D01*
%TO.C,J1*%
D15*
X150046666Y-152683523D02*
X150046666Y-153590666D01*
X149986190Y-153772095D01*
X149865238Y-153893047D01*
X149683809Y-153953523D01*
X149562857Y-153953523D01*
X151316666Y-153953523D02*
X150590952Y-153953523D01*
X150953809Y-153953523D02*
X150953809Y-152683523D01*
X150832857Y-152864952D01*
X150711904Y-152985904D01*
X150590952Y-153046380D01*
%TO.C,C5*%
D10*
X58477142Y-117526666D02*
X58524761Y-117574285D01*
X58572380Y-117717142D01*
X58572380Y-117812380D01*
X58524761Y-117955238D01*
X58429523Y-118050476D01*
X58334285Y-118098095D01*
X58143809Y-118145714D01*
X58000952Y-118145714D01*
X57810476Y-118098095D01*
X57715238Y-118050476D01*
X57620000Y-117955238D01*
X57572380Y-117812380D01*
X57572380Y-117717142D01*
X57620000Y-117574285D01*
X57667619Y-117526666D01*
X57572380Y-116621904D02*
X57572380Y-117098095D01*
X58048571Y-117145714D01*
X58000952Y-117098095D01*
X57953333Y-117002857D01*
X57953333Y-116764761D01*
X58000952Y-116669523D01*
X58048571Y-116621904D01*
X58143809Y-116574285D01*
X58381904Y-116574285D01*
X58477142Y-116621904D01*
X58524761Y-116669523D01*
X58572380Y-116764761D01*
X58572380Y-117002857D01*
X58524761Y-117098095D01*
X58477142Y-117145714D01*
%TO.C,C6*%
X66367142Y-109336666D02*
X66414761Y-109384285D01*
X66462380Y-109527142D01*
X66462380Y-109622380D01*
X66414761Y-109765238D01*
X66319523Y-109860476D01*
X66224285Y-109908095D01*
X66033809Y-109955714D01*
X65890952Y-109955714D01*
X65700476Y-109908095D01*
X65605238Y-109860476D01*
X65510000Y-109765238D01*
X65462380Y-109622380D01*
X65462380Y-109527142D01*
X65510000Y-109384285D01*
X65557619Y-109336666D01*
X65462380Y-108479523D02*
X65462380Y-108670000D01*
X65510000Y-108765238D01*
X65557619Y-108812857D01*
X65700476Y-108908095D01*
X65890952Y-108955714D01*
X66271904Y-108955714D01*
X66367142Y-108908095D01*
X66414761Y-108860476D01*
X66462380Y-108765238D01*
X66462380Y-108574761D01*
X66414761Y-108479523D01*
X66367142Y-108431904D01*
X66271904Y-108384285D01*
X66033809Y-108384285D01*
X65938571Y-108431904D01*
X65890952Y-108479523D01*
X65843333Y-108574761D01*
X65843333Y-108765238D01*
X65890952Y-108860476D01*
X65938571Y-108908095D01*
X66033809Y-108955714D01*
%TO.C,J3*%
X154666666Y-110452380D02*
X154666666Y-111166666D01*
X154619047Y-111309523D01*
X154523809Y-111404761D01*
X154380952Y-111452380D01*
X154285714Y-111452380D01*
X155047619Y-110452380D02*
X155666666Y-110452380D01*
X155333333Y-110833333D01*
X155476190Y-110833333D01*
X155571428Y-110880952D01*
X155619047Y-110928571D01*
X155666666Y-111023809D01*
X155666666Y-111261904D01*
X155619047Y-111357142D01*
X155571428Y-111404761D01*
X155476190Y-111452380D01*
X155190476Y-111452380D01*
X155095238Y-111404761D01*
X155047619Y-111357142D01*
X158285714Y-109452380D02*
X157809523Y-109452380D01*
X157761904Y-109928571D01*
X157809523Y-109880952D01*
X157904761Y-109833333D01*
X158142857Y-109833333D01*
X158238095Y-109880952D01*
X158285714Y-109928571D01*
X158333333Y-110023809D01*
X158333333Y-110261904D01*
X158285714Y-110357142D01*
X158238095Y-110404761D01*
X158142857Y-110452380D01*
X157904761Y-110452380D01*
X157809523Y-110404761D01*
X157761904Y-110357142D01*
X159238095Y-109452380D02*
X158761904Y-109452380D01*
X158714285Y-109928571D01*
X158761904Y-109880952D01*
X158857142Y-109833333D01*
X159095238Y-109833333D01*
X159190476Y-109880952D01*
X159238095Y-109928571D01*
X159285714Y-110023809D01*
X159285714Y-110261904D01*
X159238095Y-110357142D01*
X159190476Y-110404761D01*
X159095238Y-110452380D01*
X158857142Y-110452380D01*
X158761904Y-110404761D01*
X158714285Y-110357142D01*
X159619047Y-109452380D02*
X160238095Y-109452380D01*
X159904761Y-109833333D01*
X160047619Y-109833333D01*
X160142857Y-109880952D01*
X160190476Y-109928571D01*
X160238095Y-110023809D01*
X160238095Y-110261904D01*
X160190476Y-110357142D01*
X160142857Y-110404761D01*
X160047619Y-110452380D01*
X159761904Y-110452380D01*
X159666666Y-110404761D01*
X159619047Y-110357142D01*
X161142857Y-109452380D02*
X160666666Y-109452380D01*
X160619047Y-109928571D01*
X160666666Y-109880952D01*
X160761904Y-109833333D01*
X161000000Y-109833333D01*
X161095238Y-109880952D01*
X161142857Y-109928571D01*
X161190476Y-110023809D01*
X161190476Y-110261904D01*
X161142857Y-110357142D01*
X161095238Y-110404761D01*
X161000000Y-110452380D01*
X160761904Y-110452380D01*
X160666666Y-110404761D01*
X160619047Y-110357142D01*
X161809523Y-109452380D02*
X161904761Y-109452380D01*
X162000000Y-109500000D01*
X162047619Y-109547619D01*
X162095238Y-109642857D01*
X162142857Y-109833333D01*
X162142857Y-110071428D01*
X162095238Y-110261904D01*
X162047619Y-110357142D01*
X162000000Y-110404761D01*
X161904761Y-110452380D01*
X161809523Y-110452380D01*
X161714285Y-110404761D01*
X161666666Y-110357142D01*
X161619047Y-110261904D01*
X161571428Y-110071428D01*
X161571428Y-109833333D01*
X161619047Y-109642857D01*
X161666666Y-109547619D01*
X161714285Y-109500000D01*
X161809523Y-109452380D01*
X162619047Y-110452380D02*
X162809523Y-110452380D01*
X162904761Y-110404761D01*
X162952380Y-110357142D01*
X163047619Y-110214285D01*
X163095238Y-110023809D01*
X163095238Y-109642857D01*
X163047619Y-109547619D01*
X163000000Y-109500000D01*
X162904761Y-109452380D01*
X162714285Y-109452380D01*
X162619047Y-109500000D01*
X162571428Y-109547619D01*
X162523809Y-109642857D01*
X162523809Y-109880952D01*
X162571428Y-109976190D01*
X162619047Y-110023809D01*
X162714285Y-110071428D01*
X162904761Y-110071428D01*
X163000000Y-110023809D01*
X163047619Y-109976190D01*
X163095238Y-109880952D01*
X163666666Y-109880952D02*
X163571428Y-109833333D01*
X163523809Y-109785714D01*
X163476190Y-109690476D01*
X163476190Y-109642857D01*
X163523809Y-109547619D01*
X163571428Y-109500000D01*
X163666666Y-109452380D01*
X163857142Y-109452380D01*
X163952380Y-109500000D01*
X164000000Y-109547619D01*
X164047619Y-109642857D01*
X164047619Y-109690476D01*
X164000000Y-109785714D01*
X163952380Y-109833333D01*
X163857142Y-109880952D01*
X163666666Y-109880952D01*
X163571428Y-109928571D01*
X163523809Y-109976190D01*
X163476190Y-110071428D01*
X163476190Y-110261904D01*
X163523809Y-110357142D01*
X163571428Y-110404761D01*
X163666666Y-110452380D01*
X163857142Y-110452380D01*
X163952380Y-110404761D01*
X164000000Y-110357142D01*
X164047619Y-110261904D01*
X164047619Y-110071428D01*
X164000000Y-109976190D01*
X163952380Y-109928571D01*
X163857142Y-109880952D01*
X164476190Y-110071428D02*
X165238095Y-110071428D01*
X166190476Y-109452380D02*
X165714285Y-109452380D01*
X165666666Y-109928571D01*
X165714285Y-109880952D01*
X165809523Y-109833333D01*
X166047619Y-109833333D01*
X166142857Y-109880952D01*
X166190476Y-109928571D01*
X166238095Y-110023809D01*
X166238095Y-110261904D01*
X166190476Y-110357142D01*
X166142857Y-110404761D01*
X166047619Y-110452380D01*
X165809523Y-110452380D01*
X165714285Y-110404761D01*
X165666666Y-110357142D01*
X102672342Y-105737142D02*
X102624723Y-105784761D01*
X102481866Y-105832380D01*
X102386628Y-105832380D01*
X102243771Y-105784761D01*
X102148533Y-105689523D01*
X102100914Y-105594285D01*
X102053295Y-105403809D01*
X102053295Y-105260952D01*
X102100914Y-105070476D01*
X102148533Y-104975238D01*
X102243771Y-104880000D01*
X102386628Y-104832380D01*
X102481866Y-104832380D01*
X102624723Y-104880000D01*
X102672342Y-104927619D01*
X103529485Y-105165714D02*
X103529485Y-105832380D01*
X103291390Y-104784761D02*
X103053295Y-105499047D01*
X103672342Y-105499047D01*
X104243771Y-104832380D02*
X104339009Y-104832380D01*
X104434247Y-104880000D01*
X104481866Y-104927619D01*
X104529485Y-105022857D01*
X104577104Y-105213333D01*
X104577104Y-105451428D01*
X104529485Y-105641904D01*
X104481866Y-105737142D01*
X104434247Y-105784761D01*
X104339009Y-105832380D01*
X104243771Y-105832380D01*
X104148533Y-105784761D01*
X104100914Y-105737142D01*
X104053295Y-105641904D01*
X104005676Y-105451428D01*
X104005676Y-105213333D01*
X104053295Y-105022857D01*
X104100914Y-104927619D01*
X104148533Y-104880000D01*
X104243771Y-104832380D01*
X102124723Y-100466666D02*
X102600914Y-100466666D01*
X102029485Y-100752380D02*
X102362819Y-99752380D01*
X102696152Y-100752380D01*
X103458057Y-100085714D02*
X103458057Y-100752380D01*
X103219961Y-99704761D02*
X102981866Y-100419047D01*
X103600914Y-100419047D01*
X104172342Y-99752380D02*
X104267580Y-99752380D01*
X104362819Y-99800000D01*
X104410438Y-99847619D01*
X104458057Y-99942857D01*
X104505676Y-100133333D01*
X104505676Y-100371428D01*
X104458057Y-100561904D01*
X104410438Y-100657142D01*
X104362819Y-100704761D01*
X104267580Y-100752380D01*
X104172342Y-100752380D01*
X104077104Y-100704761D01*
X104029485Y-100657142D01*
X103981866Y-100561904D01*
X103934247Y-100371428D01*
X103934247Y-100133333D01*
X103981866Y-99942857D01*
X104029485Y-99847619D01*
X104077104Y-99800000D01*
X104172342Y-99752380D01*
X205358133Y-105737142D02*
X205310514Y-105784761D01*
X205167657Y-105832380D01*
X205072419Y-105832380D01*
X204929561Y-105784761D01*
X204834323Y-105689523D01*
X204786704Y-105594285D01*
X204739085Y-105403809D01*
X204739085Y-105260952D01*
X204786704Y-105070476D01*
X204834323Y-104975238D01*
X204929561Y-104880000D01*
X205072419Y-104832380D01*
X205167657Y-104832380D01*
X205310514Y-104880000D01*
X205358133Y-104927619D01*
X206310514Y-105832380D02*
X205739085Y-105832380D01*
X206024800Y-105832380D02*
X206024800Y-104832380D01*
X205929561Y-104975238D01*
X205834323Y-105070476D01*
X205739085Y-105118095D01*
X204810514Y-100466666D02*
X205286704Y-100466666D01*
X204715276Y-100752380D02*
X205048609Y-99752380D01*
X205381942Y-100752380D01*
X206239085Y-100752380D02*
X205667657Y-100752380D01*
X205953371Y-100752380D02*
X205953371Y-99752380D01*
X205858133Y-99895238D01*
X205762895Y-99990476D01*
X205667657Y-100038095D01*
X203950000Y-99752380D02*
X203950000Y-99990476D01*
X203711904Y-99895238D02*
X203950000Y-99990476D01*
X204188095Y-99895238D01*
X203807142Y-100180952D02*
X203950000Y-99990476D01*
X204092857Y-100180952D01*
%TD*%
M02*
