%TF.GenerationSoftware,KiCad,Pcbnew,(5.1.9-0-10_14)*%
%TF.CreationDate,2023-05-03T15:09:17+02:00*%
%TF.ProjectId,IIsiPDSAdapter,49497369-5044-4534-9164-61707465722e,rev?*%
%TF.SameCoordinates,Original*%
%TF.FileFunction,Soldermask,Top*%
%TF.FilePolarity,Negative*%
%FSLAX46Y46*%
G04 Gerber Fmt 4.6, Leading zero omitted, Abs format (unit mm)*
G04 Created by KiCad (PCBNEW (5.1.9-0-10_14)) date 2023-05-03 15:09:17*
%MOMM*%
%LPD*%
G01*
G04 APERTURE LIST*
%ADD10C,0.800000*%
%ADD11R,0.900000X0.700000*%
%ADD12R,0.600000X0.510000*%
%ADD13C,1.600000*%
%ADD14R,1.600000X1.600000*%
%ADD15R,1.060000X0.650000*%
%ADD16C,1.524000*%
%ADD17R,1.524000X1.524000*%
%ADD18C,4.335000*%
%ADD19C,1.605000*%
%ADD20R,1.605000X1.605000*%
%ADD21C,3.403600*%
%ADD22C,1.574800*%
G04 APERTURE END LIST*
D10*
%TO.C,S1*%
X83500000Y-100000000D03*
X86500000Y-100000000D03*
D11*
X88000000Y-99925000D03*
X82000000Y-99925000D03*
D12*
X86000000Y-101280000D03*
X85000000Y-101280000D03*
X84000000Y-101280000D03*
%TD*%
%TO.C,C16*%
G36*
G01*
X86870000Y-108775000D02*
X86370000Y-108775000D01*
G75*
G02*
X86145000Y-108550000I0J225000D01*
G01*
X86145000Y-108100000D01*
G75*
G02*
X86370000Y-107875000I225000J0D01*
G01*
X86870000Y-107875000D01*
G75*
G02*
X87095000Y-108100000I0J-225000D01*
G01*
X87095000Y-108550000D01*
G75*
G02*
X86870000Y-108775000I-225000J0D01*
G01*
G37*
G36*
G01*
X86870000Y-110325000D02*
X86370000Y-110325000D01*
G75*
G02*
X86145000Y-110100000I0J225000D01*
G01*
X86145000Y-109650000D01*
G75*
G02*
X86370000Y-109425000I225000J0D01*
G01*
X86870000Y-109425000D01*
G75*
G02*
X87095000Y-109650000I0J-225000D01*
G01*
X87095000Y-110100000D01*
G75*
G02*
X86870000Y-110325000I-225000J0D01*
G01*
G37*
%TD*%
%TO.C,X1*%
G36*
G01*
X65820000Y-151900000D02*
X65820000Y-151100000D01*
G75*
G02*
X66220000Y-150700000I400000J0D01*
G01*
X67020000Y-150700000D01*
G75*
G02*
X67420000Y-151100000I0J-400000D01*
G01*
X67420000Y-151900000D01*
G75*
G02*
X67020000Y-152300000I-400000J0D01*
G01*
X66220000Y-152300000D01*
G75*
G02*
X65820000Y-151900000I0J400000D01*
G01*
G37*
D13*
X66620000Y-143880000D03*
X74240000Y-151500000D03*
X74240000Y-143880000D03*
X59000000Y-143880000D03*
D14*
X59000000Y-151500000D03*
%TD*%
%TO.C,C15*%
G36*
G01*
X83574999Y-150800000D02*
X84425001Y-150800000D01*
G75*
G02*
X84675000Y-151049999I0J-249999D01*
G01*
X84675000Y-151950001D01*
G75*
G02*
X84425001Y-152200000I-249999J0D01*
G01*
X83574999Y-152200000D01*
G75*
G02*
X83325000Y-151950001I0J249999D01*
G01*
X83325000Y-151049999D01*
G75*
G02*
X83574999Y-150800000I249999J0D01*
G01*
G37*
G36*
G01*
X83574999Y-148100000D02*
X84425001Y-148100000D01*
G75*
G02*
X84675000Y-148349999I0J-249999D01*
G01*
X84675000Y-149250001D01*
G75*
G02*
X84425001Y-149500000I-249999J0D01*
G01*
X83574999Y-149500000D01*
G75*
G02*
X83325000Y-149250001I0J249999D01*
G01*
X83325000Y-148349999D01*
G75*
G02*
X83574999Y-148100000I249999J0D01*
G01*
G37*
%TD*%
D15*
%TO.C,U1*%
X75600000Y-108250000D03*
X75600000Y-107300000D03*
X75600000Y-109200000D03*
X73400000Y-109200000D03*
X73400000Y-108250000D03*
X73400000Y-107300000D03*
%TD*%
%TO.C,R5*%
G36*
G01*
X86391000Y-102975000D02*
X86391000Y-103525000D01*
G75*
G02*
X86191000Y-103725000I-200000J0D01*
G01*
X85791000Y-103725000D01*
G75*
G02*
X85591000Y-103525000I0J200000D01*
G01*
X85591000Y-102975000D01*
G75*
G02*
X85791000Y-102775000I200000J0D01*
G01*
X86191000Y-102775000D01*
G75*
G02*
X86391000Y-102975000I0J-200000D01*
G01*
G37*
G36*
G01*
X88041000Y-102975000D02*
X88041000Y-103525000D01*
G75*
G02*
X87841000Y-103725000I-200000J0D01*
G01*
X87441000Y-103725000D01*
G75*
G02*
X87241000Y-103525000I0J200000D01*
G01*
X87241000Y-102975000D01*
G75*
G02*
X87441000Y-102775000I200000J0D01*
G01*
X87841000Y-102775000D01*
G75*
G02*
X88041000Y-102975000I0J-200000D01*
G01*
G37*
%TD*%
%TO.C,R4*%
G36*
G01*
X83600000Y-103525000D02*
X83600000Y-102975000D01*
G75*
G02*
X83800000Y-102775000I200000J0D01*
G01*
X84200000Y-102775000D01*
G75*
G02*
X84400000Y-102975000I0J-200000D01*
G01*
X84400000Y-103525000D01*
G75*
G02*
X84200000Y-103725000I-200000J0D01*
G01*
X83800000Y-103725000D01*
G75*
G02*
X83600000Y-103525000I0J200000D01*
G01*
G37*
G36*
G01*
X81950000Y-103525000D02*
X81950000Y-102975000D01*
G75*
G02*
X82150000Y-102775000I200000J0D01*
G01*
X82550000Y-102775000D01*
G75*
G02*
X82750000Y-102975000I0J-200000D01*
G01*
X82750000Y-103525000D01*
G75*
G02*
X82550000Y-103725000I-200000J0D01*
G01*
X82150000Y-103725000D01*
G75*
G02*
X81950000Y-103525000I0J200000D01*
G01*
G37*
%TD*%
%TO.C,C14*%
G36*
G01*
X79250000Y-107150000D02*
X78750000Y-107150000D01*
G75*
G02*
X78525000Y-106925000I0J225000D01*
G01*
X78525000Y-106475000D01*
G75*
G02*
X78750000Y-106250000I225000J0D01*
G01*
X79250000Y-106250000D01*
G75*
G02*
X79475000Y-106475000I0J-225000D01*
G01*
X79475000Y-106925000D01*
G75*
G02*
X79250000Y-107150000I-225000J0D01*
G01*
G37*
G36*
G01*
X79250000Y-108700000D02*
X78750000Y-108700000D01*
G75*
G02*
X78525000Y-108475000I0J225000D01*
G01*
X78525000Y-108025000D01*
G75*
G02*
X78750000Y-107800000I225000J0D01*
G01*
X79250000Y-107800000D01*
G75*
G02*
X79475000Y-108025000I0J-225000D01*
G01*
X79475000Y-108475000D01*
G75*
G02*
X79250000Y-108700000I-225000J0D01*
G01*
G37*
%TD*%
%TO.C,C7*%
G36*
G01*
X87720000Y-143013000D02*
X87720000Y-142513000D01*
G75*
G02*
X87945000Y-142288000I225000J0D01*
G01*
X88395000Y-142288000D01*
G75*
G02*
X88620000Y-142513000I0J-225000D01*
G01*
X88620000Y-143013000D01*
G75*
G02*
X88395000Y-143238000I-225000J0D01*
G01*
X87945000Y-143238000D01*
G75*
G02*
X87720000Y-143013000I0J225000D01*
G01*
G37*
G36*
G01*
X86170000Y-143013000D02*
X86170000Y-142513000D01*
G75*
G02*
X86395000Y-142288000I225000J0D01*
G01*
X86845000Y-142288000D01*
G75*
G02*
X87070000Y-142513000I0J-225000D01*
G01*
X87070000Y-143013000D01*
G75*
G02*
X86845000Y-143238000I-225000J0D01*
G01*
X86395000Y-143238000D01*
G75*
G02*
X86170000Y-143013000I0J225000D01*
G01*
G37*
%TD*%
%TO.C,C4*%
G36*
G01*
X96610000Y-123960000D02*
X96610000Y-123460000D01*
G75*
G02*
X96835000Y-123235000I225000J0D01*
G01*
X97285000Y-123235000D01*
G75*
G02*
X97510000Y-123460000I0J-225000D01*
G01*
X97510000Y-123960000D01*
G75*
G02*
X97285000Y-124185000I-225000J0D01*
G01*
X96835000Y-124185000D01*
G75*
G02*
X96610000Y-123960000I0J225000D01*
G01*
G37*
G36*
G01*
X95060000Y-123960000D02*
X95060000Y-123460000D01*
G75*
G02*
X95285000Y-123235000I225000J0D01*
G01*
X95735000Y-123235000D01*
G75*
G02*
X95960000Y-123460000I0J-225000D01*
G01*
X95960000Y-123960000D01*
G75*
G02*
X95735000Y-124185000I-225000J0D01*
G01*
X95285000Y-124185000D01*
G75*
G02*
X95060000Y-123960000I0J225000D01*
G01*
G37*
%TD*%
%TO.C,C3*%
G36*
G01*
X84330000Y-108775000D02*
X83830000Y-108775000D01*
G75*
G02*
X83605000Y-108550000I0J225000D01*
G01*
X83605000Y-108100000D01*
G75*
G02*
X83830000Y-107875000I225000J0D01*
G01*
X84330000Y-107875000D01*
G75*
G02*
X84555000Y-108100000I0J-225000D01*
G01*
X84555000Y-108550000D01*
G75*
G02*
X84330000Y-108775000I-225000J0D01*
G01*
G37*
G36*
G01*
X84330000Y-110325000D02*
X83830000Y-110325000D01*
G75*
G02*
X83605000Y-110100000I0J225000D01*
G01*
X83605000Y-109650000D01*
G75*
G02*
X83830000Y-109425000I225000J0D01*
G01*
X84330000Y-109425000D01*
G75*
G02*
X84555000Y-109650000I0J-225000D01*
G01*
X84555000Y-110100000D01*
G75*
G02*
X84330000Y-110325000I-225000J0D01*
G01*
G37*
%TD*%
%TO.C,C2*%
G36*
G01*
X61370000Y-123460000D02*
X61370000Y-123960000D01*
G75*
G02*
X61145000Y-124185000I-225000J0D01*
G01*
X60695000Y-124185000D01*
G75*
G02*
X60470000Y-123960000I0J225000D01*
G01*
X60470000Y-123460000D01*
G75*
G02*
X60695000Y-123235000I225000J0D01*
G01*
X61145000Y-123235000D01*
G75*
G02*
X61370000Y-123460000I0J-225000D01*
G01*
G37*
G36*
G01*
X62920000Y-123460000D02*
X62920000Y-123960000D01*
G75*
G02*
X62695000Y-124185000I-225000J0D01*
G01*
X62245000Y-124185000D01*
G75*
G02*
X62020000Y-123960000I0J225000D01*
G01*
X62020000Y-123460000D01*
G75*
G02*
X62245000Y-123235000I225000J0D01*
G01*
X62695000Y-123235000D01*
G75*
G02*
X62920000Y-123460000I0J-225000D01*
G01*
G37*
%TD*%
%TO.C,C1*%
G36*
G01*
X61370000Y-133620000D02*
X61370000Y-134120000D01*
G75*
G02*
X61145000Y-134345000I-225000J0D01*
G01*
X60695000Y-134345000D01*
G75*
G02*
X60470000Y-134120000I0J225000D01*
G01*
X60470000Y-133620000D01*
G75*
G02*
X60695000Y-133395000I225000J0D01*
G01*
X61145000Y-133395000D01*
G75*
G02*
X61370000Y-133620000I0J-225000D01*
G01*
G37*
G36*
G01*
X62920000Y-133620000D02*
X62920000Y-134120000D01*
G75*
G02*
X62695000Y-134345000I-225000J0D01*
G01*
X62245000Y-134345000D01*
G75*
G02*
X62020000Y-134120000I0J225000D01*
G01*
X62020000Y-133620000D01*
G75*
G02*
X62245000Y-133395000I225000J0D01*
G01*
X62695000Y-133395000D01*
G75*
G02*
X62920000Y-133620000I0J-225000D01*
G01*
G37*
%TD*%
D16*
%TO.C,J2*%
X90430000Y-114820000D03*
X87890000Y-114820000D03*
X85350000Y-114820000D03*
X82810000Y-114820000D03*
X80270000Y-114820000D03*
X77730000Y-114820000D03*
X75190000Y-114820000D03*
X72650000Y-114820000D03*
X70110000Y-114820000D03*
D17*
X67570000Y-114820000D03*
D16*
X90430000Y-117360000D03*
X87890000Y-117360000D03*
X85350000Y-117360000D03*
X82810000Y-117360000D03*
X80270000Y-117360000D03*
X77730000Y-117360000D03*
X75190000Y-117360000D03*
X72650000Y-117360000D03*
X70110000Y-117360000D03*
X67570000Y-117360000D03*
X90430000Y-119900000D03*
X87890000Y-119900000D03*
X85350000Y-119900000D03*
X72650000Y-119900000D03*
X70110000Y-119900000D03*
X67570000Y-119900000D03*
X90430000Y-122440000D03*
X87890000Y-122440000D03*
X70110000Y-122440000D03*
X67570000Y-122440000D03*
X90430000Y-124980000D03*
X87890000Y-124980000D03*
X70110000Y-124980000D03*
X67570000Y-124980000D03*
X90430000Y-127520000D03*
X87890000Y-127520000D03*
X70110000Y-127520000D03*
X67570000Y-127520000D03*
X90430000Y-130060000D03*
X87890000Y-130060000D03*
X70110000Y-130060000D03*
X67570000Y-130060000D03*
X90430000Y-132600000D03*
X87890000Y-132600000D03*
X85350000Y-132600000D03*
X72650000Y-132600000D03*
X70110000Y-132600000D03*
X67570000Y-132600000D03*
X90430000Y-135140000D03*
X87890000Y-135140000D03*
X85350000Y-135140000D03*
X82810000Y-135140000D03*
X80270000Y-135140000D03*
X77730000Y-135140000D03*
X75190000Y-135140000D03*
X72650000Y-135140000D03*
X70110000Y-135140000D03*
X67570000Y-135140000D03*
X90430000Y-137680000D03*
X87890000Y-137680000D03*
X85350000Y-137680000D03*
X82810000Y-137680000D03*
X80270000Y-137680000D03*
X77730000Y-137680000D03*
X75190000Y-137680000D03*
X72650000Y-137680000D03*
X70110000Y-137680000D03*
X67570000Y-137680000D03*
%TD*%
%TO.C,C13*%
G36*
G01*
X60470000Y-137254999D02*
X60470000Y-138105001D01*
G75*
G02*
X60220001Y-138355000I-249999J0D01*
G01*
X59319999Y-138355000D01*
G75*
G02*
X59070000Y-138105001I0J249999D01*
G01*
X59070000Y-137254999D01*
G75*
G02*
X59319999Y-137005000I249999J0D01*
G01*
X60220001Y-137005000D01*
G75*
G02*
X60470000Y-137254999I0J-249999D01*
G01*
G37*
G36*
G01*
X63170000Y-137254999D02*
X63170000Y-138105001D01*
G75*
G02*
X62920001Y-138355000I-249999J0D01*
G01*
X62019999Y-138355000D01*
G75*
G02*
X61770000Y-138105001I0J249999D01*
G01*
X61770000Y-137254999D01*
G75*
G02*
X62019999Y-137005000I249999J0D01*
G01*
X62920001Y-137005000D01*
G75*
G02*
X63170000Y-137254999I0J-249999D01*
G01*
G37*
%TD*%
%TO.C,C8*%
G36*
G01*
X82980000Y-142513000D02*
X82980000Y-143013000D01*
G75*
G02*
X82755000Y-143238000I-225000J0D01*
G01*
X82305000Y-143238000D01*
G75*
G02*
X82080000Y-143013000I0J225000D01*
G01*
X82080000Y-142513000D01*
G75*
G02*
X82305000Y-142288000I225000J0D01*
G01*
X82755000Y-142288000D01*
G75*
G02*
X82980000Y-142513000I0J-225000D01*
G01*
G37*
G36*
G01*
X84530000Y-142513000D02*
X84530000Y-143013000D01*
G75*
G02*
X84305000Y-143238000I-225000J0D01*
G01*
X83855000Y-143238000D01*
G75*
G02*
X83630000Y-143013000I0J225000D01*
G01*
X83630000Y-142513000D01*
G75*
G02*
X83855000Y-142288000I225000J0D01*
G01*
X84305000Y-142288000D01*
G75*
G02*
X84530000Y-142513000I0J-225000D01*
G01*
G37*
%TD*%
%TO.C,C12*%
G36*
G01*
X60470000Y-114394999D02*
X60470000Y-115245001D01*
G75*
G02*
X60220001Y-115495000I-249999J0D01*
G01*
X59319999Y-115495000D01*
G75*
G02*
X59070000Y-115245001I0J249999D01*
G01*
X59070000Y-114394999D01*
G75*
G02*
X59319999Y-114145000I249999J0D01*
G01*
X60220001Y-114145000D01*
G75*
G02*
X60470000Y-114394999I0J-249999D01*
G01*
G37*
G36*
G01*
X63170000Y-114394999D02*
X63170000Y-115245001D01*
G75*
G02*
X62920001Y-115495000I-249999J0D01*
G01*
X62019999Y-115495000D01*
G75*
G02*
X61770000Y-115245001I0J249999D01*
G01*
X61770000Y-114394999D01*
G75*
G02*
X62019999Y-114145000I249999J0D01*
G01*
X62920001Y-114145000D01*
G75*
G02*
X63170000Y-114394999I0J-249999D01*
G01*
G37*
%TD*%
%TO.C,C11*%
G36*
G01*
X97510000Y-126675001D02*
X97510000Y-125824999D01*
G75*
G02*
X97759999Y-125575000I249999J0D01*
G01*
X98660001Y-125575000D01*
G75*
G02*
X98910000Y-125824999I0J-249999D01*
G01*
X98910000Y-126675001D01*
G75*
G02*
X98660001Y-126925000I-249999J0D01*
G01*
X97759999Y-126925000D01*
G75*
G02*
X97510000Y-126675001I0J249999D01*
G01*
G37*
G36*
G01*
X94810000Y-126675001D02*
X94810000Y-125824999D01*
G75*
G02*
X95059999Y-125575000I249999J0D01*
G01*
X95960001Y-125575000D01*
G75*
G02*
X96210000Y-125824999I0J-249999D01*
G01*
X96210000Y-126675001D01*
G75*
G02*
X95960001Y-126925000I-249999J0D01*
G01*
X95059999Y-126925000D01*
G75*
G02*
X94810000Y-126675001I0J249999D01*
G01*
G37*
%TD*%
%TO.C,C10*%
G36*
G01*
X80720000Y-151050000D02*
X81220000Y-151050000D01*
G75*
G02*
X81445000Y-151275000I0J-225000D01*
G01*
X81445000Y-151725000D01*
G75*
G02*
X81220000Y-151950000I-225000J0D01*
G01*
X80720000Y-151950000D01*
G75*
G02*
X80495000Y-151725000I0J225000D01*
G01*
X80495000Y-151275000D01*
G75*
G02*
X80720000Y-151050000I225000J0D01*
G01*
G37*
G36*
G01*
X80720000Y-149500000D02*
X81220000Y-149500000D01*
G75*
G02*
X81445000Y-149725000I0J-225000D01*
G01*
X81445000Y-150175000D01*
G75*
G02*
X81220000Y-150400000I-225000J0D01*
G01*
X80720000Y-150400000D01*
G75*
G02*
X80495000Y-150175000I0J225000D01*
G01*
X80495000Y-149725000D01*
G75*
G02*
X80720000Y-149500000I225000J0D01*
G01*
G37*
%TD*%
%TO.C,C9*%
G36*
G01*
X78720000Y-151050000D02*
X79220000Y-151050000D01*
G75*
G02*
X79445000Y-151275000I0J-225000D01*
G01*
X79445000Y-151725000D01*
G75*
G02*
X79220000Y-151950000I-225000J0D01*
G01*
X78720000Y-151950000D01*
G75*
G02*
X78495000Y-151725000I0J225000D01*
G01*
X78495000Y-151275000D01*
G75*
G02*
X78720000Y-151050000I225000J0D01*
G01*
G37*
G36*
G01*
X78720000Y-149500000D02*
X79220000Y-149500000D01*
G75*
G02*
X79445000Y-149725000I0J-225000D01*
G01*
X79445000Y-150175000D01*
G75*
G02*
X79220000Y-150400000I-225000J0D01*
G01*
X78720000Y-150400000D01*
G75*
G02*
X78495000Y-150175000I0J225000D01*
G01*
X78495000Y-149725000D01*
G75*
G02*
X78720000Y-149500000I225000J0D01*
G01*
G37*
%TD*%
%TO.C,R2*%
G36*
G01*
X61220000Y-131055000D02*
X61220000Y-131605000D01*
G75*
G02*
X61020000Y-131805000I-200000J0D01*
G01*
X60620000Y-131805000D01*
G75*
G02*
X60420000Y-131605000I0J200000D01*
G01*
X60420000Y-131055000D01*
G75*
G02*
X60620000Y-130855000I200000J0D01*
G01*
X61020000Y-130855000D01*
G75*
G02*
X61220000Y-131055000I0J-200000D01*
G01*
G37*
G36*
G01*
X62870000Y-131055000D02*
X62870000Y-131605000D01*
G75*
G02*
X62670000Y-131805000I-200000J0D01*
G01*
X62270000Y-131805000D01*
G75*
G02*
X62070000Y-131605000I0J200000D01*
G01*
X62070000Y-131055000D01*
G75*
G02*
X62270000Y-130855000I200000J0D01*
G01*
X62670000Y-130855000D01*
G75*
G02*
X62870000Y-131055000I0J-200000D01*
G01*
G37*
%TD*%
%TO.C,R1*%
G36*
G01*
X61220000Y-127245000D02*
X61220000Y-127795000D01*
G75*
G02*
X61020000Y-127995000I-200000J0D01*
G01*
X60620000Y-127995000D01*
G75*
G02*
X60420000Y-127795000I0J200000D01*
G01*
X60420000Y-127245000D01*
G75*
G02*
X60620000Y-127045000I200000J0D01*
G01*
X61020000Y-127045000D01*
G75*
G02*
X61220000Y-127245000I0J-200000D01*
G01*
G37*
G36*
G01*
X62870000Y-127245000D02*
X62870000Y-127795000D01*
G75*
G02*
X62670000Y-127995000I-200000J0D01*
G01*
X62270000Y-127995000D01*
G75*
G02*
X62070000Y-127795000I0J200000D01*
G01*
X62070000Y-127245000D01*
G75*
G02*
X62270000Y-127045000I200000J0D01*
G01*
X62670000Y-127045000D01*
G75*
G02*
X62870000Y-127245000I0J-200000D01*
G01*
G37*
%TD*%
D18*
%TO.C,J1*%
X95860000Y-152540000D03*
X205080000Y-152540000D03*
D19*
X100940000Y-144920000D03*
X103480000Y-144920000D03*
X106020000Y-144920000D03*
X108560000Y-144920000D03*
X111100000Y-144920000D03*
X113640000Y-144920000D03*
X116180000Y-144920000D03*
X118720000Y-144920000D03*
X121260000Y-144920000D03*
X123800000Y-144920000D03*
X126340000Y-144920000D03*
X128880000Y-144920000D03*
X131420000Y-144920000D03*
X133960000Y-144920000D03*
X136500000Y-144920000D03*
X139040000Y-144920000D03*
X141580000Y-144920000D03*
X144120000Y-144920000D03*
X146660000Y-144920000D03*
X149200000Y-144920000D03*
X151740000Y-144920000D03*
X154280000Y-144920000D03*
X156820000Y-144920000D03*
X159360000Y-144920000D03*
X161900000Y-144920000D03*
X164440000Y-144920000D03*
X166980000Y-144920000D03*
X169520000Y-144920000D03*
X172060000Y-144920000D03*
X174600000Y-144920000D03*
X177140000Y-144920000D03*
X179680000Y-144920000D03*
X182220000Y-144920000D03*
X184760000Y-144920000D03*
X187300000Y-144920000D03*
X189840000Y-144920000D03*
X192380000Y-144920000D03*
X194920000Y-144920000D03*
X197460000Y-144920000D03*
X200000000Y-144920000D03*
X100940000Y-147460000D03*
X103480000Y-147460000D03*
X106020000Y-147460000D03*
X108560000Y-147460000D03*
X111100000Y-147460000D03*
X113640000Y-147460000D03*
X116180000Y-147460000D03*
X118720000Y-147460000D03*
X121260000Y-147460000D03*
X123800000Y-147460000D03*
X126340000Y-147460000D03*
X128880000Y-147460000D03*
X131420000Y-147460000D03*
X133960000Y-147460000D03*
X136500000Y-147460000D03*
X139040000Y-147460000D03*
X141580000Y-147460000D03*
X144120000Y-147460000D03*
X146660000Y-147460000D03*
X149200000Y-147460000D03*
X151740000Y-147460000D03*
X154280000Y-147460000D03*
X156820000Y-147460000D03*
X159360000Y-147460000D03*
X161900000Y-147460000D03*
X164440000Y-147460000D03*
X166980000Y-147460000D03*
X169520000Y-147460000D03*
X172060000Y-147460000D03*
X174600000Y-147460000D03*
X177140000Y-147460000D03*
X179680000Y-147460000D03*
X182220000Y-147460000D03*
X184760000Y-147460000D03*
X187300000Y-147460000D03*
X189840000Y-147460000D03*
X192380000Y-147460000D03*
X194920000Y-147460000D03*
X197460000Y-147460000D03*
X200000000Y-147460000D03*
X100940000Y-150000000D03*
X103480000Y-150000000D03*
X106020000Y-150000000D03*
X108560000Y-150000000D03*
X111100000Y-150000000D03*
X113640000Y-150000000D03*
X116180000Y-150000000D03*
X118720000Y-150000000D03*
X121260000Y-150000000D03*
X123800000Y-150000000D03*
X126340000Y-150000000D03*
X128880000Y-150000000D03*
X131420000Y-150000000D03*
X133960000Y-150000000D03*
X136500000Y-150000000D03*
X139040000Y-150000000D03*
X141580000Y-150000000D03*
X144120000Y-150000000D03*
X146660000Y-150000000D03*
X149200000Y-150000000D03*
X151740000Y-150000000D03*
X154280000Y-150000000D03*
X156820000Y-150000000D03*
X159360000Y-150000000D03*
X161900000Y-150000000D03*
X164440000Y-150000000D03*
X166980000Y-150000000D03*
X169520000Y-150000000D03*
X172060000Y-150000000D03*
X174600000Y-150000000D03*
X177140000Y-150000000D03*
X179680000Y-150000000D03*
X182220000Y-150000000D03*
X184760000Y-150000000D03*
X187300000Y-150000000D03*
X189840000Y-150000000D03*
X192380000Y-150000000D03*
X194920000Y-150000000D03*
X197460000Y-150000000D03*
D20*
X200000000Y-150000000D03*
%TD*%
%TO.C,C5*%
G36*
G01*
X61370000Y-117110000D02*
X61370000Y-117610000D01*
G75*
G02*
X61145000Y-117835000I-225000J0D01*
G01*
X60695000Y-117835000D01*
G75*
G02*
X60470000Y-117610000I0J225000D01*
G01*
X60470000Y-117110000D01*
G75*
G02*
X60695000Y-116885000I225000J0D01*
G01*
X61145000Y-116885000D01*
G75*
G02*
X61370000Y-117110000I0J-225000D01*
G01*
G37*
G36*
G01*
X62920000Y-117110000D02*
X62920000Y-117610000D01*
G75*
G02*
X62695000Y-117835000I-225000J0D01*
G01*
X62245000Y-117835000D01*
G75*
G02*
X62020000Y-117610000I0J225000D01*
G01*
X62020000Y-117110000D01*
G75*
G02*
X62245000Y-116885000I225000J0D01*
G01*
X62695000Y-116885000D01*
G75*
G02*
X62920000Y-117110000I0J-225000D01*
G01*
G37*
%TD*%
%TO.C,C6*%
G36*
G01*
X67820000Y-108775000D02*
X67320000Y-108775000D01*
G75*
G02*
X67095000Y-108550000I0J225000D01*
G01*
X67095000Y-108100000D01*
G75*
G02*
X67320000Y-107875000I225000J0D01*
G01*
X67820000Y-107875000D01*
G75*
G02*
X68045000Y-108100000I0J-225000D01*
G01*
X68045000Y-108550000D01*
G75*
G02*
X67820000Y-108775000I-225000J0D01*
G01*
G37*
G36*
G01*
X67820000Y-110325000D02*
X67320000Y-110325000D01*
G75*
G02*
X67095000Y-110100000I0J225000D01*
G01*
X67095000Y-109650000D01*
G75*
G02*
X67320000Y-109425000I225000J0D01*
G01*
X67820000Y-109425000D01*
G75*
G02*
X68045000Y-109650000I0J-225000D01*
G01*
X68045000Y-110100000D01*
G75*
G02*
X67820000Y-110325000I-225000J0D01*
G01*
G37*
%TD*%
D21*
%TO.C,J3*%
X209576100Y-102535200D03*
X99263900Y-102535200D03*
D22*
X104890000Y-105380000D03*
X107430000Y-105380000D03*
X109970000Y-105380000D03*
X112510000Y-105380000D03*
X115050000Y-105380000D03*
X117590000Y-105380000D03*
X120130000Y-105380000D03*
X122670000Y-105380000D03*
X125210000Y-105380000D03*
X127750000Y-105380000D03*
X130290000Y-105380000D03*
X132830000Y-105380000D03*
X135370000Y-105380000D03*
X137910000Y-105380000D03*
X140450000Y-105380000D03*
X142990000Y-105380000D03*
X145530000Y-105380000D03*
X148070000Y-105380000D03*
X150610000Y-105380000D03*
X153150000Y-105380000D03*
X155690000Y-105380000D03*
X158230000Y-105380000D03*
X160770000Y-105380000D03*
X163310000Y-105380000D03*
X165850000Y-105380000D03*
X168390000Y-105380000D03*
X170930000Y-105380000D03*
X173470000Y-105380000D03*
X176010000Y-105380000D03*
X178550000Y-105380000D03*
X181090000Y-105380000D03*
X183630000Y-105380000D03*
X186170000Y-105380000D03*
X188710000Y-105380000D03*
X191250000Y-105380000D03*
X193790000Y-105380000D03*
X196330000Y-105380000D03*
X198870000Y-105380000D03*
X201410000Y-105380000D03*
X203950000Y-105380000D03*
X104890000Y-102840000D03*
X107430000Y-102840000D03*
X109970000Y-102840000D03*
X112510000Y-102840000D03*
X115050000Y-102840000D03*
X117590000Y-102840000D03*
X120130000Y-102840000D03*
X122670000Y-102840000D03*
X125210000Y-102840000D03*
X127750000Y-102840000D03*
X130290000Y-102840000D03*
X132830000Y-102840000D03*
X135370000Y-102840000D03*
X137910000Y-102840000D03*
X140450000Y-102840000D03*
X142990000Y-102840000D03*
X145530000Y-102840000D03*
X148070000Y-102840000D03*
X150610000Y-102840000D03*
X153150000Y-102840000D03*
X155690000Y-102840000D03*
X158230000Y-102840000D03*
X160770000Y-102840000D03*
X163310000Y-102840000D03*
X165850000Y-102840000D03*
X168390000Y-102840000D03*
X170930000Y-102840000D03*
X173470000Y-102840000D03*
X176010000Y-102840000D03*
X178550000Y-102840000D03*
X181090000Y-102840000D03*
X183630000Y-102840000D03*
X186170000Y-102840000D03*
X188710000Y-102840000D03*
X191250000Y-102840000D03*
X193790000Y-102840000D03*
X196330000Y-102840000D03*
X198870000Y-102840000D03*
X201410000Y-102840000D03*
X203950000Y-102840000D03*
X104890000Y-100300000D03*
X107430000Y-100300000D03*
X109970000Y-100300000D03*
X112510000Y-100300000D03*
X115050000Y-100300000D03*
X117590000Y-100300000D03*
X120130000Y-100300000D03*
X122670000Y-100300000D03*
X125210000Y-100300000D03*
X127750000Y-100300000D03*
X130290000Y-100300000D03*
X132830000Y-100300000D03*
X135370000Y-100300000D03*
X137910000Y-100300000D03*
X140450000Y-100300000D03*
X142990000Y-100300000D03*
X145530000Y-100300000D03*
X148070000Y-100300000D03*
X150610000Y-100300000D03*
X153150000Y-100300000D03*
X155690000Y-100300000D03*
X158230000Y-100300000D03*
X160770000Y-100300000D03*
X163310000Y-100300000D03*
X165850000Y-100300000D03*
X168390000Y-100300000D03*
X170930000Y-100300000D03*
X173470000Y-100300000D03*
X176010000Y-100300000D03*
X178550000Y-100300000D03*
X181090000Y-100300000D03*
X183630000Y-100300000D03*
X186170000Y-100300000D03*
X188710000Y-100300000D03*
X191250000Y-100300000D03*
X193790000Y-100300000D03*
X196330000Y-100300000D03*
X198870000Y-100300000D03*
X201410000Y-100300000D03*
X203950000Y-100300000D03*
%TD*%
M02*
