%TF.GenerationSoftware,KiCad,Pcbnew,(5.1.9-0-10_14)*%
%TF.CreationDate,2023-05-03T15:09:17+02:00*%
%TF.ProjectId,IIsiPDSAdapter,49497369-5044-4534-9164-61707465722e,rev?*%
%TF.SameCoordinates,Original*%
%TF.FileFunction,Soldermask,Bot*%
%TF.FilePolarity,Negative*%
%FSLAX46Y46*%
G04 Gerber Fmt 4.6, Leading zero omitted, Abs format (unit mm)*
G04 Created by KiCad (PCBNEW (5.1.9-0-10_14)) date 2023-05-03 15:09:17*
%MOMM*%
%LPD*%
G01*
G04 APERTURE LIST*
%ADD10C,0.800000*%
%ADD11C,1.600000*%
%ADD12R,1.600000X1.600000*%
%ADD13C,1.524000*%
%ADD14R,1.524000X1.524000*%
%ADD15C,4.335000*%
%ADD16C,1.605000*%
%ADD17R,1.605000X1.605000*%
%ADD18C,3.403600*%
%ADD19C,1.574800*%
G04 APERTURE END LIST*
D10*
%TO.C,S1*%
X83500000Y-100000000D03*
X86500000Y-100000000D03*
%TD*%
%TO.C,X1*%
G36*
G01*
X65820000Y-151900000D02*
X65820000Y-151100000D01*
G75*
G02*
X66220000Y-150700000I400000J0D01*
G01*
X67020000Y-150700000D01*
G75*
G02*
X67420000Y-151100000I0J-400000D01*
G01*
X67420000Y-151900000D01*
G75*
G02*
X67020000Y-152300000I-400000J0D01*
G01*
X66220000Y-152300000D01*
G75*
G02*
X65820000Y-151900000I0J400000D01*
G01*
G37*
D11*
X66620000Y-143880000D03*
X74240000Y-151500000D03*
X74240000Y-143880000D03*
X59000000Y-143880000D03*
D12*
X59000000Y-151500000D03*
%TD*%
D13*
%TO.C,J2*%
X90430000Y-114820000D03*
X87890000Y-114820000D03*
X85350000Y-114820000D03*
X82810000Y-114820000D03*
X80270000Y-114820000D03*
X77730000Y-114820000D03*
X75190000Y-114820000D03*
X72650000Y-114820000D03*
X70110000Y-114820000D03*
D14*
X67570000Y-114820000D03*
D13*
X90430000Y-117360000D03*
X87890000Y-117360000D03*
X85350000Y-117360000D03*
X82810000Y-117360000D03*
X80270000Y-117360000D03*
X77730000Y-117360000D03*
X75190000Y-117360000D03*
X72650000Y-117360000D03*
X70110000Y-117360000D03*
X67570000Y-117360000D03*
X90430000Y-119900000D03*
X87890000Y-119900000D03*
X85350000Y-119900000D03*
X72650000Y-119900000D03*
X70110000Y-119900000D03*
X67570000Y-119900000D03*
X90430000Y-122440000D03*
X87890000Y-122440000D03*
X70110000Y-122440000D03*
X67570000Y-122440000D03*
X90430000Y-124980000D03*
X87890000Y-124980000D03*
X70110000Y-124980000D03*
X67570000Y-124980000D03*
X90430000Y-127520000D03*
X87890000Y-127520000D03*
X70110000Y-127520000D03*
X67570000Y-127520000D03*
X90430000Y-130060000D03*
X87890000Y-130060000D03*
X70110000Y-130060000D03*
X67570000Y-130060000D03*
X90430000Y-132600000D03*
X87890000Y-132600000D03*
X85350000Y-132600000D03*
X72650000Y-132600000D03*
X70110000Y-132600000D03*
X67570000Y-132600000D03*
X90430000Y-135140000D03*
X87890000Y-135140000D03*
X85350000Y-135140000D03*
X82810000Y-135140000D03*
X80270000Y-135140000D03*
X77730000Y-135140000D03*
X75190000Y-135140000D03*
X72650000Y-135140000D03*
X70110000Y-135140000D03*
X67570000Y-135140000D03*
X90430000Y-137680000D03*
X87890000Y-137680000D03*
X85350000Y-137680000D03*
X82810000Y-137680000D03*
X80270000Y-137680000D03*
X77730000Y-137680000D03*
X75190000Y-137680000D03*
X72650000Y-137680000D03*
X70110000Y-137680000D03*
X67570000Y-137680000D03*
%TD*%
D15*
%TO.C,J1*%
X95860000Y-152540000D03*
X205080000Y-152540000D03*
D16*
X100940000Y-144920000D03*
X103480000Y-144920000D03*
X106020000Y-144920000D03*
X108560000Y-144920000D03*
X111100000Y-144920000D03*
X113640000Y-144920000D03*
X116180000Y-144920000D03*
X118720000Y-144920000D03*
X121260000Y-144920000D03*
X123800000Y-144920000D03*
X126340000Y-144920000D03*
X128880000Y-144920000D03*
X131420000Y-144920000D03*
X133960000Y-144920000D03*
X136500000Y-144920000D03*
X139040000Y-144920000D03*
X141580000Y-144920000D03*
X144120000Y-144920000D03*
X146660000Y-144920000D03*
X149200000Y-144920000D03*
X151740000Y-144920000D03*
X154280000Y-144920000D03*
X156820000Y-144920000D03*
X159360000Y-144920000D03*
X161900000Y-144920000D03*
X164440000Y-144920000D03*
X166980000Y-144920000D03*
X169520000Y-144920000D03*
X172060000Y-144920000D03*
X174600000Y-144920000D03*
X177140000Y-144920000D03*
X179680000Y-144920000D03*
X182220000Y-144920000D03*
X184760000Y-144920000D03*
X187300000Y-144920000D03*
X189840000Y-144920000D03*
X192380000Y-144920000D03*
X194920000Y-144920000D03*
X197460000Y-144920000D03*
X200000000Y-144920000D03*
X100940000Y-147460000D03*
X103480000Y-147460000D03*
X106020000Y-147460000D03*
X108560000Y-147460000D03*
X111100000Y-147460000D03*
X113640000Y-147460000D03*
X116180000Y-147460000D03*
X118720000Y-147460000D03*
X121260000Y-147460000D03*
X123800000Y-147460000D03*
X126340000Y-147460000D03*
X128880000Y-147460000D03*
X131420000Y-147460000D03*
X133960000Y-147460000D03*
X136500000Y-147460000D03*
X139040000Y-147460000D03*
X141580000Y-147460000D03*
X144120000Y-147460000D03*
X146660000Y-147460000D03*
X149200000Y-147460000D03*
X151740000Y-147460000D03*
X154280000Y-147460000D03*
X156820000Y-147460000D03*
X159360000Y-147460000D03*
X161900000Y-147460000D03*
X164440000Y-147460000D03*
X166980000Y-147460000D03*
X169520000Y-147460000D03*
X172060000Y-147460000D03*
X174600000Y-147460000D03*
X177140000Y-147460000D03*
X179680000Y-147460000D03*
X182220000Y-147460000D03*
X184760000Y-147460000D03*
X187300000Y-147460000D03*
X189840000Y-147460000D03*
X192380000Y-147460000D03*
X194920000Y-147460000D03*
X197460000Y-147460000D03*
X200000000Y-147460000D03*
X100940000Y-150000000D03*
X103480000Y-150000000D03*
X106020000Y-150000000D03*
X108560000Y-150000000D03*
X111100000Y-150000000D03*
X113640000Y-150000000D03*
X116180000Y-150000000D03*
X118720000Y-150000000D03*
X121260000Y-150000000D03*
X123800000Y-150000000D03*
X126340000Y-150000000D03*
X128880000Y-150000000D03*
X131420000Y-150000000D03*
X133960000Y-150000000D03*
X136500000Y-150000000D03*
X139040000Y-150000000D03*
X141580000Y-150000000D03*
X144120000Y-150000000D03*
X146660000Y-150000000D03*
X149200000Y-150000000D03*
X151740000Y-150000000D03*
X154280000Y-150000000D03*
X156820000Y-150000000D03*
X159360000Y-150000000D03*
X161900000Y-150000000D03*
X164440000Y-150000000D03*
X166980000Y-150000000D03*
X169520000Y-150000000D03*
X172060000Y-150000000D03*
X174600000Y-150000000D03*
X177140000Y-150000000D03*
X179680000Y-150000000D03*
X182220000Y-150000000D03*
X184760000Y-150000000D03*
X187300000Y-150000000D03*
X189840000Y-150000000D03*
X192380000Y-150000000D03*
X194920000Y-150000000D03*
X197460000Y-150000000D03*
D17*
X200000000Y-150000000D03*
%TD*%
D18*
%TO.C,J3*%
X209576100Y-102535200D03*
X99263900Y-102535200D03*
D19*
X104890000Y-105380000D03*
X107430000Y-105380000D03*
X109970000Y-105380000D03*
X112510000Y-105380000D03*
X115050000Y-105380000D03*
X117590000Y-105380000D03*
X120130000Y-105380000D03*
X122670000Y-105380000D03*
X125210000Y-105380000D03*
X127750000Y-105380000D03*
X130290000Y-105380000D03*
X132830000Y-105380000D03*
X135370000Y-105380000D03*
X137910000Y-105380000D03*
X140450000Y-105380000D03*
X142990000Y-105380000D03*
X145530000Y-105380000D03*
X148070000Y-105380000D03*
X150610000Y-105380000D03*
X153150000Y-105380000D03*
X155690000Y-105380000D03*
X158230000Y-105380000D03*
X160770000Y-105380000D03*
X163310000Y-105380000D03*
X165850000Y-105380000D03*
X168390000Y-105380000D03*
X170930000Y-105380000D03*
X173470000Y-105380000D03*
X176010000Y-105380000D03*
X178550000Y-105380000D03*
X181090000Y-105380000D03*
X183630000Y-105380000D03*
X186170000Y-105380000D03*
X188710000Y-105380000D03*
X191250000Y-105380000D03*
X193790000Y-105380000D03*
X196330000Y-105380000D03*
X198870000Y-105380000D03*
X201410000Y-105380000D03*
X203950000Y-105380000D03*
X104890000Y-102840000D03*
X107430000Y-102840000D03*
X109970000Y-102840000D03*
X112510000Y-102840000D03*
X115050000Y-102840000D03*
X117590000Y-102840000D03*
X120130000Y-102840000D03*
X122670000Y-102840000D03*
X125210000Y-102840000D03*
X127750000Y-102840000D03*
X130290000Y-102840000D03*
X132830000Y-102840000D03*
X135370000Y-102840000D03*
X137910000Y-102840000D03*
X140450000Y-102840000D03*
X142990000Y-102840000D03*
X145530000Y-102840000D03*
X148070000Y-102840000D03*
X150610000Y-102840000D03*
X153150000Y-102840000D03*
X155690000Y-102840000D03*
X158230000Y-102840000D03*
X160770000Y-102840000D03*
X163310000Y-102840000D03*
X165850000Y-102840000D03*
X168390000Y-102840000D03*
X170930000Y-102840000D03*
X173470000Y-102840000D03*
X176010000Y-102840000D03*
X178550000Y-102840000D03*
X181090000Y-102840000D03*
X183630000Y-102840000D03*
X186170000Y-102840000D03*
X188710000Y-102840000D03*
X191250000Y-102840000D03*
X193790000Y-102840000D03*
X196330000Y-102840000D03*
X198870000Y-102840000D03*
X201410000Y-102840000D03*
X203950000Y-102840000D03*
X104890000Y-100300000D03*
X107430000Y-100300000D03*
X109970000Y-100300000D03*
X112510000Y-100300000D03*
X115050000Y-100300000D03*
X117590000Y-100300000D03*
X120130000Y-100300000D03*
X122670000Y-100300000D03*
X125210000Y-100300000D03*
X127750000Y-100300000D03*
X130290000Y-100300000D03*
X132830000Y-100300000D03*
X135370000Y-100300000D03*
X137910000Y-100300000D03*
X140450000Y-100300000D03*
X142990000Y-100300000D03*
X145530000Y-100300000D03*
X148070000Y-100300000D03*
X150610000Y-100300000D03*
X153150000Y-100300000D03*
X155690000Y-100300000D03*
X158230000Y-100300000D03*
X160770000Y-100300000D03*
X163310000Y-100300000D03*
X165850000Y-100300000D03*
X168390000Y-100300000D03*
X170930000Y-100300000D03*
X173470000Y-100300000D03*
X176010000Y-100300000D03*
X178550000Y-100300000D03*
X181090000Y-100300000D03*
X183630000Y-100300000D03*
X186170000Y-100300000D03*
X188710000Y-100300000D03*
X191250000Y-100300000D03*
X193790000Y-100300000D03*
X196330000Y-100300000D03*
X198870000Y-100300000D03*
X201410000Y-100300000D03*
X203950000Y-100300000D03*
%TD*%
M02*
